<svg width="128" height="128" xmlns="http://www.w3.org/2000/svg"><rect x="0" y="0" width="8" height="8" fill="rgb(12, 19, 47)"></rect><rect x="8" y="0" width="8" height="8" fill="rgb(13, 31, 76)"></rect><rect x="16" y="0" width="8" height="8" fill="rgb(16, 48, 123)"></rect><rect x="24" y="0" width="8" height="8" fill="rgb(67, 131, 107)"></rect><rect x="32" y="0" width="8" height="8" fill="rgb(44, 72, 157)"></rect><rect x="40" y="0" width="8" height="8" fill="rgb(101, 123, 201)"></rect><rect x="48" y="0" width="8" height="8" fill="rgb(194, 203, 236)"></rect><rect x="56" y="0" width="8" height="8" fill="rgb(241, 246, 252)"></rect><rect x="64" y="0" width="8" height="8" fill="rgb(250, 241, 249)"></rect><rect x="72" y="0" width="8" height="8" fill="rgb(251, 231, 243)"></rect><rect x="80" y="0" width="8" height="8" fill="rgb(248, 176, 218)"></rect><rect x="88" y="0" width="8" height="8" fill="rgb(237, 99, 180)"></rect><rect x="96" y="0" width="8" height="8" fill="rgb(182, 99, 122)"></rect><rect x="104" y="0" width="8" height="8" fill="rgb(142, 34, 132)"></rect><rect x="112" y="0" width="8" height="8" fill="rgb(66, 31, 114)"></rect><rect x="120" y="0" width="8" height="8" fill="rgb(33, 33, 86)"></rect><rect x="0" y="8" width="8" height="8" fill="rgb(15, 25, 65)"></rect><rect x="8" y="8" width="8" height="8" fill="rgb(15, 48, 119)"></rect><rect x="16" y="8" width="8" height="8" fill="rgb(11, 72, 165)"></rect><rect x="24" y="8" width="8" height="8" fill="rgb(54, 118, 161)"></rect><rect x="32" y="8" width="8" height="8" fill="rgb(152, 177, 200)"></rect><rect x="40" y="8" width="8" height="8" fill="rgb(241, 242, 249)"></rect><rect x="48" y="8" width="8" height="8" fill="rgb(254, 252, 253)"></rect><rect x="56" y="8" width="8" height="8" fill="rgb(254, 254, 254)"></rect><rect x="64" y="8" width="8" height="8" fill="rgb(254, 253, 254)"></rect><rect x="72" y="8" width="8" height="8" fill="rgb(254, 252, 254)"></rect><rect x="80" y="8" width="8" height="8" fill="rgb(252, 240, 248)"></rect><rect x="88" y="8" width="8" height="8" fill="rgb(247, 189, 222)"></rect><rect x="96" y="8" width="8" height="8" fill="rgb(155, 150, 124)"></rect><rect x="104" y="8" width="8" height="8" fill="rgb(189, 45, 146)"></rect><rect x="112" y="8" width="8" height="8" fill="rgb(99, 33, 133)"></rect><rect x="120" y="8" width="8" height="8" fill="rgb(46, 34, 109)"></rect><rect x="0" y="16" width="8" height="8" fill="rgb(16, 41, 99)"></rect><rect x="8" y="16" width="8" height="8" fill="rgb(12, 65, 155)"></rect><rect x="16" y="16" width="8" height="8" fill="rgb(20, 131, 211)"></rect><rect x="24" y="16" width="8" height="8" fill="rgb(162, 203, 238)"></rect><rect x="32" y="16" width="8" height="8" fill="rgb(208, 225, 191)"></rect><rect x="40" y="16" width="8" height="8" fill="rgb(253, 253, 253)"></rect><rect x="48" y="16" width="8" height="8" fill="rgb(253, 254, 253)"></rect><rect x="56" y="16" width="8" height="8" fill="rgb(252, 253, 252)"></rect><rect x="64" y="16" width="8" height="8" fill="rgb(252, 253, 253)"></rect><rect x="72" y="16" width="8" height="8" fill="rgb(254, 254, 254)"></rect><rect x="80" y="16" width="8" height="8" fill="rgb(254, 252, 254)"></rect><rect x="88" y="16" width="8" height="8" fill="rgb(224, 231, 209)"></rect><rect x="96" y="16" width="8" height="8" fill="rgb(242, 162, 204)"></rect><rect x="104" y="16" width="8" height="8" fill="rgb(220, 78, 170)"></rect><rect x="112" y="16" width="8" height="8" fill="rgb(111, 33, 141)"></rect><rect x="120" y="16" width="8" height="8" fill="rgb(58, 34, 127)"></rect><rect x="0" y="24" width="8" height="8" fill="rgb(15, 60, 136)"></rect><rect x="8" y="24" width="8" height="8" fill="rgb(12, 90, 185)"></rect><rect x="16" y="24" width="8" height="8" fill="rgb(116, 202, 241)"></rect><rect x="24" y="24" width="8" height="8" fill="rgb(249, 252, 253)"></rect><rect x="32" y="24" width="8" height="8" fill="rgb(220, 239, 206)"></rect><rect x="40" y="24" width="8" height="8" fill="rgb(207, 233, 188)"></rect><rect x="48" y="24" width="8" height="8" fill="rgb(216, 239, 211)"></rect><rect x="56" y="24" width="8" height="8" fill="rgb(214, 240, 214)"></rect><rect x="64" y="24" width="8" height="8" fill="rgb(216, 240, 215)"></rect><rect x="72" y="24" width="8" height="8" fill="rgb(217, 240, 211)"></rect><rect x="80" y="24" width="8" height="8" fill="rgb(217, 239, 202)"></rect><rect x="88" y="24" width="8" height="8" fill="rgb(201, 228, 177)"></rect><rect x="96" y="24" width="8" height="8" fill="rgb(252, 229, 242)"></rect><rect x="104" y="24" width="8" height="8" fill="rgb(215, 130, 197)"></rect><rect x="112" y="24" width="8" height="8" fill="rgb(107, 38, 147)"></rect><rect x="120" y="24" width="8" height="8" fill="rgb(61, 35, 137)"></rect><rect x="0" y="32" width="8" height="8" fill="rgb(11, 80, 167)"></rect><rect x="8" y="32" width="8" height="8" fill="rgb(23, 147, 223)"></rect><rect x="16" y="32" width="8" height="8" fill="rgb(195, 230, 229)"></rect><rect x="24" y="32" width="8" height="8" fill="rgb(171, 223, 139)"></rect><rect x="32" y="32" width="8" height="8" fill="rgb(111, 202, 89)"></rect><rect x="40" y="32" width="8" height="8" fill="rgb(85, 191, 77)"></rect><rect x="48" y="32" width="8" height="8" fill="rgb(91, 194, 87)"></rect><rect x="56" y="32" width="8" height="8" fill="rgb(95, 196, 92)"></rect><rect x="64" y="32" width="8" height="8" fill="rgb(95, 195, 92)"></rect><rect x="72" y="32" width="8" height="8" fill="rgb(93, 194, 88)"></rect><rect x="80" y="32" width="8" height="8" fill="rgb(100, 197, 84)"></rect><rect x="88" y="32" width="8" height="8" fill="rgb(117, 207, 82)"></rect><rect x="96" y="32" width="8" height="8" fill="rgb(195, 228, 168)"></rect><rect x="104" y="32" width="8" height="8" fill="rgb(203, 169, 215)"></rect><rect x="112" y="32" width="8" height="8" fill="rgb(90, 48, 154)"></rect><rect x="120" y="32" width="8" height="8" fill="rgb(54, 36, 142)"></rect><rect x="0" y="40" width="8" height="8" fill="rgb(11, 140, 220)"></rect><rect x="8" y="40" width="8" height="8" fill="rgb(40, 181, 226)"></rect><rect x="16" y="40" width="8" height="8" fill="rgb(134, 212, 99)"></rect><rect x="24" y="40" width="8" height="8" fill="rgb(81, 190, 68)"></rect><rect x="32" y="40" width="8" height="8" fill="rgb(75, 188, 68)"></rect><rect x="40" y="40" width="8" height="8" fill="rgb(77, 186, 70)"></rect><rect x="48" y="40" width="8" height="8" fill="rgb(75, 188, 68)"></rect><rect x="56" y="40" width="8" height="8" fill="rgb(75, 188, 68)"></rect><rect x="64" y="40" width="8" height="8" fill="rgb(76, 188, 68)"></rect><rect x="72" y="40" width="8" height="8" fill="rgb(76, 188, 68)"></rect><rect x="80" y="40" width="8" height="8" fill="rgb(76, 188, 68)"></rect><rect x="88" y="40" width="8" height="8" fill="rgb(76, 188, 68)"></rect><rect x="96" y="40" width="8" height="8" fill="rgb(98, 197, 77)"></rect><rect x="104" y="40" width="8" height="8" fill="rgb(173, 218, 168)"></rect><rect x="112" y="40" width="8" height="8" fill="rgb(74, 141, 211)"></rect><rect x="120" y="40" width="8" height="8" fill="rgb(42, 45, 151)"></rect><rect x="0" y="48" width="8" height="8" fill="rgb(10, 149, 227)"></rect><rect x="8" y="48" width="8" height="8" fill="rgb(84, 198, 149)"></rect><rect x="16" y="48" width="8" height="8" fill="rgb(84, 192, 68)"></rect><rect x="24" y="48" width="8" height="8" fill="rgb(116, 198, 112)"></rect><rect x="32" y="48" width="8" height="8" fill="rgb(115, 198, 112)"></rect><rect x="40" y="48" width="8" height="8" fill="rgb(78, 187, 69)"></rect><rect x="48" y="48" width="8" height="8" fill="rgb(75, 188, 68)"></rect><rect x="56" y="48" width="8" height="8" fill="rgb(75, 189, 68)"></rect><rect x="64" y="48" width="8" height="8" fill="rgb(75, 189, 68)"></rect><rect x="72" y="48" width="8" height="8" fill="rgb(75, 189, 68)"></rect><rect x="80" y="48" width="8" height="8" fill="rgb(75, 188, 68)"></rect><rect x="88" y="48" width="8" height="8" fill="rgb(111, 197, 106)"></rect><rect x="96" y="48" width="8" height="8" fill="rgb(97, 193, 91)"></rect><rect x="104" y="48" width="8" height="8" fill="rgb(107, 201, 81)"></rect><rect x="112" y="48" width="8" height="8" fill="rgb(71, 195, 192)"></rect><rect x="120" y="48" width="8" height="8" fill="rgb(11, 139, 221)"></rect><rect x="0" y="56" width="8" height="8" fill="rgb(12, 172, 238)"></rect><rect x="8" y="56" width="8" height="8" fill="rgb(103, 200, 87)"></rect><rect x="16" y="56" width="8" height="8" fill="rgb(113, 194, 112)"></rect><rect x="24" y="56" width="8" height="8" fill="rgb(199, 201, 236)"></rect><rect x="32" y="56" width="8" height="8" fill="rgb(195, 197, 235)"></rect><rect x="40" y="56" width="8" height="8" fill="rgb(109, 191, 111)"></rect><rect x="48" y="56" width="8" height="8" fill="rgb(75, 188, 68)"></rect><rect x="56" y="56" width="8" height="8" fill="rgb(75, 189, 68)"></rect><rect x="64" y="56" width="8" height="8" fill="rgb(75, 189, 68)"></rect><rect x="72" y="56" width="8" height="8" fill="rgb(75, 189, 68)"></rect><rect x="80" y="56" width="8" height="8" fill="rgb(124, 194, 130)"></rect><rect x="88" y="56" width="8" height="8" fill="rgb(199, 200, 236)"></rect><rect x="96" y="56" width="8" height="8" fill="rgb(197, 203, 229)"></rect><rect x="104" y="56" width="8" height="8" fill="rgb(93, 191, 85)"></rect><rect x="112" y="56" width="8" height="8" fill="rgb(99, 205, 130)"></rect><rect x="120" y="56" width="8" height="8" fill="rgb(25, 166, 231)"></rect><rect x="0" y="64" width="8" height="8" fill="rgb(14, 134, 212)"></rect><rect x="8" y="64" width="8" height="8" fill="rgb(100, 200, 74)"></rect><rect x="16" y="64" width="8" height="8" fill="rgb(113, 187, 120)"></rect><rect x="24" y="64" width="8" height="8" fill="rgb(178, 180, 228)"></rect><rect x="32" y="64" width="8" height="8" fill="rgb(176, 178, 225)"></rect><rect x="40" y="64" width="8" height="8" fill="rgb(109, 185, 119)"></rect><rect x="48" y="64" width="8" height="8" fill="rgb(75, 188, 68)"></rect><rect x="56" y="64" width="8" height="8" fill="rgb(75, 188, 68)"></rect><rect x="64" y="64" width="8" height="8" fill="rgb(74, 188, 67)"></rect><rect x="72" y="64" width="8" height="8" fill="rgb(75, 189, 68)"></rect><rect x="80" y="64" width="8" height="8" fill="rgb(126, 183, 146)"></rect><rect x="88" y="64" width="8" height="8" fill="rgb(174, 176, 223)"></rect><rect x="96" y="64" width="8" height="8" fill="rgb(182, 184, 232)"></rect><rect x="104" y="64" width="8" height="8" fill="rgb(96, 187, 97)"></rect><rect x="112" y="64" width="8" height="8" fill="rgb(95, 192, 102)"></rect><rect x="120" y="64" width="8" height="8" fill="rgb(16, 91, 188)"></rect><rect x="0" y="72" width="8" height="8" fill="rgb(14, 98, 191)"></rect><rect x="8" y="72" width="8" height="8" fill="rgb(80, 175, 76)"></rect><rect x="16" y="72" width="8" height="8" fill="rgb(70, 178, 67)"></rect><rect x="24" y="72" width="8" height="8" fill="rgb(115, 182, 133)"></rect><rect x="32" y="72" width="8" height="8" fill="rgb(116, 183, 132)"></rect><rect x="40" y="72" width="8" height="8" fill="rgb(74, 184, 68)"></rect><rect x="48" y="72" width="8" height="8" fill="rgb(73, 185, 68)"></rect><rect x="56" y="72" width="8" height="8" fill="rgb(74, 184, 68)"></rect><rect x="64" y="72" width="8" height="8" fill="rgb(74, 184, 68)"></rect><rect x="72" y="72" width="8" height="8" fill="rgb(73, 186, 67)"></rect><rect x="80" y="72" width="8" height="8" fill="rgb(79, 183, 76)"></rect><rect x="88" y="72" width="8" height="8" fill="rgb(130, 183, 152)"></rect><rect x="96" y="72" width="8" height="8" fill="rgb(114, 182, 131)"></rect><rect x="104" y="72" width="8" height="8" fill="rgb(68, 178, 65)"></rect><rect x="112" y="72" width="8" height="8" fill="rgb(74, 173, 115)"></rect><rect x="120" y="72" width="8" height="8" fill="rgb(19, 103, 194)"></rect><rect x="0" y="80" width="8" height="8" fill="rgb(16, 58, 148)"></rect><rect x="8" y="80" width="8" height="8" fill="rgb(45, 129, 109)"></rect><rect x="16" y="80" width="8" height="8" fill="rgb(55, 158, 62)"></rect><rect x="24" y="80" width="8" height="8" fill="rgb(60, 165, 63)"></rect><rect x="32" y="80" width="8" height="8" fill="rgb(64, 171, 64)"></rect><rect x="40" y="80" width="8" height="8" fill="rgb(66, 174, 65)"></rect><rect x="48" y="80" width="8" height="8" fill="rgb(66, 176, 66)"></rect><rect x="56" y="80" width="8" height="8" fill="rgb(67, 177, 66)"></rect><rect x="64" y="80" width="8" height="8" fill="rgb(67, 177, 66)"></rect><rect x="72" y="80" width="8" height="8" fill="rgb(66, 176, 66)"></rect><rect x="80" y="80" width="8" height="8" fill="rgb(65, 175, 65)"></rect><rect x="88" y="80" width="8" height="8" fill="rgb(62, 171, 64)"></rect><rect x="96" y="80" width="8" height="8" fill="rgb(57, 165, 64)"></rect><rect x="104" y="80" width="8" height="8" fill="rgb(53, 157, 62)"></rect><rect x="112" y="80" width="8" height="8" fill="rgb(39, 128, 148)"></rect><rect x="120" y="80" width="8" height="8" fill="rgb(32, 43, 139)"></rect><rect x="0" y="88" width="8" height="8" fill="rgb(21, 42, 115)"></rect><rect x="8" y="88" width="8" height="8" fill="rgb(18, 78, 150)"></rect><rect x="16" y="88" width="8" height="8" fill="rgb(39, 133, 73)"></rect><rect x="24" y="88" width="8" height="8" fill="rgb(44, 141, 60)"></rect><rect x="32" y="88" width="8" height="8" fill="rgb(49, 149, 61)"></rect><rect x="40" y="88" width="8" height="8" fill="rgb(52, 154, 62)"></rect><rect x="48" y="88" width="8" height="8" fill="rgb(54, 157, 63)"></rect><rect x="56" y="88" width="8" height="8" fill="rgb(55, 159, 63)"></rect><rect x="64" y="88" width="8" height="8" fill="rgb(55, 159, 62)"></rect><rect x="72" y="88" width="8" height="8" fill="rgb(53, 157, 63)"></rect><rect x="80" y="88" width="8" height="8" fill="rgb(51, 154, 62)"></rect><rect x="88" y="88" width="8" height="8" fill="rgb(47, 148, 61)"></rect><rect x="96" y="88" width="8" height="8" fill="rgb(41, 137, 59)"></rect><rect x="104" y="88" width="8" height="8" fill="rgb(36, 126, 91)"></rect><rect x="112" y="88" width="8" height="8" fill="rgb(15, 82, 173)"></rect><rect x="120" y="88" width="8" height="8" fill="rgb(27, 46, 128)"></rect><rect x="0" y="96" width="8" height="8" fill="rgb(20, 40, 101)"></rect><rect x="8" y="96" width="8" height="8" fill="rgb(14, 64, 132)"></rect><rect x="16" y="96" width="8" height="8" fill="rgb(18, 138, 174)"></rect><rect x="24" y="96" width="8" height="8" fill="rgb(29, 114, 55)"></rect><rect x="32" y="96" width="8" height="8" fill="rgb(32, 121, 57)"></rect><rect x="40" y="96" width="8" height="8" fill="rgb(37, 128, 58)"></rect><rect x="48" y="96" width="8" height="8" fill="rgb(39, 132, 59)"></rect><rect x="56" y="96" width="8" height="8" fill="rgb(40, 134, 60)"></rect><rect x="64" y="96" width="8" height="8" fill="rgb(40, 134, 60)"></rect><rect x="72" y="96" width="8" height="8" fill="rgb(38, 131, 59)"></rect><rect x="80" y="96" width="8" height="8" fill="rgb(34, 125, 58)"></rect><rect x="88" y="96" width="8" height="8" fill="rgb(28, 117, 56)"></rect><rect x="96" y="96" width="8" height="8" fill="rgb(26, 111, 55)"></rect><rect x="104" y="96" width="8" height="8" fill="rgb(37, 90, 149)"></rect><rect x="112" y="96" width="8" height="8" fill="rgb(21, 63, 150)"></rect><rect x="120" y="96" width="8" height="8" fill="rgb(26, 36, 102)"></rect><rect x="0" y="104" width="8" height="8" fill="rgb(15, 38, 91)"></rect><rect x="8" y="104" width="8" height="8" fill="rgb(14, 45, 100)"></rect><rect x="16" y="104" width="8" height="8" fill="rgb(17, 89, 122)"></rect><rect x="24" y="104" width="8" height="8" fill="rgb(24, 102, 54)"></rect><rect x="32" y="104" width="8" height="8" fill="rgb(21, 86, 47)"></rect><rect x="40" y="104" width="8" height="8" fill="rgb(23, 99, 52)"></rect><rect x="48" y="104" width="8" height="8" fill="rgb(28, 113, 61)"></rect><rect x="56" y="104" width="8" height="8" fill="rgb(42, 123, 77)"></rect><rect x="64" y="104" width="8" height="8" fill="rgb(45, 125, 80)"></rect><rect x="72" y="104" width="8" height="8" fill="rgb(32, 116, 67)"></rect><rect x="80" y="104" width="8" height="8" fill="rgb(23, 92, 50)"></rect><rect x="88" y="104" width="8" height="8" fill="rgb(21, 79, 44)"></rect><rect x="96" y="104" width="8" height="8" fill="rgb(23, 102, 56)"></rect><rect x="104" y="104" width="8" height="8" fill="rgb(37, 63, 107)"></rect><rect x="112" y="104" width="8" height="8" fill="rgb(29, 37, 112)"></rect><rect x="120" y="104" width="8" height="8" fill="rgb(23, 27, 72)"></rect><rect x="0" y="112" width="8" height="8" fill="rgb(12, 31, 73)"></rect><rect x="8" y="112" width="8" height="8" fill="rgb(16, 37, 93)"></rect><rect x="16" y="112" width="8" height="8" fill="rgb(16, 47, 92)"></rect><rect x="24" y="112" width="8" height="8" fill="rgb(27, 104, 59)"></rect><rect x="32" y="112" width="8" height="8" fill="rgb(20, 99, 52)"></rect><rect x="40" y="112" width="8" height="8" fill="rgb(18, 83, 68)"></rect><rect x="48" y="112" width="8" height="8" fill="rgb(40, 187, 220)"></rect><rect x="56" y="112" width="8" height="8" fill="rgb(148, 226, 233)"></rect><rect x="64" y="112" width="8" height="8" fill="rgb(180, 232, 237)"></rect><rect x="72" y="112" width="8" height="8" fill="rgb(38, 196, 231)"></rect><rect x="80" y="112" width="8" height="8" fill="rgb(19, 83, 72)"></rect><rect x="88" y="112" width="8" height="8" fill="rgb(20, 100, 55)"></rect><rect x="96" y="112" width="8" height="8" fill="rgb(22, 101, 57)"></rect><rect x="104" y="112" width="8" height="8" fill="rgb(29, 51, 108)"></rect><rect x="112" y="112" width="8" height="8" fill="rgb(18, 35, 85)"></rect><rect x="120" y="112" width="8" height="8" fill="rgb(17, 21, 50)"></rect><rect x="0" y="120" width="8" height="8" fill="rgb(12, 26, 57)"></rect><rect x="8" y="120" width="8" height="8" fill="rgb(15, 36, 87)"></rect><rect x="16" y="120" width="8" height="8" fill="rgb(16, 37, 92)"></rect><rect x="24" y="120" width="8" height="8" fill="rgb(19, 51, 94)"></rect><rect x="32" y="120" width="8" height="8" fill="rgb(19, 92, 125)"></rect><rect x="40" y="120" width="8" height="8" fill="rgb(13, 121, 201)"></rect><rect x="48" y="120" width="8" height="8" fill="rgb(13, 182, 241)"></rect><rect x="56" y="120" width="8" height="8" fill="rgb(68, 217, 248)"></rect><rect x="64" y="120" width="8" height="8" fill="rgb(69, 219, 249)"></rect><rect x="72" y="120" width="8" height="8" fill="rgb(14, 190, 242)"></rect><rect x="80" y="120" width="8" height="8" fill="rgb(22, 103, 186)"></rect><rect x="88" y="120" width="8" height="8" fill="rgb(37, 68, 109)"></rect><rect x="96" y="120" width="8" height="8" fill="rgb(21, 66, 121)"></rect><rect x="104" y="120" width="8" height="8" fill="rgb(25, 29, 86)"></rect><rect x="112" y="120" width="8" height="8" fill="rgb(17, 21, 54)"></rect><rect x="120" y="120" width="8" height="8" fill="rgb(11, 18, 38)"></rect></svg>