<svg width="16" height="16" xmlns="http://www.w3.org/2000/svg"><rect x="0" y="0" width="1" height="1" fill="rgb(14, 20, 49)"></rect><rect x="1" y="0" width="1" height="1" fill="rgb(14, 34, 78)"></rect><rect x="2" y="0" width="1" height="1" fill="rgb(17, 47, 124)"></rect><rect x="3" y="0" width="1" height="1" fill="rgb(63, 126, 133)"></rect><rect x="4" y="0" width="1" height="1" fill="rgb(48, 69, 166)"></rect><rect x="5" y="0" width="1" height="1" fill="rgb(97, 118, 199)"></rect><rect x="6" y="0" width="1" height="1" fill="rgb(194, 215, 244)"></rect><rect x="7" y="0" width="1" height="1" fill="rgb(244, 246, 252)"></rect><rect x="8" y="0" width="1" height="1" fill="rgb(250, 240, 247)"></rect><rect x="9" y="0" width="1" height="1" fill="rgb(255, 237, 247)"></rect><rect x="10" y="0" width="1" height="1" fill="rgb(249, 181, 221)"></rect><rect x="11" y="0" width="1" height="1" fill="rgb(235, 110, 186)"></rect><rect x="12" y="0" width="1" height="1" fill="rgb(194, 65, 133)"></rect><rect x="13" y="0" width="1" height="1" fill="rgb(139, 31, 130)"></rect><rect x="14" y="0" width="1" height="1" fill="rgb(66, 33, 116)"></rect><rect x="15" y="0" width="1" height="1" fill="rgb(32, 35, 84)"></rect><rect x="0" y="1" width="1" height="1" fill="rgb(18, 29, 68)"></rect><rect x="1" y="1" width="1" height="1" fill="rgb(14, 50, 121)"></rect><rect x="2" y="1" width="1" height="1" fill="rgb(13, 71, 163)"></rect><rect x="3" y="1" width="1" height="1" fill="rgb(61, 129, 177)"></rect><rect x="4" y="1" width="1" height="1" fill="rgb(150, 164, 214)"></rect><rect x="5" y="1" width="1" height="1" fill="rgb(235, 237, 246)"></rect><rect x="6" y="1" width="1" height="1" fill="rgb(254, 252, 254)"></rect><rect x="7" y="1" width="1" height="1" fill="rgb(255, 254, 255)"></rect><rect x="8" y="1" width="1" height="1" fill="rgb(255, 254, 254)"></rect><rect x="9" y="1" width="1" height="1" fill="rgb(255, 251, 254)"></rect><rect x="10" y="1" width="1" height="1" fill="rgb(251, 239, 247)"></rect><rect x="11" y="1" width="1" height="1" fill="rgb(244, 189, 219)"></rect><rect x="12" y="1" width="1" height="1" fill="rgb(164, 176, 111)"></rect><rect x="13" y="1" width="1" height="1" fill="rgb(189, 43, 140)"></rect><rect x="14" y="1" width="1" height="1" fill="rgb(98, 33, 134)"></rect><rect x="15" y="1" width="1" height="1" fill="rgb(47, 35, 110)"></rect><rect x="0" y="2" width="1" height="1" fill="rgb(16, 39, 94)"></rect><rect x="1" y="2" width="1" height="1" fill="rgb(14, 67, 158)"></rect><rect x="2" y="2" width="1" height="1" fill="rgb(36, 146, 231)"></rect><rect x="3" y="2" width="1" height="1" fill="rgb(162, 209, 244)"></rect><rect x="4" y="2" width="1" height="1" fill="rgb(158, 215, 120)"></rect><rect x="5" y="2" width="1" height="1" fill="rgb(255, 254, 254)"></rect><rect x="6" y="2" width="1" height="1" fill="rgb(255, 255, 255)"></rect><rect x="7" y="2" width="1" height="1" fill="rgb(255, 255, 255)"></rect><rect x="8" y="2" width="1" height="1" fill="rgb(255, 255, 255)"></rect><rect x="9" y="2" width="1" height="1" fill="rgb(255, 255, 255)"></rect><rect x="10" y="2" width="1" height="1" fill="rgb(255, 253, 255)"></rect><rect x="11" y="2" width="1" height="1" fill="rgb(249, 246, 249)"></rect><rect x="12" y="2" width="1" height="1" fill="rgb(238, 167, 205)"></rect><rect x="13" y="2" width="1" height="1" fill="rgb(219, 73, 163)"></rect><rect x="14" y="2" width="1" height="1" fill="rgb(119, 35, 146)"></rect><rect x="15" y="2" width="1" height="1" fill="rgb(60, 38, 131)"></rect><rect x="0" y="3" width="1" height="1" fill="rgb(11, 57, 131)"></rect><rect x="1" y="3" width="1" height="1" fill="rgb(9, 86, 179)"></rect><rect x="2" y="3" width="1" height="1" fill="rgb(104, 207, 247)"></rect><rect x="3" y="3" width="1" height="1" fill="rgb(246, 251, 248)"></rect><rect x="4" y="3" width="1" height="1" fill="rgb(231, 248, 221)"></rect><rect x="5" y="3" width="1" height="1" fill="rgb(189, 223, 162)"></rect><rect x="6" y="3" width="1" height="1" fill="rgb(209, 238, 207)"></rect><rect x="7" y="3" width="1" height="1" fill="rgb(213, 240, 215)"></rect><rect x="8" y="3" width="1" height="1" fill="rgb(212, 240, 214)"></rect><rect x="9" y="3" width="1" height="1" fill="rgb(203, 234, 200)"></rect><rect x="10" y="3" width="1" height="1" fill="rgb(219, 241, 209)"></rect><rect x="11" y="3" width="1" height="1" fill="rgb(174, 224, 141)"></rect><rect x="12" y="3" width="1" height="1" fill="rgb(252, 230, 242)"></rect><rect x="13" y="3" width="1" height="1" fill="rgb(217, 119, 192)"></rect><rect x="14" y="3" width="1" height="1" fill="rgb(107, 35, 145)"></rect><rect x="15" y="3" width="1" height="1" fill="rgb(61, 37, 137)"></rect><rect x="0" y="4" width="1" height="1" fill="rgb(16, 89, 174)"></rect><rect x="1" y="4" width="1" height="1" fill="rgb(20, 137, 215)"></rect><rect x="2" y="4" width="1" height="1" fill="rgb(211, 237, 239)"></rect><rect x="3" y="4" width="1" height="1" fill="rgb(161, 220, 133)"></rect><rect x="4" y="4" width="1" height="1" fill="rgb(112, 203, 96)"></rect><rect x="5" y="4" width="1" height="1" fill="rgb(94, 196, 83)"></rect><rect x="6" y="4" width="1" height="1" fill="rgb(94, 195, 92)"></rect><rect x="7" y="4" width="1" height="1" fill="rgb(98, 198, 96)"></rect><rect x="8" y="4" width="1" height="1" fill="rgb(98, 198, 96)"></rect><rect x="9" y="4" width="1" height="1" fill="rgb(96, 197, 91)"></rect><rect x="10" y="4" width="1" height="1" fill="rgb(105, 200, 89)"></rect><rect x="11" y="4" width="1" height="1" fill="rgb(107, 203, 77)"></rect><rect x="12" y="4" width="1" height="1" fill="rgb(199, 233, 173)"></rect><rect x="13" y="4" width="1" height="1" fill="rgb(214, 193, 224)"></rect><rect x="14" y="4" width="1" height="1" fill="rgb(91, 48, 156)"></rect><rect x="15" y="4" width="1" height="1" fill="rgb(55, 35, 141)"></rect><rect x="0" y="5" width="1" height="1" fill="rgb(16, 150, 227)"></rect><rect x="1" y="5" width="1" height="1" fill="rgb(38, 184, 231)"></rect><rect x="2" y="5" width="1" height="1" fill="rgb(125, 212, 74)"></rect><rect x="3" y="5" width="1" height="1" fill="rgb(80, 189, 68)"></rect><rect x="4" y="5" width="1" height="1" fill="rgb(75, 189, 68)"></rect><rect x="5" y="5" width="1" height="1" fill="rgb(78, 187, 70)"></rect><rect x="6" y="5" width="1" height="1" fill="rgb(76, 188, 69)"></rect><rect x="7" y="5" width="1" height="1" fill="rgb(75, 189, 68)"></rect><rect x="8" y="5" width="1" height="1" fill="rgb(75, 189, 68)"></rect><rect x="9" y="5" width="1" height="1" fill="rgb(75, 189, 68)"></rect><rect x="10" y="5" width="1" height="1" fill="rgb(75, 189, 68)"></rect><rect x="11" y="5" width="1" height="1" fill="rgb(78, 187, 68)"></rect><rect x="12" y="5" width="1" height="1" fill="rgb(101, 200, 77)"></rect><rect x="13" y="5" width="1" height="1" fill="rgb(208, 239, 184)"></rect><rect x="14" y="5" width="1" height="1" fill="rgb(83, 153, 218)"></rect><rect x="15" y="5" width="1" height="1" fill="rgb(42, 52, 154)"></rect><rect x="0" y="6" width="1" height="1" fill="rgb(5, 137, 217)"></rect><rect x="1" y="6" width="1" height="1" fill="rgb(106, 207, 140)"></rect><rect x="2" y="6" width="1" height="1" fill="rgb(81, 189, 68)"></rect><rect x="3" y="6" width="1" height="1" fill="rgb(119, 192, 117)"></rect><rect x="4" y="6" width="1" height="1" fill="rgb(147, 211, 149)"></rect><rect x="5" y="6" width="1" height="1" fill="rgb(78, 187, 70)"></rect><rect x="6" y="6" width="1" height="1" fill="rgb(76, 188, 69)"></rect><rect x="7" y="6" width="1" height="1" fill="rgb(75, 189, 68)"></rect><rect x="8" y="6" width="1" height="1" fill="rgb(75, 189, 68)"></rect><rect x="9" y="6" width="1" height="1" fill="rgb(75, 189, 68)"></rect><rect x="10" y="6" width="1" height="1" fill="rgb(75, 189, 68)"></rect><rect x="11" y="6" width="1" height="1" fill="rgb(149, 213, 150)"></rect><rect x="12" y="6" width="1" height="1" fill="rgb(116, 201, 111)"></rect><rect x="13" y="6" width="1" height="1" fill="rgb(108, 203, 82)"></rect><rect x="14" y="6" width="1" height="1" fill="rgb(76, 201, 192)"></rect><rect x="15" y="6" width="1" height="1" fill="rgb(15, 136, 219)"></rect><rect x="0" y="7" width="1" height="1" fill="rgb(16, 165, 216)"></rect><rect x="1" y="7" width="1" height="1" fill="rgb(68, 173, 88)"></rect><rect x="2" y="7" width="1" height="1" fill="rgb(86, 188, 82)"></rect><rect x="3" y="7" width="1" height="1" fill="rgb(187, 193, 223)"></rect><rect x="4" y="7" width="1" height="1" fill="rgb(194, 195, 236)"></rect><rect x="5" y="7" width="1" height="1" fill="rgb(143, 200, 153)"></rect><rect x="6" y="7" width="1" height="1" fill="rgb(76, 188, 69)"></rect><rect x="7" y="7" width="1" height="1" fill="rgb(75, 189, 68)"></rect><rect x="8" y="7" width="1" height="1" fill="rgb(75, 189, 68)"></rect><rect x="9" y="7" width="1" height="1" fill="rgb(75, 189, 68)"></rect><rect x="10" y="7" width="1" height="1" fill="rgb(141, 199, 153)"></rect><rect x="11" y="7" width="1" height="1" fill="rgb(195, 196, 237)"></rect><rect x="12" y="7" width="1" height="1" fill="rgb(188, 201, 222)"></rect><rect x="13" y="7" width="1" height="1" fill="rgb(86, 190, 82)"></rect><rect x="14" y="7" width="1" height="1" fill="rgb(102, 214, 136)"></rect><rect x="15" y="7" width="1" height="1" fill="rgb(24, 170, 239)"></rect><rect x="0" y="8" width="1" height="1" fill="rgb(39, 156, 194)"></rect><rect x="1" y="8" width="1" height="1" fill="rgb(100, 197, 74)"></rect><rect x="2" y="8" width="1" height="1" fill="rgb(86, 187, 83)"></rect><rect x="3" y="8" width="1" height="1" fill="rgb(183, 185, 231)"></rect><rect x="4" y="8" width="1" height="1" fill="rgb(182, 184, 233)"></rect><rect x="5" y="8" width="1" height="1" fill="rgb(129, 186, 148)"></rect><rect x="6" y="8" width="1" height="1" fill="rgb(75, 188, 68)"></rect><rect x="7" y="8" width="1" height="1" fill="rgb(73, 185, 66)"></rect><rect x="8" y="8" width="1" height="1" fill="rgb(73, 185, 67)"></rect><rect x="9" y="8" width="1" height="1" fill="rgb(75, 188, 68)"></rect><rect x="10" y="8" width="1" height="1" fill="rgb(133, 184, 156)"></rect><rect x="11" y="8" width="1" height="1" fill="rgb(182, 184, 233)"></rect><rect x="12" y="8" width="1" height="1" fill="rgb(180, 185, 230)"></rect><rect x="13" y="8" width="1" height="1" fill="rgb(85, 188, 83)"></rect><rect x="14" y="8" width="1" height="1" fill="rgb(83, 195, 134)"></rect><rect x="15" y="8" width="1" height="1" fill="rgb(22, 86, 185)"></rect><rect x="0" y="9" width="1" height="1" fill="rgb(28, 109, 183)"></rect><rect x="1" y="9" width="1" height="1" fill="rgb(69, 160, 91)"></rect><rect x="2" y="9" width="1" height="1" fill="rgb(75, 178, 73)"></rect><rect x="3" y="9" width="1" height="1" fill="rgb(117, 181, 136)"></rect><rect x="4" y="9" width="1" height="1" fill="rgb(118, 183, 140)"></rect><rect x="5" y="9" width="1" height="1" fill="rgb(74, 182, 67)"></rect><rect x="6" y="9" width="1" height="1" fill="rgb(74, 185, 68)"></rect><rect x="7" y="9" width="1" height="1" fill="rgb(68, 176, 62)"></rect><rect x="8" y="9" width="1" height="1" fill="rgb(70, 177, 64)"></rect><rect x="9" y="9" width="1" height="1" fill="rgb(73, 185, 68)"></rect><rect x="10" y="9" width="1" height="1" fill="rgb(85, 178, 89)"></rect><rect x="11" y="9" width="1" height="1" fill="rgb(119, 184, 138)"></rect><rect x="12" y="9" width="1" height="1" fill="rgb(113, 183, 133)"></rect><rect x="13" y="9" width="1" height="1" fill="rgb(72, 178, 72)"></rect><rect x="14" y="9" width="1" height="1" fill="rgb(72, 165, 118)"></rect><rect x="15" y="9" width="1" height="1" fill="rgb(20, 87, 181)"></rect><rect x="0" y="10" width="1" height="1" fill="rgb(13, 57, 145)"></rect><rect x="1" y="10" width="1" height="1" fill="rgb(41, 126, 99)"></rect><rect x="2" y="10" width="1" height="1" fill="rgb(55, 157, 63)"></rect><rect x="3" y="10" width="1" height="1" fill="rgb(60, 165, 63)"></rect><rect x="4" y="10" width="1" height="1" fill="rgb(65, 171, 65)"></rect><rect x="5" y="10" width="1" height="1" fill="rgb(67, 174, 65)"></rect><rect x="6" y="10" width="1" height="1" fill="rgb(67, 177, 68)"></rect><rect x="7" y="10" width="1" height="1" fill="rgb(68, 179, 67)"></rect><rect x="8" y="10" width="1" height="1" fill="rgb(67, 177, 66)"></rect><rect x="9" y="10" width="1" height="1" fill="rgb(67, 177, 66)"></rect><rect x="10" y="10" width="1" height="1" fill="rgb(65, 174, 65)"></rect><rect x="11" y="10" width="1" height="1" fill="rgb(63, 173, 63)"></rect><rect x="12" y="10" width="1" height="1" fill="rgb(58, 166, 65)"></rect><rect x="13" y="10" width="1" height="1" fill="rgb(51, 157, 62)"></rect><rect x="14" y="10" width="1" height="1" fill="rgb(62, 138, 115)"></rect><rect x="15" y="10" width="1" height="1" fill="rgb(32, 48, 144)"></rect><rect x="0" y="11" width="1" height="1" fill="rgb(34, 54, 127)"></rect><rect x="1" y="11" width="1" height="1" fill="rgb(17, 77, 152)"></rect><rect x="2" y="11" width="1" height="1" fill="rgb(42, 131, 64)"></rect><rect x="3" y="11" width="1" height="1" fill="rgb(46, 141, 60)"></rect><rect x="4" y="11" width="1" height="1" fill="rgb(49, 149, 62)"></rect><rect x="5" y="11" width="1" height="1" fill="rgb(53, 154, 63)"></rect><rect x="6" y="11" width="1" height="1" fill="rgb(55, 157, 64)"></rect><rect x="7" y="11" width="1" height="1" fill="rgb(56, 159, 63)"></rect><rect x="8" y="11" width="1" height="1" fill="rgb(56, 160, 64)"></rect><rect x="9" y="11" width="1" height="1" fill="rgb(55, 157, 63)"></rect><rect x="10" y="11" width="1" height="1" fill="rgb(52, 154, 63)"></rect><rect x="11" y="11" width="1" height="1" fill="rgb(48, 150, 63)"></rect><rect x="12" y="11" width="1" height="1" fill="rgb(42, 138, 59)"></rect><rect x="13" y="11" width="1" height="1" fill="rgb(33, 130, 100)"></rect><rect x="14" y="11" width="1" height="1" fill="rgb(19, 81, 177)"></rect><rect x="15" y="11" width="1" height="1" fill="rgb(27, 47, 129)"></rect><rect x="0" y="12" width="1" height="1" fill="rgb(30, 51, 111)"></rect><rect x="1" y="12" width="1" height="1" fill="rgb(13, 66, 135)"></rect><rect x="2" y="12" width="1" height="1" fill="rgb(18, 137, 161)"></rect><rect x="3" y="12" width="1" height="1" fill="rgb(32, 114, 59)"></rect><rect x="4" y="12" width="1" height="1" fill="rgb(32, 122, 57)"></rect><rect x="5" y="12" width="1" height="1" fill="rgb(38, 130, 60)"></rect><rect x="6" y="12" width="1" height="1" fill="rgb(40, 132, 59)"></rect><rect x="7" y="12" width="1" height="1" fill="rgb(40, 134, 59)"></rect><rect x="8" y="12" width="1" height="1" fill="rgb(41, 135, 60)"></rect><rect x="9" y="12" width="1" height="1" fill="rgb(39, 132, 61)"></rect><rect x="10" y="12" width="1" height="1" fill="rgb(33, 124, 58)"></rect><rect x="11" y="12" width="1" height="1" fill="rgb(29, 119, 55)"></rect><rect x="12" y="12" width="1" height="1" fill="rgb(28, 114, 56)"></rect><rect x="13" y="12" width="1" height="1" fill="rgb(29, 69, 153)"></rect><rect x="14" y="12" width="1" height="1" fill="rgb(18, 69, 157)"></rect><rect x="15" y="12" width="1" height="1" fill="rgb(28, 37, 103)"></rect><rect x="0" y="13" width="1" height="1" fill="rgb(17, 38, 91)"></rect><rect x="1" y="13" width="1" height="1" fill="rgb(13, 46, 101)"></rect><rect x="2" y="13" width="1" height="1" fill="rgb(14, 83, 141)"></rect><rect x="3" y="13" width="1" height="1" fill="rgb(24, 107, 59)"></rect><rect x="4" y="13" width="1" height="1" fill="rgb(30, 103, 62)"></rect><rect x="5" y="13" width="1" height="1" fill="rgb(20, 99, 49)"></rect><rect x="6" y="13" width="1" height="1" fill="rgb(25, 110, 64)"></rect><rect x="7" y="13" width="1" height="1" fill="rgb(41, 119, 74)"></rect><rect x="8" y="13" width="1" height="1" fill="rgb(41, 120, 76)"></rect><rect x="9" y="13" width="1" height="1" fill="rgb(25, 111, 67)"></rect><rect x="10" y="13" width="1" height="1" fill="rgb(23, 103, 55)"></rect><rect x="11" y="13" width="1" height="1" fill="rgb(6, 31, 12)"></rect><rect x="12" y="13" width="1" height="1" fill="rgb(24, 105, 58)"></rect><rect x="13" y="13" width="1" height="1" fill="rgb(35, 44, 122)"></rect><rect x="14" y="13" width="1" height="1" fill="rgb(30, 36, 112)"></rect><rect x="15" y="13" width="1" height="1" fill="rgb(21, 27, 71)"></rect><rect x="0" y="14" width="1" height="1" fill="rgb(12, 31, 72)"></rect><rect x="1" y="14" width="1" height="1" fill="rgb(15, 36, 92)"></rect><rect x="2" y="14" width="1" height="1" fill="rgb(17, 46, 93)"></rect><rect x="3" y="14" width="1" height="1" fill="rgb(27, 98, 66)"></rect><rect x="4" y="14" width="1" height="1" fill="rgb(20, 99, 52)"></rect><rect x="5" y="14" width="1" height="1" fill="rgb(8, 70, 62)"></rect><rect x="6" y="14" width="1" height="1" fill="rgb(24, 179, 214)"></rect><rect x="7" y="14" width="1" height="1" fill="rgb(126, 221, 229)"></rect><rect x="8" y="14" width="1" height="1" fill="rgb(159, 217, 224)"></rect><rect x="9" y="14" width="1" height="1" fill="rgb(24, 185, 219)"></rect><rect x="10" y="14" width="1" height="1" fill="rgb(9, 69, 61)"></rect><rect x="11" y="14" width="1" height="1" fill="rgb(21, 103, 56)"></rect><rect x="12" y="14" width="1" height="1" fill="rgb(19, 95, 60)"></rect><rect x="13" y="14" width="1" height="1" fill="rgb(31, 38, 108)"></rect><rect x="14" y="14" width="1" height="1" fill="rgb(17, 39, 88)"></rect><rect x="15" y="14" width="1" height="1" fill="rgb(16, 22, 50)"></rect><rect x="0" y="15" width="1" height="1" fill="rgb(11, 24, 55)"></rect><rect x="1" y="15" width="1" height="1" fill="rgb(20, 40, 91)"></rect><rect x="2" y="15" width="1" height="1" fill="rgb(16, 39, 94)"></rect><rect x="3" y="15" width="1" height="1" fill="rgb(16, 48, 95)"></rect><rect x="4" y="15" width="1" height="1" fill="rgb(18, 91, 148)"></rect><rect x="5" y="15" width="1" height="1" fill="rgb(11, 118, 189)"></rect><rect x="6" y="15" width="1" height="1" fill="rgb(10, 182, 240)"></rect><rect x="7" y="15" width="1" height="1" fill="rgb(68, 217, 249)"></rect><rect x="8" y="15" width="1" height="1" fill="rgb(78, 221, 252)"></rect><rect x="9" y="15" width="1" height="1" fill="rgb(14, 191, 244)"></rect><rect x="10" y="15" width="1" height="1" fill="rgb(19, 101, 176)"></rect><rect x="11" y="15" width="1" height="1" fill="rgb(37, 47, 113)"></rect><rect x="12" y="15" width="1" height="1" fill="rgb(24, 51, 113)"></rect><rect x="13" y="15" width="1" height="1" fill="rgb(29, 31, 87)"></rect><rect x="14" y="15" width="1" height="1" fill="rgb(18, 22, 55)"></rect><rect x="15" y="15" width="1" height="1" fill="rgb(8, 14, 35)"></rect></svg>