<svg width="150" height="150" xmlns="http://www.w3.org/2000/svg"><rect x="0" y="0" width="10" height="10" fill="rgb(12, 19, 48)"></rect><rect x="10" y="0" width="10" height="10" fill="rgb(14, 33, 81)"></rect><rect x="20" y="0" width="10" height="10" fill="rgb(16, 52, 128)"></rect><rect x="30" y="0" width="10" height="10" fill="rgb(71, 135, 108)"></rect><rect x="40" y="0" width="10" height="10" fill="rgb(57, 79, 174)"></rect><rect x="50" y="0" width="10" height="10" fill="rgb(141, 155, 216)"></rect><rect x="60" y="0" width="10" height="10" fill="rgb(223, 235, 249)"></rect><rect x="70" y="0" width="10" height="10" fill="rgb(250, 248, 252)"></rect><rect x="80" y="0" width="10" height="10" fill="rgb(250, 240, 248)"></rect><rect x="90" y="0" width="10" height="10" fill="rgb(249, 198, 228)"></rect><rect x="100" y="0" width="10" height="10" fill="rgb(242, 128, 195)"></rect><rect x="110" y="0" width="10" height="10" fill="rgb(191, 96, 132)"></rect><rect x="120" y="0" width="10" height="10" fill="rgb(153, 49, 129)"></rect><rect x="130" y="0" width="10" height="10" fill="rgb(73, 31, 117)"></rect><rect x="140" y="0" width="10" height="10" fill="rgb(35, 33, 88)"></rect><rect x="0" y="10" width="10" height="10" fill="rgb(16, 27, 70)"></rect><rect x="10" y="10" width="10" height="10" fill="rgb(13, 52, 129)"></rect><rect x="20" y="10" width="10" height="10" fill="rgb(11, 80, 174)"></rect><rect x="30" y="10" width="10" height="10" fill="rgb(80, 133, 160)"></rect><rect x="40" y="10" width="10" height="10" fill="rgb(197, 209, 230)"></rect><rect x="50" y="10" width="10" height="10" fill="rgb(251, 249, 252)"></rect><rect x="60" y="10" width="10" height="10" fill="rgb(254, 253, 254)"></rect><rect x="70" y="10" width="10" height="10" fill="rgb(254, 254, 254)"></rect><rect x="80" y="10" width="10" height="10" fill="rgb(254, 253, 254)"></rect><rect x="90" y="10" width="10" height="10" fill="rgb(254, 248, 252)"></rect><rect x="100" y="10" width="10" height="10" fill="rgb(250, 218, 237)"></rect><rect x="110" y="10" width="10" height="10" fill="rgb(178, 155, 150)"></rect><rect x="120" y="10" width="10" height="10" fill="rgb(199, 62, 146)"></rect><rect x="130" y="10" width="10" height="10" fill="rgb(110, 33, 136)"></rect><rect x="140" y="10" width="10" height="10" fill="rgb(50, 34, 113)"></rect><rect x="0" y="20" width="10" height="10" fill="rgb(15, 47, 109)"></rect><rect x="10" y="20" width="10" height="10" fill="rgb(11, 72, 165)"></rect><rect x="20" y="20" width="10" height="10" fill="rgb(47, 161, 226)"></rect><rect x="30" y="20" width="10" height="10" fill="rgb(212, 227, 245)"></rect><rect x="40" y="20" width="10" height="10" fill="rgb(214, 231, 197)"></rect><rect x="50" y="20" width="10" height="10" fill="rgb(251, 252, 251)"></rect><rect x="60" y="20" width="10" height="10" fill="rgb(252, 252, 252)"></rect><rect x="70" y="20" width="10" height="10" fill="rgb(251, 252, 251)"></rect><rect x="80" y="20" width="10" height="10" fill="rgb(251, 253, 251)"></rect><rect x="90" y="20" width="10" height="10" fill="rgb(253, 252, 253)"></rect><rect x="100" y="20" width="10" height="10" fill="rgb(238, 242, 230)"></rect><rect x="110" y="20" width="10" height="10" fill="rgb(232, 191, 204)"></rect><rect x="120" y="20" width="10" height="10" fill="rgb(232, 106, 184)"></rect><rect x="130" y="20" width="10" height="10" fill="rgb(122, 34, 143)"></rect><rect x="140" y="20" width="10" height="10" fill="rgb(60, 34, 130)"></rect><rect x="0" y="30" width="10" height="10" fill="rgb(15, 60, 141)"></rect><rect x="10" y="30" width="10" height="10" fill="rgb(16, 110, 200)"></rect><rect x="20" y="30" width="10" height="10" fill="rgb(176, 228, 248)"></rect><rect x="30" y="30" width="10" height="10" fill="rgb(243, 248, 238)"></rect><rect x="40" y="30" width="10" height="10" fill="rgb(187, 229, 162)"></rect><rect x="50" y="30" width="10" height="10" fill="rgb(180, 226, 168)"></rect><rect x="60" y="30" width="10" height="10" fill="rgb(184, 229, 182)"></rect><rect x="70" y="30" width="10" height="10" fill="rgb(183, 229, 183)"></rect><rect x="80" y="30" width="10" height="10" fill="rgb(183, 228, 180)"></rect><rect x="90" y="30" width="10" height="10" fill="rgb(193, 231, 177)"></rect><rect x="100" y="30" width="10" height="10" fill="rgb(177, 225, 146)"></rect><rect x="110" y="30" width="10" height="10" fill="rgb(239, 235, 227)"></rect><rect x="120" y="30" width="10" height="10" fill="rgb(225, 161, 213)"></rect><rect x="130" y="30" width="10" height="10" fill="rgb(111, 43, 150)"></rect><rect x="140" y="30" width="10" height="10" fill="rgb(62, 35, 139)"></rect><rect x="0" y="40" width="10" height="10" fill="rgb(10, 99, 186)"></rect><rect x="10" y="40" width="10" height="10" fill="rgb(44, 170, 232)"></rect><rect x="20" y="40" width="10" height="10" fill="rgb(188, 228, 175)"></rect><rect x="30" y="40" width="10" height="10" fill="rgb(115, 204, 87)"></rect><rect x="40" y="40" width="10" height="10" fill="rgb(81, 190, 70)"></rect><rect x="50" y="40" width="10" height="10" fill="rgb(80, 189, 74)"></rect><rect x="60" y="40" width="10" height="10" fill="rgb(83, 191, 78)"></rect><rect x="70" y="40" width="10" height="10" fill="rgb(85, 191, 79)"></rect><rect x="80" y="40" width="10" height="10" fill="rgb(84, 191, 78)"></rect><rect x="90" y="40" width="10" height="10" fill="rgb(82, 189, 74)"></rect><rect x="100" y="40" width="10" height="10" fill="rgb(91, 195, 72)"></rect><rect x="110" y="40" width="10" height="10" fill="rgb(142, 214, 108)"></rect><rect x="120" y="40" width="10" height="10" fill="rgb(208, 205, 209)"></rect><rect x="130" y="40" width="10" height="10" fill="rgb(93, 76, 173)"></rect><rect x="140" y="40" width="10" height="10" fill="rgb(53, 37, 143)"></rect><rect x="0" y="50" width="10" height="10" fill="rgb(11, 146, 224)"></rect><rect x="10" y="50" width="10" height="10" fill="rgb(67, 193, 188)"></rect><rect x="20" y="50" width="10" height="10" fill="rgb(100, 199, 71)"></rect><rect x="30" y="50" width="10" height="10" fill="rgb(75, 188, 67)"></rect><rect x="40" y="50" width="10" height="10" fill="rgb(76, 188, 68)"></rect><rect x="50" y="50" width="10" height="10" fill="rgb(77, 187, 69)"></rect><rect x="60" y="50" width="10" height="10" fill="rgb(75, 189, 68)"></rect><rect x="70" y="50" width="10" height="10" fill="rgb(75, 188, 68)"></rect><rect x="80" y="50" width="10" height="10" fill="rgb(75, 188, 68)"></rect><rect x="90" y="50" width="10" height="10" fill="rgb(75, 188, 68)"></rect><rect x="100" y="50" width="10" height="10" fill="rgb(76, 188, 68)"></rect><rect x="110" y="50" width="10" height="10" fill="rgb(78, 188, 68)"></rect><rect x="120" y="50" width="10" height="10" fill="rgb(138, 212, 111)"></rect><rect x="130" y="50" width="10" height="10" fill="rgb(83, 183, 218)"></rect><rect x="140" y="50" width="10" height="10" fill="rgb(28, 72, 173)"></rect><rect x="0" y="60" width="10" height="10" fill="rgb(10, 164, 236)"></rect><rect x="10" y="60" width="10" height="10" fill="rgb(99, 200, 104)"></rect><rect x="20" y="60" width="10" height="10" fill="rgb(99, 194, 94)"></rect><rect x="30" y="60" width="10" height="10" fill="rgb(181, 210, 196)"></rect><rect x="40" y="60" width="10" height="10" fill="rgb(145, 201, 151)"></rect><rect x="50" y="60" width="10" height="10" fill="rgb(76, 187, 69)"></rect><rect x="60" y="60" width="10" height="10" fill="rgb(75, 189, 68)"></rect><rect x="70" y="60" width="10" height="10" fill="rgb(75, 189, 68)"></rect><rect x="80" y="60" width="10" height="10" fill="rgb(75, 189, 68)"></rect><rect x="90" y="60" width="10" height="10" fill="rgb(75, 188, 68)"></rect><rect x="100" y="60" width="10" height="10" fill="rgb(153, 205, 158)"></rect><rect x="110" y="60" width="10" height="10" fill="rgb(166, 208, 175)"></rect><rect x="120" y="60" width="10" height="10" fill="rgb(91, 192, 78)"></rect><rect x="130" y="60" width="10" height="10" fill="rgb(90, 200, 144)"></rect><rect x="140" y="60" width="10" height="10" fill="rgb(21, 175, 238)"></rect><rect x="0" y="70" width="10" height="10" fill="rgb(22, 165, 223)"></rect><rect x="10" y="70" width="10" height="10" fill="rgb(99, 200, 72)"></rect><rect x="20" y="70" width="10" height="10" fill="rgb(143, 194, 159)"></rect><rect x="30" y="70" width="10" height="10" fill="rgb(175, 177, 222)"></rect><rect x="40" y="70" width="10" height="10" fill="rgb(186, 188, 232)"></rect><rect x="50" y="70" width="10" height="10" fill="rgb(80, 186, 75)"></rect><rect x="60" y="70" width="10" height="10" fill="rgb(75, 189, 68)"></rect><rect x="70" y="70" width="10" height="10" fill="rgb(75, 189, 68)"></rect><rect x="80" y="70" width="10" height="10" fill="rgb(75, 189, 68)"></rect><rect x="90" y="70" width="10" height="10" fill="rgb(95, 187, 96)"></rect><rect x="100" y="70" width="10" height="10" fill="rgb(186, 188, 233)"></rect><rect x="110" y="70" width="10" height="10" fill="rgb(175, 177, 222)"></rect><rect x="120" y="70" width="10" height="10" fill="rgb(122, 191, 131)"></rect><rect x="130" y="70" width="10" height="10" fill="rgb(104, 202, 99)"></rect><rect x="140" y="70" width="10" height="10" fill="rgb(19, 120, 206)"></rect><rect x="0" y="80" width="10" height="10" fill="rgb(21, 123, 198)"></rect><rect x="10" y="80" width="10" height="10" fill="rgb(87, 189, 70)"></rect><rect x="20" y="80" width="10" height="10" fill="rgb(97, 182, 102)"></rect><rect x="30" y="80" width="10" height="10" fill="rgb(169, 184, 212)"></rect><rect x="40" y="80" width="10" height="10" fill="rgb(142, 183, 169)"></rect><rect x="50" y="80" width="10" height="10" fill="rgb(75, 187, 68)"></rect><rect x="60" y="80" width="10" height="10" fill="rgb(74, 187, 68)"></rect><rect x="70" y="80" width="10" height="10" fill="rgb(75, 185, 68)"></rect><rect x="80" y="80" width="10" height="10" fill="rgb(74, 187, 68)"></rect><rect x="90" y="80" width="10" height="10" fill="rgb(78, 186, 74)"></rect><rect x="100" y="80" width="10" height="10" fill="rgb(161, 184, 199)"></rect><rect x="110" y="80" width="10" height="10" fill="rgb(172, 185, 215)"></rect><rect x="120" y="80" width="10" height="10" fill="rgb(88, 183, 91)"></rect><rect x="130" y="80" width="10" height="10" fill="rgb(89, 187, 95)"></rect><rect x="140" y="80" width="10" height="10" fill="rgb(12, 121, 210)"></rect><rect x="0" y="90" width="10" height="10" fill="rgb(16, 62, 159)"></rect><rect x="10" y="90" width="10" height="10" fill="rgb(61, 153, 84)"></rect><rect x="20" y="90" width="10" height="10" fill="rgb(61, 168, 64)"></rect><rect x="30" y="90" width="10" height="10" fill="rgb(65, 174, 65)"></rect><rect x="40" y="90" width="10" height="10" fill="rgb(68, 177, 65)"></rect><rect x="50" y="90" width="10" height="10" fill="rgb(69, 180, 66)"></rect><rect x="60" y="90" width="10" height="10" fill="rgb(69, 181, 67)"></rect><rect x="70" y="90" width="10" height="10" fill="rgb(71, 181, 67)"></rect><rect x="80" y="90" width="10" height="10" fill="rgb(70, 181, 67)"></rect><rect x="90" y="90" width="10" height="10" fill="rgb(69, 180, 67)"></rect><rect x="100" y="90" width="10" height="10" fill="rgb(68, 178, 66)"></rect><rect x="110" y="90" width="10" height="10" fill="rgb(64, 173, 65)"></rect><rect x="120" y="90" width="10" height="10" fill="rgb(59, 167, 63)"></rect><rect x="130" y="90" width="10" height="10" fill="rgb(56, 149, 119)"></rect><rect x="140" y="90" width="10" height="10" fill="rgb(32, 46, 146)"></rect><rect x="0" y="100" width="10" height="10" fill="rgb(20, 47, 126)"></rect><rect x="10" y="100" width="10" height="10" fill="rgb(28, 99, 132)"></rect><rect x="20" y="100" width="10" height="10" fill="rgb(45, 141, 61)"></rect><rect x="30" y="100" width="10" height="10" fill="rgb(50, 151, 61)"></rect><rect x="40" y="100" width="10" height="10" fill="rgb(55, 158, 62)"></rect><rect x="50" y="100" width="10" height="10" fill="rgb(57, 162, 63)"></rect><rect x="60" y="100" width="10" height="10" fill="rgb(59, 165, 64)"></rect><rect x="70" y="100" width="10" height="10" fill="rgb(59, 165, 64)"></rect><rect x="80" y="100" width="10" height="10" fill="rgb(59, 165, 64)"></rect><rect x="90" y="100" width="10" height="10" fill="rgb(56, 162, 63)"></rect><rect x="100" y="100" width="10" height="10" fill="rgb(54, 157, 63)"></rect><rect x="110" y="100" width="10" height="10" fill="rgb(48, 149, 61)"></rect><rect x="120" y="100" width="10" height="10" fill="rgb(43, 139, 65)"></rect><rect x="130" y="100" width="10" height="10" fill="rgb(21, 104, 169)"></rect><rect x="140" y="100" width="10" height="10" fill="rgb(27, 48, 135)"></rect><rect x="0" y="110" width="10" height="10" fill="rgb(20, 40, 104)"></rect><rect x="10" y="110" width="10" height="10" fill="rgb(13, 77, 151)"></rect><rect x="20" y="110" width="10" height="10" fill="rgb(25, 133, 129)"></rect><rect x="30" y="110" width="10" height="10" fill="rgb(33, 122, 57)"></rect><rect x="40" y="110" width="10" height="10" fill="rgb(38, 130, 59)"></rect><rect x="50" y="110" width="10" height="10" fill="rgb(41, 136, 59)"></rect><rect x="60" y="110" width="10" height="10" fill="rgb(43, 140, 60)"></rect><rect x="70" y="110" width="10" height="10" fill="rgb(43, 140, 61)"></rect><rect x="80" y="110" width="10" height="10" fill="rgb(43, 139, 60)"></rect><rect x="90" y="110" width="10" height="10" fill="rgb(40, 135, 60)"></rect><rect x="100" y="110" width="10" height="10" fill="rgb(34, 127, 57)"></rect><rect x="110" y="110" width="10" height="10" fill="rgb(29, 118, 56)"></rect><rect x="120" y="110" width="10" height="10" fill="rgb(36, 105, 127)"></rect><rect x="130" y="110" width="10" height="10" fill="rgb(18, 72, 162)"></rect><rect x="140" y="110" width="10" height="10" fill="rgb(26, 39, 110)"></rect><rect x="0" y="120" width="10" height="10" fill="rgb(16, 39, 93)"></rect><rect x="10" y="120" width="10" height="10" fill="rgb(13, 52, 109)"></rect><rect x="20" y="120" width="10" height="10" fill="rgb(20, 103, 121)"></rect><rect x="30" y="120" width="10" height="10" fill="rgb(23, 99, 52)"></rect><rect x="40" y="120" width="10" height="10" fill="rgb(22, 92, 49)"></rect><rect x="50" y="120" width="10" height="10" fill="rgb(25, 110, 56)"></rect><rect x="60" y="120" width="10" height="10" fill="rgb(30, 114, 60)"></rect><rect x="70" y="120" width="10" height="10" fill="rgb(40, 122, 71)"></rect><rect x="80" y="120" width="10" height="10" fill="rgb(33, 116, 64)"></rect><rect x="90" y="120" width="10" height="10" fill="rgb(26, 108, 58)"></rect><rect x="100" y="120" width="10" height="10" fill="rgb(22, 86, 46)"></rect><rect x="110" y="120" width="10" height="10" fill="rgb(23, 98, 53)"></rect><rect x="120" y="120" width="10" height="10" fill="rgb(34, 73, 98)"></rect><rect x="130" y="120" width="10" height="10" fill="rgb(29, 39, 120)"></rect><rect x="140" y="120" width="10" height="10" fill="rgb(25, 28, 79)"></rect><rect x="0" y="130" width="10" height="10" fill="rgb(12, 32, 76)"></rect><rect x="10" y="130" width="10" height="10" fill="rgb(16, 38, 93)"></rect><rect x="20" y="130" width="10" height="10" fill="rgb(20, 63, 89)"></rect><rect x="30" y="130" width="10" height="10" fill="rgb(24, 104, 54)"></rect><rect x="40" y="130" width="10" height="10" fill="rgb(19, 89, 48)"></rect><rect x="50" y="130" width="10" height="10" fill="rgb(19, 106, 113)"></rect><rect x="60" y="130" width="10" height="10" fill="rgb(77, 201, 210)"></rect><rect x="70" y="130" width="10" height="10" fill="rgb(177, 226, 226)"></rect><rect x="80" y="130" width="10" height="10" fill="rgb(99, 210, 219)"></rect><rect x="90" y="130" width="10" height="10" fill="rgb(19, 109, 122)"></rect><rect x="100" y="130" width="10" height="10" fill="rgb(20, 91, 50)"></rect><rect x="110" y="130" width="10" height="10" fill="rgb(20, 101, 54)"></rect><rect x="120" y="130" width="10" height="10" fill="rgb(30, 65, 100)"></rect><rect x="130" y="130" width="10" height="10" fill="rgb(20, 37, 92)"></rect><rect x="140" y="130" width="10" height="10" fill="rgb(18, 22, 53)"></rect><rect x="0" y="140" width="10" height="10" fill="rgb(12, 27, 58)"></rect><rect x="10" y="140" width="10" height="10" fill="rgb(16, 36, 89)"></rect><rect x="20" y="140" width="10" height="10" fill="rgb(16, 37, 91)"></rect><rect x="30" y="140" width="10" height="10" fill="rgb(20, 63, 95)"></rect><rect x="40" y="140" width="10" height="10" fill="rgb(18, 99, 139)"></rect><rect x="50" y="140" width="10" height="10" fill="rgb(12, 144, 223)"></rect><rect x="60" y="140" width="10" height="10" fill="rgb(33, 202, 246)"></rect><rect x="70" y="140" width="10" height="10" fill="rgb(83, 221, 249)"></rect><rect x="80" y="140" width="10" height="10" fill="rgb(38, 209, 247)"></rect><rect x="90" y="140" width="10" height="10" fill="rgb(14, 142, 217)"></rect><rect x="100" y="140" width="10" height="10" fill="rgb(37, 71, 118)"></rect><rect x="110" y="140" width="10" height="10" fill="rgb(24, 69, 110)"></rect><rect x="120" y="140" width="10" height="10" fill="rgb(23, 36, 97)"></rect><rect x="130" y="140" width="10" height="10" fill="rgb(18, 21, 57)"></rect><rect x="140" y="140" width="10" height="10" fill="rgb(12, 19, 39)"></rect></svg>