<svg width="180" height="180" xmlns="http://www.w3.org/2000/svg"><rect x="0" y="0" width="15" height="15" fill="rgb(13, 21, 54)"></rect><rect x="15" y="0" width="15" height="15" fill="rgb(14, 43, 107)"></rect><rect x="30" y="0" width="15" height="15" fill="rgb(52, 115, 117)"></rect><rect x="45" y="0" width="15" height="15" fill="rgb(69, 96, 175)"></rect><rect x="60" y="0" width="15" height="15" fill="rgb(171, 182, 226)"></rect><rect x="75" y="0" width="15" height="15" fill="rgb(240, 247, 252)"></rect><rect x="90" y="0" width="15" height="15" fill="rgb(251, 245, 250)"></rect><rect x="105" y="0" width="15" height="15" fill="rgb(250, 214, 235)"></rect><rect x="120" y="0" width="15" height="15" fill="rgb(241, 129, 194)"></rect><rect x="135" y="0" width="15" height="15" fill="rgb(166, 101, 118)"></rect><rect x="150" y="0" width="15" height="15" fill="rgb(107, 32, 128)"></rect><rect x="165" y="0" width="15" height="15" fill="rgb(40, 33, 95)"></rect><rect x="0" y="15" width="15" height="15" fill="rgb(17, 35, 89)"></rect><rect x="15" y="15" width="15" height="15" fill="rgb(11, 74, 165)"></rect><rect x="30" y="15" width="15" height="15" fill="rgb(75, 137, 207)"></rect><rect x="45" y="15" width="15" height="15" fill="rgb(207, 220, 209)"></rect><rect x="60" y="15" width="15" height="15" fill="rgb(254, 253, 253)"></rect><rect x="75" y="15" width="15" height="15" fill="rgb(254, 254, 254)"></rect><rect x="90" y="15" width="15" height="15" fill="rgb(254, 254, 254)"></rect><rect x="105" y="15" width="15" height="15" fill="rgb(254, 252, 254)"></rect><rect x="120" y="15" width="15" height="15" fill="rgb(241, 224, 228)"></rect><rect x="135" y="15" width="15" height="15" fill="rgb(214, 126, 168)"></rect><rect x="150" y="15" width="15" height="15" fill="rgb(159, 40, 146)"></rect><rect x="165" y="15" width="15" height="15" fill="rgb(59, 34, 123)"></rect><rect x="0" y="30" width="15" height="15" fill="rgb(13, 62, 139)"></rect><rect x="15" y="30" width="15" height="15" fill="rgb(35, 132, 209)"></rect><rect x="30" y="30" width="15" height="15" fill="rgb(222, 243, 250)"></rect><rect x="45" y="30" width="15" height="15" fill="rgb(215, 236, 198)"></rect><rect x="60" y="30" width="15" height="15" fill="rgb(224, 241, 216)"></rect><rect x="75" y="30" width="15" height="15" fill="rgb(223, 242, 222)"></rect><rect x="90" y="30" width="15" height="15" fill="rgb(223, 242, 222)"></rect><rect x="105" y="30" width="15" height="15" fill="rgb(228, 243, 219)"></rect><rect x="120" y="30" width="15" height="15" fill="rgb(210, 232, 191)"></rect><rect x="135" y="30" width="15" height="15" fill="rgb(250, 209, 233)"></rect><rect x="150" y="30" width="15" height="15" fill="rgb(161, 66, 163)"></rect><rect x="165" y="30" width="15" height="15" fill="rgb(67, 35, 138)"></rect><rect x="0" y="45" width="15" height="15" fill="rgb(11, 99, 186)"></rect><rect x="15" y="45" width="15" height="15" fill="rgb(106, 195, 227)"></rect><rect x="30" y="45" width="15" height="15" fill="rgb(162, 220, 133)"></rect><rect x="45" y="45" width="15" height="15" fill="rgb(97, 196, 81)"></rect><rect x="60" y="45" width="15" height="15" fill="rgb(85, 191, 79)"></rect><rect x="75" y="45" width="15" height="15" fill="rgb(90, 193, 86)"></rect><rect x="90" y="45" width="15" height="15" fill="rgb(91, 193, 86)"></rect><rect x="105" y="45" width="15" height="15" fill="rgb(90, 193, 82)"></rect><rect x="120" y="45" width="15" height="15" fill="rgb(105, 201, 78)"></rect><rect x="135" y="45" width="15" height="15" fill="rgb(189, 223, 165)"></rect><rect x="150" y="45" width="15" height="15" fill="rgb(142, 117, 192)"></rect><rect x="165" y="45" width="15" height="15" fill="rgb(58, 37, 144)"></rect><rect x="0" y="60" width="15" height="15" fill="rgb(11, 152, 228)"></rect><rect x="15" y="60" width="15" height="15" fill="rgb(98, 202, 122)"></rect><rect x="30" y="60" width="15" height="15" fill="rgb(79, 189, 69)"></rect><rect x="45" y="60" width="15" height="15" fill="rgb(77, 188, 69)"></rect><rect x="60" y="60" width="15" height="15" fill="rgb(76, 187, 69)"></rect><rect x="75" y="60" width="15" height="15" fill="rgb(74, 189, 68)"></rect><rect x="90" y="60" width="15" height="15" fill="rgb(75, 188, 68)"></rect><rect x="105" y="60" width="15" height="15" fill="rgb(75, 188, 68)"></rect><rect x="120" y="60" width="15" height="15" fill="rgb(76, 188, 68)"></rect><rect x="135" y="60" width="15" height="15" fill="rgb(88, 193, 73)"></rect><rect x="150" y="60" width="15" height="15" fill="rgb(124, 209, 174)"></rect><rect x="165" y="60" width="15" height="15" fill="rgb(25, 98, 190)"></rect><rect x="0" y="75" width="15" height="15" fill="rgb(30, 176, 214)"></rect><rect x="15" y="75" width="15" height="15" fill="rgb(93, 196, 72)"></rect><rect x="30" y="75" width="15" height="15" fill="rgb(185, 205, 208)"></rect><rect x="45" y="75" width="15" height="15" fill="rgb(181, 201, 207)"></rect><rect x="60" y="75" width="15" height="15" fill="rgb(77, 187, 70)"></rect><rect x="75" y="75" width="15" height="15" fill="rgb(75, 189, 68)"></rect><rect x="90" y="75" width="15" height="15" fill="rgb(75, 189, 68)"></rect><rect x="105" y="75" width="15" height="15" fill="rgb(81, 189, 76)"></rect><rect x="120" y="75" width="15" height="15" fill="rgb(186, 203, 211)"></rect><rect x="135" y="75" width="15" height="15" fill="rgb(164, 201, 181)"></rect><rect x="150" y="75" width="15" height="15" fill="rgb(101, 200, 81)"></rect><rect x="165" y="75" width="15" height="15" fill="rgb(26, 173, 231)"></rect><rect x="0" y="90" width="15" height="15" fill="rgb(42, 154, 181)"></rect><rect x="15" y="90" width="15" height="15" fill="rgb(81, 187, 70)"></rect><rect x="30" y="90" width="15" height="15" fill="rgb(170, 182, 212)"></rect><rect x="45" y="90" width="15" height="15" fill="rgb(168, 181, 211)"></rect><rect x="60" y="90" width="15" height="15" fill="rgb(77, 187, 70)"></rect><rect x="75" y="90" width="15" height="15" fill="rgb(74, 187, 67)"></rect><rect x="90" y="90" width="15" height="15" fill="rgb(74, 187, 68)"></rect><rect x="105" y="90" width="15" height="15" fill="rgb(84, 187, 82)"></rect><rect x="120" y="90" width="15" height="15" fill="rgb(173, 179, 220)"></rect><rect x="135" y="90" width="15" height="15" fill="rgb(163, 184, 202)"></rect><rect x="150" y="90" width="15" height="15" fill="rgb(94, 196, 71)"></rect><rect x="165" y="90" width="15" height="15" fill="rgb(25, 121, 191)"></rect><rect x="0" y="105" width="15" height="15" fill="rgb(24, 81, 156)"></rect><rect x="15" y="105" width="15" height="15" fill="rgb(66, 168, 66)"></rect><rect x="30" y="105" width="15" height="15" fill="rgb(72, 174, 73)"></rect><rect x="45" y="105" width="15" height="15" fill="rgb(75, 178, 74)"></rect><rect x="60" y="105" width="15" height="15" fill="rgb(70, 181, 67)"></rect><rect x="75" y="105" width="15" height="15" fill="rgb(71, 182, 67)"></rect><rect x="90" y="105" width="15" height="15" fill="rgb(71, 182, 67)"></rect><rect x="105" y="105" width="15" height="15" fill="rgb(70, 181, 67)"></rect><rect x="120" y="105" width="15" height="15" fill="rgb(81, 179, 83)"></rect><rect x="135" y="105" width="15" height="15" fill="rgb(71, 174, 75)"></rect><rect x="150" y="105" width="15" height="15" fill="rgb(68, 168, 79)"></rect><rect x="165" y="105" width="15" height="15" fill="rgb(26, 72, 166)"></rect><rect x="0" y="120" width="15" height="15" fill="rgb(19, 49, 128)"></rect><rect x="15" y="120" width="15" height="15" fill="rgb(33, 119, 108)"></rect><rect x="30" y="120" width="15" height="15" fill="rgb(46, 144, 60)"></rect><rect x="45" y="120" width="15" height="15" fill="rgb(53, 154, 61)"></rect><rect x="60" y="120" width="15" height="15" fill="rgb(56, 159, 63)"></rect><rect x="75" y="120" width="15" height="15" fill="rgb(57, 162, 63)"></rect><rect x="90" y="120" width="15" height="15" fill="rgb(57, 162, 63)"></rect><rect x="105" y="120" width="15" height="15" fill="rgb(54, 160, 63)"></rect><rect x="120" y="120" width="15" height="15" fill="rgb(51, 153, 62)"></rect><rect x="135" y="120" width="15" height="15" fill="rgb(43, 141, 60)"></rect><rect x="150" y="120" width="15" height="15" fill="rgb(28, 116, 137)"></rect><rect x="165" y="120" width="15" height="15" fill="rgb(24, 51, 138)"></rect><rect x="0" y="135" width="15" height="15" fill="rgb(18, 40, 100)"></rect><rect x="15" y="135" width="15" height="15" fill="rgb(11, 102, 167)"></rect><rect x="30" y="135" width="15" height="15" fill="rgb(28, 114, 68)"></rect><rect x="45" y="135" width="15" height="15" fill="rgb(31, 118, 56)"></rect><rect x="60" y="135" width="15" height="15" fill="rgb(34, 124, 57)"></rect><rect x="75" y="135" width="15" height="15" fill="rgb(37, 129, 59)"></rect><rect x="90" y="135" width="15" height="15" fill="rgb(37, 128, 59)"></rect><rect x="105" y="135" width="15" height="15" fill="rgb(33, 123, 58)"></rect><rect x="120" y="135" width="15" height="15" fill="rgb(28, 114, 55)"></rect><rect x="135" y="135" width="15" height="15" fill="rgb(28, 105, 64)"></rect><rect x="150" y="135" width="15" height="15" fill="rgb(30, 70, 158)"></rect><rect x="165" y="135" width="15" height="15" fill="rgb(26, 37, 104)"></rect><rect x="0" y="150" width="15" height="15" fill="rgb(14, 37, 86)"></rect><rect x="15" y="150" width="15" height="15" fill="rgb(13, 46, 102)"></rect><rect x="30" y="150" width="15" height="15" fill="rgb(26, 102, 62)"></rect><rect x="45" y="150" width="15" height="15" fill="rgb(20, 86, 46)"></rect><rect x="60" y="150" width="15" height="15" fill="rgb(22, 108, 90)"></rect><rect x="75" y="150" width="15" height="15" fill="rgb(96, 174, 152)"></rect><rect x="90" y="150" width="15" height="15" fill="rgb(103, 178, 159)"></rect><rect x="105" y="150" width="15" height="15" fill="rgb(23, 110, 97)"></rect><rect x="120" y="150" width="15" height="15" fill="rgb(19, 82, 46)"></rect><rect x="135" y="150" width="15" height="15" fill="rgb(26, 104, 61)"></rect><rect x="150" y="150" width="15" height="15" fill="rgb(27, 39, 114)"></rect><rect x="165" y="150" width="15" height="15" fill="rgb(21, 26, 67)"></rect><rect x="0" y="165" width="15" height="15" fill="rgb(12, 28, 64)"></rect><rect x="15" y="165" width="15" height="15" fill="rgb(16, 37, 92)"></rect><rect x="30" y="165" width="15" height="15" fill="rgb(19, 55, 87)"></rect><rect x="45" y="165" width="15" height="15" fill="rgb(18, 96, 115)"></rect><rect x="60" y="165" width="15" height="15" fill="rgb(12, 156, 220)"></rect><rect x="75" y="165" width="15" height="15" fill="rgb(68, 216, 248)"></rect><rect x="90" y="165" width="15" height="15" fill="rgb(81, 220, 248)"></rect><rect x="105" y="165" width="15" height="15" fill="rgb(15, 157, 219)"></rect><rect x="120" y="165" width="15" height="15" fill="rgb(32, 76, 102)"></rect><rect x="135" y="165" width="15" height="15" fill="rgb(22, 66, 107)"></rect><rect x="150" y="165" width="15" height="15" fill="rgb(22, 25, 72)"></rect><rect x="165" y="165" width="15" height="15" fill="rgb(13, 19, 42)"></rect></svg>