<svg width="32" height="32" xmlns="http://www.w3.org/2000/svg"><rect x="0" y="0" width="2" height="2" fill="rgb(16, 22, 50)"></rect><rect x="2" y="0" width="2" height="2" fill="rgb(13, 29, 74)"></rect><rect x="4" y="0" width="2" height="2" fill="rgb(16, 48, 122)"></rect><rect x="6" y="0" width="2" height="2" fill="rgb(64, 128, 110)"></rect><rect x="8" y="0" width="2" height="2" fill="rgb(46, 76, 155)"></rect><rect x="10" y="0" width="2" height="2" fill="rgb(102, 124, 200)"></rect><rect x="12" y="0" width="2" height="2" fill="rgb(191, 197, 233)"></rect><rect x="14" y="0" width="2" height="2" fill="rgb(241, 245, 252)"></rect><rect x="16" y="0" width="2" height="2" fill="rgb(248, 239, 247)"></rect><rect x="18" y="0" width="2" height="2" fill="rgb(253, 232, 245)"></rect><rect x="20" y="0" width="2" height="2" fill="rgb(245, 171, 214)"></rect><rect x="22" y="0" width="2" height="2" fill="rgb(236, 97, 178)"></rect><rect x="24" y="0" width="2" height="2" fill="rgb(180, 95, 122)"></rect><rect x="26" y="0" width="2" height="2" fill="rgb(142, 37, 131)"></rect><rect x="28" y="0" width="2" height="2" fill="rgb(70, 35, 118)"></rect><rect x="30" y="0" width="2" height="2" fill="rgb(38, 37, 90)"></rect><rect x="0" y="2" width="2" height="2" fill="rgb(14, 25, 65)"></rect><rect x="2" y="2" width="2" height="2" fill="rgb(15, 47, 118)"></rect><rect x="4" y="2" width="2" height="2" fill="rgb(10, 71, 165)"></rect><rect x="6" y="2" width="2" height="2" fill="rgb(50, 114, 162)"></rect><rect x="8" y="2" width="2" height="2" fill="rgb(150, 174, 200)"></rect><rect x="10" y="2" width="2" height="2" fill="rgb(243, 243, 249)"></rect><rect x="12" y="2" width="2" height="2" fill="rgb(254, 252, 253)"></rect><rect x="14" y="2" width="2" height="2" fill="rgb(254, 254, 254)"></rect><rect x="16" y="2" width="2" height="2" fill="rgb(254, 253, 253)"></rect><rect x="18" y="2" width="2" height="2" fill="rgb(254, 251, 254)"></rect><rect x="20" y="2" width="2" height="2" fill="rgb(252, 240, 248)"></rect><rect x="22" y="2" width="2" height="2" fill="rgb(246, 190, 221)"></rect><rect x="24" y="2" width="2" height="2" fill="rgb(144, 166, 118)"></rect><rect x="26" y="2" width="2" height="2" fill="rgb(186, 47, 143)"></rect><rect x="28" y="2" width="2" height="2" fill="rgb(98, 33, 133)"></rect><rect x="30" y="2" width="2" height="2" fill="rgb(46, 33, 109)"></rect><rect x="0" y="4" width="2" height="2" fill="rgb(14, 39, 96)"></rect><rect x="2" y="4" width="2" height="2" fill="rgb(16, 67, 157)"></rect><rect x="4" y="4" width="2" height="2" fill="rgb(22, 133, 215)"></rect><rect x="6" y="4" width="2" height="2" fill="rgb(164, 203, 237)"></rect><rect x="8" y="4" width="2" height="2" fill="rgb(200, 216, 185)"></rect><rect x="10" y="4" width="2" height="2" fill="rgb(253, 253, 253)"></rect><rect x="12" y="4" width="2" height="2" fill="rgb(254, 254, 254)"></rect><rect x="14" y="4" width="2" height="2" fill="rgb(254, 255, 254)"></rect><rect x="16" y="4" width="2" height="2" fill="rgb(254, 255, 254)"></rect><rect x="18" y="4" width="2" height="2" fill="rgb(254, 254, 254)"></rect><rect x="20" y="4" width="2" height="2" fill="rgb(254, 252, 254)"></rect><rect x="22" y="4" width="2" height="2" fill="rgb(230, 236, 218)"></rect><rect x="24" y="4" width="2" height="2" fill="rgb(245, 161, 208)"></rect><rect x="26" y="4" width="2" height="2" fill="rgb(223, 78, 170)"></rect><rect x="28" y="4" width="2" height="2" fill="rgb(111, 34, 141)"></rect><rect x="30" y="4" width="2" height="2" fill="rgb(60, 37, 129)"></rect><rect x="0" y="6" width="2" height="2" fill="rgb(13, 57, 133)"></rect><rect x="2" y="6" width="2" height="2" fill="rgb(10, 87, 182)"></rect><rect x="4" y="6" width="2" height="2" fill="rgb(111, 200, 239)"></rect><rect x="6" y="6" width="2" height="2" fill="rgb(248, 252, 253)"></rect><rect x="8" y="6" width="2" height="2" fill="rgb(217, 238, 202)"></rect><rect x="10" y="6" width="2" height="2" fill="rgb(210, 236, 193)"></rect><rect x="12" y="6" width="2" height="2" fill="rgb(213, 240, 209)"></rect><rect x="14" y="6" width="2" height="2" fill="rgb(210, 239, 212)"></rect><rect x="16" y="6" width="2" height="2" fill="rgb(212, 240, 212)"></rect><rect x="18" y="6" width="2" height="2" fill="rgb(214, 239, 207)"></rect><rect x="20" y="6" width="2" height="2" fill="rgb(217, 239, 199)"></rect><rect x="22" y="6" width="2" height="2" fill="rgb(210, 235, 183)"></rect><rect x="24" y="6" width="2" height="2" fill="rgb(252, 229, 242)"></rect><rect x="26" y="6" width="2" height="2" fill="rgb(212, 132, 198)"></rect><rect x="28" y="6" width="2" height="2" fill="rgb(105, 37, 146)"></rect><rect x="30" y="6" width="2" height="2" fill="rgb(61, 34, 136)"></rect><rect x="0" y="8" width="2" height="2" fill="rgb(11, 80, 167)"></rect><rect x="2" y="8" width="2" height="2" fill="rgb(22, 147, 223)"></rect><rect x="4" y="8" width="2" height="2" fill="rgb(195, 230, 224)"></rect><rect x="6" y="8" width="2" height="2" fill="rgb(174, 224, 143)"></rect><rect x="8" y="8" width="2" height="2" fill="rgb(112, 202, 89)"></rect><rect x="10" y="8" width="2" height="2" fill="rgb(84, 190, 76)"></rect><rect x="12" y="8" width="2" height="2" fill="rgb(91, 194, 88)"></rect><rect x="14" y="8" width="2" height="2" fill="rgb(96, 196, 92)"></rect><rect x="16" y="8" width="2" height="2" fill="rgb(96, 196, 92)"></rect><rect x="18" y="8" width="2" height="2" fill="rgb(93, 194, 88)"></rect><rect x="20" y="8" width="2" height="2" fill="rgb(101, 198, 84)"></rect><rect x="22" y="8" width="2" height="2" fill="rgb(117, 207, 82)"></rect><rect x="24" y="8" width="2" height="2" fill="rgb(189, 220, 161)"></rect><rect x="26" y="8" width="2" height="2" fill="rgb(207, 173, 217)"></rect><rect x="28" y="8" width="2" height="2" fill="rgb(89, 48, 154)"></rect><rect x="30" y="8" width="2" height="2" fill="rgb(55, 37, 143)"></rect><rect x="0" y="10" width="2" height="2" fill="rgb(9, 139, 218)"></rect><rect x="2" y="10" width="2" height="2" fill="rgb(33, 175, 218)"></rect><rect x="4" y="10" width="2" height="2" fill="rgb(136, 212, 96)"></rect><rect x="6" y="10" width="2" height="2" fill="rgb(81, 191, 68)"></rect><rect x="8" y="10" width="2" height="2" fill="rgb(75, 188, 68)"></rect><rect x="10" y="10" width="2" height="2" fill="rgb(78, 187, 70)"></rect><rect x="12" y="10" width="2" height="2" fill="rgb(75, 189, 68)"></rect><rect x="14" y="10" width="2" height="2" fill="rgb(75, 188, 69)"></rect><rect x="16" y="10" width="2" height="2" fill="rgb(76, 188, 68)"></rect><rect x="18" y="10" width="2" height="2" fill="rgb(76, 188, 69)"></rect><rect x="20" y="10" width="2" height="2" fill="rgb(76, 188, 69)"></rect><rect x="22" y="10" width="2" height="2" fill="rgb(76, 188, 68)"></rect><rect x="24" y="10" width="2" height="2" fill="rgb(98, 197, 76)"></rect><rect x="26" y="10" width="2" height="2" fill="rgb(178, 223, 170)"></rect><rect x="28" y="10" width="2" height="2" fill="rgb(76, 139, 209)"></rect><rect x="30" y="10" width="2" height="2" fill="rgb(41, 48, 152)"></rect><rect x="0" y="12" width="2" height="2" fill="rgb(10, 151, 226)"></rect><rect x="2" y="12" width="2" height="2" fill="rgb(77, 198, 161)"></rect><rect x="4" y="12" width="2" height="2" fill="rgb(84, 192, 68)"></rect><rect x="6" y="12" width="2" height="2" fill="rgb(124, 201, 119)"></rect><rect x="8" y="12" width="2" height="2" fill="rgb(118, 204, 116)"></rect><rect x="10" y="12" width="2" height="2" fill="rgb(78, 187, 70)"></rect><rect x="12" y="12" width="2" height="2" fill="rgb(75, 189, 68)"></rect><rect x="14" y="12" width="2" height="2" fill="rgb(75, 189, 68)"></rect><rect x="16" y="12" width="2" height="2" fill="rgb(75, 189, 68)"></rect><rect x="18" y="12" width="2" height="2" fill="rgb(75, 189, 68)"></rect><rect x="20" y="12" width="2" height="2" fill="rgb(75, 188, 68)"></rect><rect x="22" y="12" width="2" height="2" fill="rgb(102, 190, 97)"></rect><rect x="24" y="12" width="2" height="2" fill="rgb(84, 187, 78)"></rect><rect x="26" y="12" width="2" height="2" fill="rgb(106, 201, 81)"></rect><rect x="28" y="12" width="2" height="2" fill="rgb(68, 200, 198)"></rect><rect x="30" y="12" width="2" height="2" fill="rgb(10, 139, 220)"></rect><rect x="0" y="14" width="2" height="2" fill="rgb(15, 175, 239)"></rect><rect x="2" y="14" width="2" height="2" fill="rgb(118, 209, 81)"></rect><rect x="4" y="14" width="2" height="2" fill="rgb(115, 198, 115)"></rect><rect x="6" y="14" width="2" height="2" fill="rgb(198, 202, 235)"></rect><rect x="8" y="14" width="2" height="2" fill="rgb(196, 198, 236)"></rect><rect x="10" y="14" width="2" height="2" fill="rgb(111, 193, 115)"></rect><rect x="12" y="14" width="2" height="2" fill="rgb(75, 188, 68)"></rect><rect x="14" y="14" width="2" height="2" fill="rgb(75, 189, 68)"></rect><rect x="16" y="14" width="2" height="2" fill="rgb(75, 189, 68)"></rect><rect x="18" y="14" width="2" height="2" fill="rgb(75, 189, 68)"></rect><rect x="20" y="14" width="2" height="2" fill="rgb(119, 189, 125)"></rect><rect x="22" y="14" width="2" height="2" fill="rgb(199, 201, 236)"></rect><rect x="24" y="14" width="2" height="2" fill="rgb(197, 205, 228)"></rect><rect x="26" y="14" width="2" height="2" fill="rgb(90, 192, 81)"></rect><rect x="28" y="14" width="2" height="2" fill="rgb(75, 184, 124)"></rect><rect x="30" y="14" width="2" height="2" fill="rgb(20, 162, 227)"></rect><rect x="0" y="16" width="2" height="2" fill="rgb(12, 137, 218)"></rect><rect x="2" y="16" width="2" height="2" fill="rgb(98, 201, 72)"></rect><rect x="4" y="16" width="2" height="2" fill="rgb(114, 188, 120)"></rect><rect x="6" y="16" width="2" height="2" fill="rgb(181, 183, 231)"></rect><rect x="8" y="16" width="2" height="2" fill="rgb(162, 165, 210)"></rect><rect x="10" y="16" width="2" height="2" fill="rgb(104, 181, 115)"></rect><rect x="12" y="16" width="2" height="2" fill="rgb(75, 189, 68)"></rect><rect x="14" y="16" width="2" height="2" fill="rgb(75, 188, 67)"></rect><rect x="16" y="16" width="2" height="2" fill="rgb(75, 188, 68)"></rect><rect x="18" y="16" width="2" height="2" fill="rgb(75, 189, 68)"></rect><rect x="20" y="16" width="2" height="2" fill="rgb(129, 183, 150)"></rect><rect x="22" y="16" width="2" height="2" fill="rgb(163, 166, 209)"></rect><rect x="24" y="16" width="2" height="2" fill="rgb(180, 183, 230)"></rect><rect x="26" y="16" width="2" height="2" fill="rgb(88, 188, 86)"></rect><rect x="28" y="16" width="2" height="2" fill="rgb(123, 208, 99)"></rect><rect x="30" y="16" width="2" height="2" fill="rgb(13, 91, 187)"></rect><rect x="0" y="18" width="2" height="2" fill="rgb(14, 102, 195)"></rect><rect x="2" y="18" width="2" height="2" fill="rgb(89, 184, 72)"></rect><rect x="4" y="18" width="2" height="2" fill="rgb(69, 179, 67)"></rect><rect x="6" y="18" width="2" height="2" fill="rgb(118, 183, 138)"></rect><rect x="8" y="18" width="2" height="2" fill="rgb(110, 176, 128)"></rect><rect x="10" y="18" width="2" height="2" fill="rgb(73, 185, 68)"></rect><rect x="12" y="18" width="2" height="2" fill="rgb(72, 186, 68)"></rect><rect x="14" y="18" width="2" height="2" fill="rgb(74, 186, 69)"></rect><rect x="16" y="18" width="2" height="2" fill="rgb(74, 186, 68)"></rect><rect x="18" y="18" width="2" height="2" fill="rgb(73, 186, 67)"></rect><rect x="20" y="18" width="2" height="2" fill="rgb(76, 183, 73)"></rect><rect x="22" y="18" width="2" height="2" fill="rgb(127, 180, 151)"></rect><rect x="24" y="18" width="2" height="2" fill="rgb(118, 184, 137)"></rect><rect x="26" y="18" width="2" height="2" fill="rgb(68, 178, 65)"></rect><rect x="28" y="18" width="2" height="2" fill="rgb(59, 161, 112)"></rect><rect x="30" y="18" width="2" height="2" fill="rgb(17, 111, 199)"></rect><rect x="0" y="20" width="2" height="2" fill="rgb(17, 63, 152)"></rect><rect x="2" y="20" width="2" height="2" fill="rgb(48, 138, 124)"></rect><rect x="4" y="20" width="2" height="2" fill="rgb(55, 158, 62)"></rect><rect x="6" y="20" width="2" height="2" fill="rgb(60, 166, 63)"></rect><rect x="8" y="20" width="2" height="2" fill="rgb(64, 171, 64)"></rect><rect x="10" y="20" width="2" height="2" fill="rgb(66, 175, 65)"></rect><rect x="12" y="20" width="2" height="2" fill="rgb(66, 176, 65)"></rect><rect x="14" y="20" width="2" height="2" fill="rgb(66, 177, 66)"></rect><rect x="16" y="20" width="2" height="2" fill="rgb(67, 178, 66)"></rect><rect x="18" y="20" width="2" height="2" fill="rgb(66, 177, 65)"></rect><rect x="20" y="20" width="2" height="2" fill="rgb(65, 176, 64)"></rect><rect x="22" y="20" width="2" height="2" fill="rgb(62, 172, 64)"></rect><rect x="24" y="20" width="2" height="2" fill="rgb(57, 166, 63)"></rect><rect x="26" y="20" width="2" height="2" fill="rgb(54, 157, 62)"></rect><rect x="28" y="20" width="2" height="2" fill="rgb(32, 132, 156)"></rect><rect x="30" y="20" width="2" height="2" fill="rgb(29, 46, 141)"></rect><rect x="0" y="22" width="2" height="2" fill="rgb(21, 43, 116)"></rect><rect x="2" y="22" width="2" height="2" fill="rgb(18, 77, 149)"></rect><rect x="4" y="22" width="2" height="2" fill="rgb(40, 131, 68)"></rect><rect x="6" y="22" width="2" height="2" fill="rgb(45, 142, 60)"></rect><rect x="8" y="22" width="2" height="2" fill="rgb(50, 149, 61)"></rect><rect x="10" y="22" width="2" height="2" fill="rgb(52, 154, 63)"></rect><rect x="12" y="22" width="2" height="2" fill="rgb(55, 158, 63)"></rect><rect x="14" y="22" width="2" height="2" fill="rgb(55, 159, 62)"></rect><rect x="16" y="22" width="2" height="2" fill="rgb(55, 159, 62)"></rect><rect x="18" y="22" width="2" height="2" fill="rgb(53, 158, 63)"></rect><rect x="20" y="22" width="2" height="2" fill="rgb(50, 154, 62)"></rect><rect x="22" y="22" width="2" height="2" fill="rgb(48, 148, 62)"></rect><rect x="24" y="22" width="2" height="2" fill="rgb(41, 138, 60)"></rect><rect x="26" y="22" width="2" height="2" fill="rgb(39, 129, 96)"></rect><rect x="28" y="22" width="2" height="2" fill="rgb(17, 84, 170)"></rect><rect x="30" y="22" width="2" height="2" fill="rgb(26, 45, 128)"></rect><rect x="0" y="24" width="2" height="2" fill="rgb(17, 38, 99)"></rect><rect x="2" y="24" width="2" height="2" fill="rgb(14, 64, 131)"></rect><rect x="4" y="24" width="2" height="2" fill="rgb(17, 137, 174)"></rect><rect x="6" y="24" width="2" height="2" fill="rgb(29, 115, 56)"></rect><rect x="8" y="24" width="2" height="2" fill="rgb(32, 121, 57)"></rect><rect x="10" y="24" width="2" height="2" fill="rgb(37, 128, 58)"></rect><rect x="12" y="24" width="2" height="2" fill="rgb(40, 133, 60)"></rect><rect x="14" y="24" width="2" height="2" fill="rgb(40, 135, 60)"></rect><rect x="16" y="24" width="2" height="2" fill="rgb(41, 135, 60)"></rect><rect x="18" y="24" width="2" height="2" fill="rgb(38, 131, 59)"></rect><rect x="20" y="24" width="2" height="2" fill="rgb(34, 125, 59)"></rect><rect x="22" y="24" width="2" height="2" fill="rgb(29, 117, 56)"></rect><rect x="24" y="24" width="2" height="2" fill="rgb(29, 111, 57)"></rect><rect x="26" y="24" width="2" height="2" fill="rgb(54, 99, 161)"></rect><rect x="28" y="24" width="2" height="2" fill="rgb(20, 60, 146)"></rect><rect x="30" y="24" width="2" height="2" fill="rgb(27, 37, 102)"></rect><rect x="0" y="26" width="2" height="2" fill="rgb(15, 38, 91)"></rect><rect x="2" y="26" width="2" height="2" fill="rgb(12, 44, 99)"></rect><rect x="4" y="26" width="2" height="2" fill="rgb(17, 86, 133)"></rect><rect x="6" y="26" width="2" height="2" fill="rgb(24, 104, 55)"></rect><rect x="8" y="26" width="2" height="2" fill="rgb(25, 89, 49)"></rect><rect x="10" y="26" width="2" height="2" fill="rgb(21, 94, 50)"></rect><rect x="12" y="26" width="2" height="2" fill="rgb(29, 117, 64)"></rect><rect x="14" y="26" width="2" height="2" fill="rgb(43, 124, 79)"></rect><rect x="16" y="26" width="2" height="2" fill="rgb(46, 127, 84)"></rect><rect x="18" y="26" width="2" height="2" fill="rgb(32, 118, 72)"></rect><rect x="20" y="26" width="2" height="2" fill="rgb(25, 96, 54)"></rect><rect x="22" y="26" width="2" height="2" fill="rgb(19, 77, 41)"></rect><rect x="24" y="26" width="2" height="2" fill="rgb(24, 103, 56)"></rect><rect x="26" y="26" width="2" height="2" fill="rgb(31, 56, 104)"></rect><rect x="28" y="26" width="2" height="2" fill="rgb(28, 38, 112)"></rect><rect x="30" y="26" width="2" height="2" fill="rgb(23, 26, 71)"></rect><rect x="0" y="28" width="2" height="2" fill="rgb(11, 31, 72)"></rect><rect x="2" y="28" width="2" height="2" fill="rgb(14, 36, 91)"></rect><rect x="4" y="28" width="2" height="2" fill="rgb(15, 46, 91)"></rect><rect x="6" y="28" width="2" height="2" fill="rgb(24, 99, 57)"></rect><rect x="8" y="28" width="2" height="2" fill="rgb(20, 99, 53)"></rect><rect x="10" y="28" width="2" height="2" fill="rgb(17, 86, 73)"></rect><rect x="12" y="28" width="2" height="2" fill="rgb(33, 192, 224)"></rect><rect x="14" y="28" width="2" height="2" fill="rgb(149, 225, 234)"></rect><rect x="16" y="28" width="2" height="2" fill="rgb(190, 233, 238)"></rect><rect x="18" y="28" width="2" height="2" fill="rgb(44, 198, 230)"></rect><rect x="20" y="28" width="2" height="2" fill="rgb(25, 92, 77)"></rect><rect x="22" y="28" width="2" height="2" fill="rgb(20, 101, 55)"></rect><rect x="24" y="28" width="2" height="2" fill="rgb(24, 103, 60)"></rect><rect x="26" y="28" width="2" height="2" fill="rgb(27, 46, 108)"></rect><rect x="28" y="28" width="2" height="2" fill="rgb(20, 33, 83)"></rect><rect x="30" y="28" width="2" height="2" fill="rgb(17, 21, 49)"></rect><rect x="0" y="30" width="2" height="2" fill="rgb(10, 24, 54)"></rect><rect x="2" y="30" width="2" height="2" fill="rgb(14, 35, 86)"></rect><rect x="4" y="30" width="2" height="2" fill="rgb(15, 36, 91)"></rect><rect x="6" y="30" width="2" height="2" fill="rgb(20, 53, 92)"></rect><rect x="8" y="30" width="2" height="2" fill="rgb(13, 81, 123)"></rect><rect x="10" y="30" width="2" height="2" fill="rgb(13, 125, 196)"></rect><rect x="12" y="30" width="2" height="2" fill="rgb(15, 184, 244)"></rect><rect x="14" y="30" width="2" height="2" fill="rgb(68, 217, 248)"></rect><rect x="16" y="30" width="2" height="2" fill="rgb(73, 219, 249)"></rect><rect x="18" y="30" width="2" height="2" fill="rgb(12, 190, 241)"></rect><rect x="20" y="30" width="2" height="2" fill="rgb(25, 108, 183)"></rect><rect x="22" y="30" width="2" height="2" fill="rgb(37, 54, 107)"></rect><rect x="24" y="30" width="2" height="2" fill="rgb(25, 63, 117)"></rect><rect x="26" y="30" width="2" height="2" fill="rgb(24, 29, 86)"></rect><rect x="28" y="30" width="2" height="2" fill="rgb(16, 20, 52)"></rect><rect x="30" y="30" width="2" height="2" fill="rgb(11, 18, 37)"></rect></svg>