<svg width="192" height="192" xmlns="http://www.w3.org/2000/svg"><rect x="0" y="0" width="8" height="8" fill="rgb(12, 17, 43)"></rect><rect x="8" y="0" width="8" height="8" fill="rgb(12, 22, 53)"></rect><rect x="16" y="0" width="8" height="8" fill="rgb(12, 32, 76)"></rect><rect x="24" y="0" width="8" height="8" fill="rgb(15, 42, 107)"></rect><rect x="32" y="0" width="8" height="8" fill="rgb(25, 61, 131)"></rect><rect x="40" y="0" width="8" height="8" fill="rgb(73, 129, 111)"></rect><rect x="48" y="0" width="8" height="8" fill="rgb(32, 55, 147)"></rect><rect x="56" y="0" width="8" height="8" fill="rgb(47, 63, 164)"></rect><rect x="64" y="0" width="8" height="8" fill="rgb(79, 111, 196)"></rect><rect x="72" y="0" width="8" height="8" fill="rgb(153, 161, 220)"></rect><rect x="80" y="0" width="8" height="8" fill="rgb(214, 238, 250)"></rect><rect x="88" y="0" width="8" height="8" fill="rgb(242, 245, 251)"></rect><rect x="96" y="0" width="8" height="8" fill="rgb(249, 241, 248)"></rect><rect x="104" y="0" width="8" height="8" fill="rgb(247, 236, 246)"></rect><rect x="112" y="0" width="8" height="8" fill="rgb(249, 215, 235)"></rect><rect x="120" y="0" width="8" height="8" fill="rgb(247, 166, 212)"></rect><rect x="128" y="0" width="8" height="8" fill="rgb(242, 125, 193)"></rect><rect x="136" y="0" width="8" height="8" fill="rgb(228, 78, 169)"></rect><rect x="144" y="0" width="8" height="8" fill="rgb(204, 53, 138)"></rect><rect x="152" y="0" width="8" height="8" fill="rgb(174, 44, 134)"></rect><rect x="160" y="0" width="8" height="8" fill="rgb(119, 31, 129)"></rect><rect x="168" y="0" width="8" height="8" fill="rgb(68, 32, 116)"></rect><rect x="176" y="0" width="8" height="8" fill="rgb(42, 30, 96)"></rect><rect x="184" y="0" width="8" height="8" fill="rgb(28, 33, 76)"></rect><rect x="0" y="8" width="8" height="8" fill="rgb(13, 20, 50)"></rect><rect x="8" y="8" width="8" height="8" fill="rgb(15, 26, 69)"></rect><rect x="16" y="8" width="8" height="8" fill="rgb(15, 41, 104)"></rect><rect x="24" y="8" width="8" height="8" fill="rgb(15, 56, 140)"></rect><rect x="32" y="8" width="8" height="8" fill="rgb(34, 87, 144)"></rect><rect x="40" y="8" width="8" height="8" fill="rgb(77, 184, 81)"></rect><rect x="48" y="8" width="8" height="8" fill="rgb(65, 106, 171)"></rect><rect x="56" y="8" width="8" height="8" fill="rgb(133, 162, 220)"></rect><rect x="64" y="8" width="8" height="8" fill="rgb(210, 215, 241)"></rect><rect x="72" y="8" width="8" height="8" fill="rgb(244, 240, 248)"></rect><rect x="80" y="8" width="8" height="8" fill="rgb(253, 251, 253)"></rect><rect x="88" y="8" width="8" height="8" fill="rgb(254, 253, 253)"></rect><rect x="96" y="8" width="8" height="8" fill="rgb(254, 252, 253)"></rect><rect x="104" y="8" width="8" height="8" fill="rgb(254, 250, 253)"></rect><rect x="112" y="8" width="8" height="8" fill="rgb(254, 246, 251)"></rect><rect x="120" y="8" width="8" height="8" fill="rgb(251, 229, 242)"></rect><rect x="128" y="8" width="8" height="8" fill="rgb(248, 187, 222)"></rect><rect x="136" y="8" width="8" height="8" fill="rgb(245, 125, 192)"></rect><rect x="144" y="8" width="8" height="8" fill="rgb(128, 172, 98)"></rect><rect x="152" y="8" width="8" height="8" fill="rgb(160, 137, 103)"></rect><rect x="160" y="8" width="8" height="8" fill="rgb(151, 31, 137)"></rect><rect x="168" y="8" width="8" height="8" fill="rgb(92, 32, 129)"></rect><rect x="176" y="8" width="8" height="8" fill="rgb(57, 33, 114)"></rect><rect x="184" y="8" width="8" height="8" fill="rgb(34, 35, 93)"></rect><rect x="0" y="16" width="8" height="8" fill="rgb(15, 25, 63)"></rect><rect x="8" y="16" width="8" height="8" fill="rgb(18, 36, 93)"></rect><rect x="16" y="16" width="8" height="8" fill="rgb(12, 59, 139)"></rect><rect x="24" y="16" width="8" height="8" fill="rgb(10, 71, 166)"></rect><rect x="32" y="16" width="8" height="8" fill="rgb(15, 91, 187)"></rect><rect x="40" y="16" width="8" height="8" fill="rgb(72, 110, 184)"></rect><rect x="48" y="16" width="8" height="8" fill="rgb(156, 182, 176)"></rect><rect x="56" y="16" width="8" height="8" fill="rgb(236, 239, 250)"></rect><rect x="64" y="16" width="8" height="8" fill="rgb(252, 250, 252)"></rect><rect x="72" y="16" width="8" height="8" fill="rgb(254, 253, 253)"></rect><rect x="80" y="16" width="8" height="8" fill="rgb(254, 254, 254)"></rect><rect x="88" y="16" width="8" height="8" fill="rgb(254, 254, 254)"></rect><rect x="96" y="16" width="8" height="8" fill="rgb(254, 254, 254)"></rect><rect x="104" y="16" width="8" height="8" fill="rgb(255, 253, 254)"></rect><rect x="112" y="16" width="8" height="8" fill="rgb(254, 252, 254)"></rect><rect x="120" y="16" width="8" height="8" fill="rgb(254, 248, 252)"></rect><rect x="128" y="16" width="8" height="8" fill="rgb(251, 237, 246)"></rect><rect x="136" y="16" width="8" height="8" fill="rgb(246, 189, 221)"></rect><rect x="144" y="16" width="8" height="8" fill="rgb(166, 153, 140)"></rect><rect x="152" y="16" width="8" height="8" fill="rgb(215, 81, 154)"></rect><rect x="160" y="16" width="8" height="8" fill="rgb(188, 39, 148)"></rect><rect x="168" y="16" width="8" height="8" fill="rgb(117, 33, 137)"></rect><rect x="176" y="16" width="8" height="8" fill="rgb(69, 34, 127)"></rect><rect x="184" y="16" width="8" height="8" fill="rgb(43, 33, 108)"></rect><rect x="0" y="24" width="8" height="8" fill="rgb(17, 31, 80)"></rect><rect x="8" y="24" width="8" height="8" fill="rgb(16, 47, 120)"></rect><rect x="16" y="24" width="8" height="8" fill="rgb(11, 68, 161)"></rect><rect x="24" y="24" width="8" height="8" fill="rgb(10, 99, 193)"></rect><rect x="32" y="24" width="8" height="8" fill="rgb(43, 156, 226)"></rect><rect x="40" y="24" width="8" height="8" fill="rgb(173, 194, 233)"></rect><rect x="48" y="24" width="8" height="8" fill="rgb(190, 214, 170)"></rect><rect x="56" y="24" width="8" height="8" fill="rgb(247, 245, 243)"></rect><rect x="64" y="24" width="8" height="8" fill="rgb(254, 254, 254)"></rect><rect x="72" y="24" width="8" height="8" fill="rgb(254, 254, 254)"></rect><rect x="80" y="24" width="8" height="8" fill="rgb(255, 255, 255)"></rect><rect x="88" y="24" width="8" height="8" fill="rgb(254, 254, 254)"></rect><rect x="96" y="24" width="8" height="8" fill="rgb(254, 254, 254)"></rect><rect x="104" y="24" width="8" height="8" fill="rgb(254, 254, 254)"></rect><rect x="112" y="24" width="8" height="8" fill="rgb(254, 254, 254)"></rect><rect x="120" y="24" width="8" height="8" fill="rgb(254, 253, 254)"></rect><rect x="128" y="24" width="8" height="8" fill="rgb(253, 250, 253)"></rect><rect x="136" y="24" width="8" height="8" fill="rgb(213, 223, 192)"></rect><rect x="144" y="24" width="8" height="8" fill="rgb(234, 168, 199)"></rect><rect x="152" y="24" width="8" height="8" fill="rgb(241, 102, 180)"></rect><rect x="160" y="24" width="8" height="8" fill="rgb(207, 55, 158)"></rect><rect x="168" y="24" width="8" height="8" fill="rgb(126, 32, 142)"></rect><rect x="176" y="24" width="8" height="8" fill="rgb(71, 34, 135)"></rect><rect x="184" y="24" width="8" height="8" fill="rgb(52, 34, 121)"></rect><rect x="0" y="32" width="8" height="8" fill="rgb(13, 54, 114)"></rect><rect x="8" y="32" width="8" height="8" fill="rgb(10, 62, 148)"></rect><rect x="16" y="32" width="8" height="8" fill="rgb(12, 79, 175)"></rect><rect x="24" y="32" width="8" height="8" fill="rgb(23, 156, 227)"></rect><rect x="32" y="32" width="8" height="8" fill="rgb(151, 222, 246)"></rect><rect x="40" y="32" width="8" height="8" fill="rgb(244, 248, 252)"></rect><rect x="48" y="32" width="8" height="8" fill="rgb(233, 241, 226)"></rect><rect x="56" y="32" width="8" height="8" fill="rgb(208, 231, 185)"></rect><rect x="64" y="32" width="8" height="8" fill="rgb(243, 246, 239)"></rect><rect x="72" y="32" width="8" height="8" fill="rgb(247, 249, 246)"></rect><rect x="80" y="32" width="8" height="8" fill="rgb(250, 252, 249)"></rect><rect x="88" y="32" width="8" height="8" fill="rgb(249, 251, 249)"></rect><rect x="96" y="32" width="8" height="8" fill="rgb(249, 252, 250)"></rect><rect x="104" y="32" width="8" height="8" fill="rgb(247, 251, 248)"></rect><rect x="112" y="32" width="8" height="8" fill="rgb(247, 250, 247)"></rect><rect x="120" y="32" width="8" height="8" fill="rgb(249, 250, 249)"></rect><rect x="128" y="32" width="8" height="8" fill="rgb(246, 248, 244)"></rect><rect x="136" y="32" width="8" height="8" fill="rgb(206, 225, 184)"></rect><rect x="144" y="32" width="8" height="8" fill="rgb(251, 210, 233)"></rect><rect x="152" y="32" width="8" height="8" fill="rgb(248, 179, 220)"></rect><rect x="160" y="32" width="8" height="8" fill="rgb(214, 83, 173)"></rect><rect x="168" y="32" width="8" height="8" fill="rgb(124, 34, 143)"></rect><rect x="176" y="32" width="8" height="8" fill="rgb(78, 34, 142)"></rect><rect x="184" y="32" width="8" height="8" fill="rgb(56, 34, 130)"></rect><rect x="0" y="40" width="8" height="8" fill="rgb(18, 47, 121)"></rect><rect x="8" y="40" width="8" height="8" fill="rgb(12, 86, 176)"></rect><rect x="16" y="40" width="8" height="8" fill="rgb(14, 102, 197)"></rect><rect x="24" y="40" width="8" height="8" fill="rgb(91, 192, 238)"></rect><rect x="32" y="40" width="8" height="8" fill="rgb(241, 250, 252)"></rect><rect x="40" y="40" width="8" height="8" fill="rgb(252, 252, 252)"></rect><rect x="48" y="40" width="8" height="8" fill="rgb(234, 244, 228)"></rect><rect x="56" y="40" width="8" height="8" fill="rgb(185, 229, 153)"></rect><rect x="64" y="40" width="8" height="8" fill="rgb(203, 235, 186)"></rect><rect x="72" y="40" width="8" height="8" fill="rgb(203, 235, 195)"></rect><rect x="80" y="40" width="8" height="8" fill="rgb(199, 234, 196)"></rect><rect x="88" y="40" width="8" height="8" fill="rgb(196, 233, 195)"></rect><rect x="96" y="40" width="8" height="8" fill="rgb(197, 234, 196)"></rect><rect x="104" y="40" width="8" height="8" fill="rgb(199, 234, 194)"></rect><rect x="112" y="40" width="8" height="8" fill="rgb(209, 238, 198)"></rect><rect x="120" y="40" width="8" height="8" fill="rgb(207, 237, 185)"></rect><rect x="128" y="40" width="8" height="8" fill="rgb(187, 229, 157)"></rect><rect x="136" y="40" width="8" height="8" fill="rgb(201, 225, 177)"></rect><rect x="144" y="40" width="8" height="8" fill="rgb(252, 240, 247)"></rect><rect x="152" y="40" width="8" height="8" fill="rgb(249, 209, 233)"></rect><rect x="160" y="40" width="8" height="8" fill="rgb(190, 102, 185)"></rect><rect x="168" y="40" width="8" height="8" fill="rgb(115, 43, 151)"></rect><rect x="176" y="40" width="8" height="8" fill="rgb(78, 35, 143)"></rect><rect x="184" y="40" width="8" height="8" fill="rgb(56, 35, 136)"></rect><rect x="0" y="48" width="8" height="8" fill="rgb(13, 62, 146)"></rect><rect x="8" y="48" width="8" height="8" fill="rgb(11, 93, 187)"></rect><rect x="16" y="48" width="8" height="8" fill="rgb(22, 152, 227)"></rect><rect x="24" y="48" width="8" height="8" fill="rgb(170, 224, 246)"></rect><rect x="32" y="48" width="8" height="8" fill="rgb(234, 241, 221)"></rect><rect x="40" y="48" width="8" height="8" fill="rgb(185, 228, 152)"></rect><rect x="48" y="48" width="8" height="8" fill="rgb(140, 214, 109)"></rect><rect x="56" y="48" width="8" height="8" fill="rgb(97, 196, 78)"></rect><rect x="64" y="48" width="8" height="8" fill="rgb(88, 193, 81)"></rect><rect x="72" y="48" width="8" height="8" fill="rgb(96, 196, 93)"></rect><rect x="80" y="48" width="8" height="8" fill="rgb(101, 198, 99)"></rect><rect x="88" y="48" width="8" height="8" fill="rgb(103, 199, 100)"></rect><rect x="96" y="48" width="8" height="8" fill="rgb(104, 199, 101)"></rect><rect x="104" y="48" width="8" height="8" fill="rgb(102, 198, 99)"></rect><rect x="112" y="48" width="8" height="8" fill="rgb(99, 197, 93)"></rect><rect x="120" y="48" width="8" height="8" fill="rgb(106, 201, 92)"></rect><rect x="128" y="48" width="8" height="8" fill="rgb(121, 208, 88)"></rect><rect x="136" y="48" width="8" height="8" fill="rgb(134, 216, 89)"></rect><rect x="144" y="48" width="8" height="8" fill="rgb(196, 228, 168)"></rect><rect x="152" y="48" width="8" height="8" fill="rgb(244, 227, 238)"></rect><rect x="160" y="48" width="8" height="8" fill="rgb(184, 127, 198)"></rect><rect x="168" y="48" width="8" height="8" fill="rgb(102, 46, 153)"></rect><rect x="176" y="48" width="8" height="8" fill="rgb(70, 36, 144)"></rect><rect x="184" y="48" width="8" height="8" fill="rgb(51, 36, 140)"></rect><rect x="0" y="56" width="8" height="8" fill="rgb(10, 106, 191)"></rect><rect x="8" y="56" width="8" height="8" fill="rgb(10, 133, 219)"></rect><rect x="16" y="56" width="8" height="8" fill="rgb(44, 180, 236)"></rect><rect x="24" y="56" width="8" height="8" fill="rgb(189, 225, 197)"></rect><rect x="32" y="56" width="8" height="8" fill="rgb(137, 213, 89)"></rect><rect x="40" y="56" width="8" height="8" fill="rgb(92, 196, 71)"></rect><rect x="48" y="56" width="8" height="8" fill="rgb(76, 188, 68)"></rect><rect x="56" y="56" width="8" height="8" fill="rgb(76, 187, 69)"></rect><rect x="64" y="56" width="8" height="8" fill="rgb(78, 187, 70)"></rect><rect x="72" y="56" width="8" height="8" fill="rgb(76, 188, 70)"></rect><rect x="80" y="56" width="8" height="8" fill="rgb(77, 189, 72)"></rect><rect x="88" y="56" width="8" height="8" fill="rgb(78, 189, 72)"></rect><rect x="96" y="56" width="8" height="8" fill="rgb(79, 189, 72)"></rect><rect x="104" y="56" width="8" height="8" fill="rgb(78, 189, 73)"></rect><rect x="112" y="56" width="8" height="8" fill="rgb(78, 188, 72)"></rect><rect x="120" y="56" width="8" height="8" fill="rgb(78, 187, 70)"></rect><rect x="128" y="56" width="8" height="8" fill="rgb(77, 187, 68)"></rect><rect x="136" y="56" width="8" height="8" fill="rgb(86, 192, 69)"></rect><rect x="144" y="56" width="8" height="8" fill="rgb(125, 210, 89)"></rect><rect x="152" y="56" width="8" height="8" fill="rgb(192, 227, 163)"></rect><rect x="160" y="56" width="8" height="8" fill="rgb(194, 194, 227)"></rect><rect x="168" y="56" width="8" height="8" fill="rgb(87, 101, 189)"></rect><rect x="176" y="56" width="8" height="8" fill="rgb(64, 40, 148)"></rect><rect x="184" y="56" width="8" height="8" fill="rgb(48, 38, 144)"></rect><rect x="0" y="64" width="8" height="8" fill="rgb(12, 148, 224)"></rect><rect x="8" y="64" width="8" height="8" fill="rgb(12, 164, 235)"></rect><rect x="16" y="64" width="8" height="8" fill="rgb(56, 191, 213)"></rect><rect x="24" y="64" width="8" height="8" fill="rgb(134, 212, 86)"></rect><rect x="32" y="64" width="8" height="8" fill="rgb(86, 193, 68)"></rect><rect x="40" y="64" width="8" height="8" fill="rgb(75, 188, 68)"></rect><rect x="48" y="64" width="8" height="8" fill="rgb(75, 188, 68)"></rect><rect x="56" y="64" width="8" height="8" fill="rgb(76, 188, 69)"></rect><rect x="64" y="64" width="8" height="8" fill="rgb(78, 186, 70)"></rect><rect x="72" y="64" width="8" height="8" fill="rgb(75, 188, 68)"></rect><rect x="80" y="64" width="8" height="8" fill="rgb(75, 189, 68)"></rect><rect x="88" y="64" width="8" height="8" fill="rgb(74, 189, 68)"></rect><rect x="96" y="64" width="8" height="8" fill="rgb(75, 188, 68)"></rect><rect x="104" y="64" width="8" height="8" fill="rgb(75, 188, 68)"></rect><rect x="112" y="64" width="8" height="8" fill="rgb(75, 188, 68)"></rect><rect x="120" y="64" width="8" height="8" fill="rgb(75, 188, 68)"></rect><rect x="128" y="64" width="8" height="8" fill="rgb(75, 188, 68)"></rect><rect x="136" y="64" width="8" height="8" fill="rgb(76, 188, 68)"></rect><rect x="144" y="64" width="8" height="8" fill="rgb(78, 188, 67)"></rect><rect x="152" y="64" width="8" height="8" fill="rgb(119, 207, 89)"></rect><rect x="160" y="64" width="8" height="8" fill="rgb(177, 221, 173)"></rect><rect x="168" y="64" width="8" height="8" fill="rgb(88, 191, 237)"></rect><rect x="176" y="64" width="8" height="8" fill="rgb(40, 77, 177)"></rect><rect x="184" y="64" width="8" height="8" fill="rgb(37, 45, 150)"></rect><rect x="0" y="72" width="8" height="8" fill="rgb(10, 130, 215)"></rect><rect x="8" y="72" width="8" height="8" fill="rgb(13, 168, 237)"></rect><rect x="16" y="72" width="8" height="8" fill="rgb(110, 207, 122)"></rect><rect x="24" y="72" width="8" height="8" fill="rgb(93, 198, 70)"></rect><rect x="32" y="72" width="8" height="8" fill="rgb(76, 188, 67)"></rect><rect x="40" y="72" width="8" height="8" fill="rgb(79, 187, 73)"></rect><rect x="48" y="72" width="8" height="8" fill="rgb(80, 187, 73)"></rect><rect x="56" y="72" width="8" height="8" fill="rgb(76, 187, 69)"></rect><rect x="64" y="72" width="8" height="8" fill="rgb(78, 186, 70)"></rect><rect x="72" y="72" width="8" height="8" fill="rgb(75, 188, 68)"></rect><rect x="80" y="72" width="8" height="8" fill="rgb(75, 189, 68)"></rect><rect x="88" y="72" width="8" height="8" fill="rgb(75, 189, 68)"></rect><rect x="96" y="72" width="8" height="8" fill="rgb(75, 189, 68)"></rect><rect x="104" y="72" width="8" height="8" fill="rgb(75, 189, 68)"></rect><rect x="112" y="72" width="8" height="8" fill="rgb(75, 189, 68)"></rect><rect x="120" y="72" width="8" height="8" fill="rgb(75, 189, 68)"></rect><rect x="128" y="72" width="8" height="8" fill="rgb(75, 188, 67)"></rect><rect x="136" y="72" width="8" height="8" fill="rgb(76, 188, 68)"></rect><rect x="144" y="72" width="8" height="8" fill="rgb(77, 187, 68)"></rect><rect x="152" y="72" width="8" height="8" fill="rgb(80, 189, 68)"></rect><rect x="160" y="72" width="8" height="8" fill="rgb(131, 213, 94)"></rect><rect x="168" y="72" width="8" height="8" fill="rgb(99, 209, 191)"></rect><rect x="176" y="72" width="8" height="8" fill="rgb(11, 156, 231)"></rect><rect x="184" y="72" width="8" height="8" fill="rgb(12, 113, 204)"></rect><rect x="0" y="80" width="8" height="8" fill="rgb(9, 166, 236)"></rect><rect x="8" y="80" width="8" height="8" fill="rgb(34, 176, 212)"></rect><rect x="16" y="80" width="8" height="8" fill="rgb(119, 209, 76)"></rect><rect x="24" y="80" width="8" height="8" fill="rgb(76, 188, 67)"></rect><rect x="32" y="80" width="8" height="8" fill="rgb(137, 203, 137)"></rect><rect x="40" y="80" width="8" height="8" fill="rgb(219, 223, 235)"></rect><rect x="48" y="80" width="8" height="8" fill="rgb(214, 220, 234)"></rect><rect x="56" y="80" width="8" height="8" fill="rgb(135, 200, 136)"></rect><rect x="64" y="80" width="8" height="8" fill="rgb(77, 187, 70)"></rect><rect x="72" y="80" width="8" height="8" fill="rgb(75, 188, 68)"></rect><rect x="80" y="80" width="8" height="8" fill="rgb(75, 189, 68)"></rect><rect x="88" y="80" width="8" height="8" fill="rgb(75, 189, 68)"></rect><rect x="96" y="80" width="8" height="8" fill="rgb(75, 189, 68)"></rect><rect x="104" y="80" width="8" height="8" fill="rgb(75, 189, 68)"></rect><rect x="112" y="80" width="8" height="8" fill="rgb(75, 189, 68)"></rect><rect x="120" y="80" width="8" height="8" fill="rgb(75, 188, 68)"></rect><rect x="128" y="80" width="8" height="8" fill="rgb(148, 205, 150)"></rect><rect x="136" y="80" width="8" height="8" fill="rgb(213, 223, 227)"></rect><rect x="144" y="80" width="8" height="8" fill="rgb(197, 219, 207)"></rect><rect x="152" y="80" width="8" height="8" fill="rgb(100, 193, 95)"></rect><rect x="160" y="80" width="8" height="8" fill="rgb(90, 194, 70)"></rect><rect x="168" y="80" width="8" height="8" fill="rgb(113, 204, 109)"></rect><rect x="176" y="80" width="8" height="8" fill="rgb(12, 180, 244)"></rect><rect x="184" y="80" width="8" height="8" fill="rgb(34, 186, 240)"></rect><rect x="0" y="88" width="8" height="8" fill="rgb(9, 168, 237)"></rect><rect x="8" y="88" width="8" height="8" fill="rgb(67, 195, 170)"></rect><rect x="16" y="88" width="8" height="8" fill="rgb(98, 199, 71)"></rect><rect x="24" y="88" width="8" height="8" fill="rgb(82, 187, 75)"></rect><rect x="32" y="88" width="8" height="8" fill="rgb(201, 207, 231)"></rect><rect x="40" y="88" width="8" height="8" fill="rgb(185, 187, 232)"></rect><rect x="48" y="88" width="8" height="8" fill="rgb(184, 185, 232)"></rect><rect x="56" y="88" width="8" height="8" fill="rgb(191, 198, 228)"></rect><rect x="64" y="88" width="8" height="8" fill="rgb(80, 186, 75)"></rect><rect x="72" y="88" width="8" height="8" fill="rgb(75, 188, 68)"></rect><rect x="80" y="88" width="8" height="8" fill="rgb(75, 189, 68)"></rect><rect x="88" y="88" width="8" height="8" fill="rgb(75, 189, 68)"></rect><rect x="96" y="88" width="8" height="8" fill="rgb(75, 189, 68)"></rect><rect x="104" y="88" width="8" height="8" fill="rgb(75, 189, 68)"></rect><rect x="112" y="88" width="8" height="8" fill="rgb(75, 189, 68)"></rect><rect x="120" y="88" width="8" height="8" fill="rgb(101, 189, 100)"></rect><rect x="128" y="88" width="8" height="8" fill="rgb(197, 199, 235)"></rect><rect x="136" y="88" width="8" height="8" fill="rgb(185, 187, 232)"></rect><rect x="144" y="88" width="8" height="8" fill="rgb(187, 189, 232)"></rect><rect x="152" y="88" width="8" height="8" fill="rgb(170, 200, 191)"></rect><rect x="160" y="88" width="8" height="8" fill="rgb(79, 188, 67)"></rect><rect x="168" y="88" width="8" height="8" fill="rgb(123, 212, 79)"></rect><rect x="176" y="88" width="8" height="8" fill="rgb(45, 189, 224)"></rect><rect x="184" y="88" width="8" height="8" fill="rgb(14, 137, 218)"></rect><rect x="0" y="96" width="8" height="8" fill="rgb(10, 135, 220)"></rect><rect x="8" y="96" width="8" height="8" fill="rgb(76, 181, 142)"></rect><rect x="16" y="96" width="8" height="8" fill="rgb(87, 194, 69)"></rect><rect x="24" y="96" width="8" height="8" fill="rgb(85, 186, 79)"></rect><rect x="32" y="96" width="8" height="8" fill="rgb(186, 189, 232)"></rect><rect x="40" y="96" width="8" height="8" fill="rgb(174, 175, 221)"></rect><rect x="48" y="96" width="8" height="8" fill="rgb(169, 171, 216)"></rect><rect x="56" y="96" width="8" height="8" fill="rgb(182, 185, 230)"></rect><rect x="64" y="96" width="8" height="8" fill="rgb(82, 185, 78)"></rect><rect x="72" y="96" width="8" height="8" fill="rgb(75, 188, 68)"></rect><rect x="80" y="96" width="8" height="8" fill="rgb(75, 189, 68)"></rect><rect x="88" y="96" width="8" height="8" fill="rgb(75, 189, 68)"></rect><rect x="96" y="96" width="8" height="8" fill="rgb(75, 189, 68)"></rect><rect x="104" y="96" width="8" height="8" fill="rgb(75, 189, 68)"></rect><rect x="112" y="96" width="8" height="8" fill="rgb(75, 189, 68)"></rect><rect x="120" y="96" width="8" height="8" fill="rgb(109, 186, 118)"></rect><rect x="128" y="96" width="8" height="8" fill="rgb(183, 184, 232)"></rect><rect x="136" y="96" width="8" height="8" fill="rgb(161, 164, 207)"></rect><rect x="144" y="96" width="8" height="8" fill="rgb(182, 184, 233)"></rect><rect x="152" y="96" width="8" height="8" fill="rgb(167, 185, 205)"></rect><rect x="160" y="96" width="8" height="8" fill="rgb(76, 188, 68)"></rect><rect x="168" y="96" width="8" height="8" fill="rgb(117, 209, 75)"></rect><rect x="176" y="96" width="8" height="8" fill="rgb(37, 153, 193)"></rect><rect x="184" y="96" width="8" height="8" fill="rgb(24, 62, 167)"></rect><rect x="0" y="104" width="8" height="8" fill="rgb(9, 123, 211)"></rect><rect x="8" y="104" width="8" height="8" fill="rgb(70, 174, 146)"></rect><rect x="16" y="104" width="8" height="8" fill="rgb(79, 187, 67)"></rect><rect x="24" y="104" width="8" height="8" fill="rgb(75, 184, 67)"></rect><rect x="32" y="104" width="8" height="8" fill="rgb(138, 182, 164)"></rect><rect x="40" y="104" width="8" height="8" fill="rgb(182, 184, 233)"></rect><rect x="48" y="104" width="8" height="8" fill="rgb(182, 184, 233)"></rect><rect x="56" y="104" width="8" height="8" fill="rgb(137, 183, 163)"></rect><rect x="64" y="104" width="8" height="8" fill="rgb(76, 187, 68)"></rect><rect x="72" y="104" width="8" height="8" fill="rgb(74, 188, 67)"></rect><rect x="80" y="104" width="8" height="8" fill="rgb(74, 187, 67)"></rect><rect x="88" y="104" width="8" height="8" fill="rgb(74, 184, 67)"></rect><rect x="96" y="104" width="8" height="8" fill="rgb(74, 185, 68)"></rect><rect x="104" y="104" width="8" height="8" fill="rgb(74, 188, 68)"></rect><rect x="112" y="104" width="8" height="8" fill="rgb(74, 188, 67)"></rect><rect x="120" y="104" width="8" height="8" fill="rgb(79, 185, 75)"></rect><rect x="128" y="104" width="8" height="8" fill="rgb(167, 183, 209)"></rect><rect x="136" y="104" width="8" height="8" fill="rgb(182, 184, 233)"></rect><rect x="144" y="104" width="8" height="8" fill="rgb(182, 184, 233)"></rect><rect x="152" y="104" width="8" height="8" fill="rgb(121, 182, 140)"></rect><rect x="160" y="104" width="8" height="8" fill="rgb(73, 185, 67)"></rect><rect x="168" y="104" width="8" height="8" fill="rgb(109, 201, 73)"></rect><rect x="176" y="104" width="8" height="8" fill="rgb(31, 149, 196)"></rect><rect x="184" y="104" width="8" height="8" fill="rgb(10, 122, 211)"></rect><rect x="0" y="112" width="8" height="8" fill="rgb(16, 73, 173)"></rect><rect x="8" y="112" width="8" height="8" fill="rgb(45, 116, 142)"></rect><rect x="16" y="112" width="8" height="8" fill="rgb(74, 176, 66)"></rect><rect x="24" y="112" width="8" height="8" fill="rgb(66, 175, 65)"></rect><rect x="32" y="112" width="8" height="8" fill="rgb(69, 178, 67)"></rect><rect x="40" y="112" width="8" height="8" fill="rgb(94, 181, 101)"></rect><rect x="48" y="112" width="8" height="8" fill="rgb(95, 182, 101)"></rect><rect x="56" y="112" width="8" height="8" fill="rgb(71, 182, 67)"></rect><rect x="64" y="112" width="8" height="8" fill="rgb(72, 184, 67)"></rect><rect x="72" y="112" width="8" height="8" fill="rgb(73, 184, 67)"></rect><rect x="80" y="112" width="8" height="8" fill="rgb(72, 185, 68)"></rect><rect x="88" y="112" width="8" height="8" fill="rgb(74, 184, 68)"></rect><rect x="96" y="112" width="8" height="8" fill="rgb(74, 184, 68)"></rect><rect x="104" y="112" width="8" height="8" fill="rgb(73, 184, 67)"></rect><rect x="112" y="112" width="8" height="8" fill="rgb(73, 185, 68)"></rect><rect x="120" y="112" width="8" height="8" fill="rgb(73, 184, 68)"></rect><rect x="128" y="112" width="8" height="8" fill="rgb(81, 183, 78)"></rect><rect x="136" y="112" width="8" height="8" fill="rgb(113, 184, 126)"></rect><rect x="144" y="112" width="8" height="8" fill="rgb(99, 182, 107)"></rect><rect x="152" y="112" width="8" height="8" fill="rgb(68, 178, 65)"></rect><rect x="160" y="112" width="8" height="8" fill="rgb(65, 175, 64)"></rect><rect x="168" y="112" width="8" height="8" fill="rgb(92, 183, 75)"></rect><rect x="176" y="112" width="8" height="8" fill="rgb(20, 112, 195)"></rect><rect x="184" y="112" width="8" height="8" fill="rgb(24, 75, 170)"></rect><rect x="0" y="120" width="8" height="8" fill="rgb(18, 56, 146)"></rect><rect x="8" y="120" width="8" height="8" fill="rgb(18, 81, 166)"></rect><rect x="16" y="120" width="8" height="8" fill="rgb(65, 159, 68)"></rect><rect x="24" y="120" width="8" height="8" fill="rgb(57, 160, 63)"></rect><rect x="32" y="120" width="8" height="8" fill="rgb(60, 166, 62)"></rect><rect x="40" y="120" width="8" height="8" fill="rgb(63, 170, 63)"></rect><rect x="48" y="120" width="8" height="8" fill="rgb(65, 173, 64)"></rect><rect x="56" y="120" width="8" height="8" fill="rgb(67, 175, 65)"></rect><rect x="64" y="120" width="8" height="8" fill="rgb(67, 177, 66)"></rect><rect x="72" y="120" width="8" height="8" fill="rgb(67, 178, 66)"></rect><rect x="80" y="120" width="8" height="8" fill="rgb(68, 179, 66)"></rect><rect x="88" y="120" width="8" height="8" fill="rgb(69, 179, 67)"></rect><rect x="96" y="120" width="8" height="8" fill="rgb(69, 179, 67)"></rect><rect x="104" y="120" width="8" height="8" fill="rgb(69, 179, 67)"></rect><rect x="112" y="120" width="8" height="8" fill="rgb(68, 179, 66)"></rect><rect x="120" y="120" width="8" height="8" fill="rgb(67, 178, 66)"></rect><rect x="128" y="120" width="8" height="8" fill="rgb(66, 177, 65)"></rect><rect x="136" y="120" width="8" height="8" fill="rgb(64, 174, 64)"></rect><rect x="144" y="120" width="8" height="8" fill="rgb(60, 171, 64)"></rect><rect x="152" y="120" width="8" height="8" fill="rgb(57, 165, 63)"></rect><rect x="160" y="120" width="8" height="8" fill="rgb(55, 159, 62)"></rect><rect x="168" y="120" width="8" height="8" fill="rgb(60, 155, 114)"></rect><rect x="176" y="120" width="8" height="8" fill="rgb(24, 66, 165)"></rect><rect x="184" y="120" width="8" height="8" fill="rgb(36, 38, 134)"></rect><rect x="0" y="128" width="8" height="8" fill="rgb(19, 46, 123)"></rect><rect x="8" y="128" width="8" height="8" fill="rgb(15, 63, 155)"></rect><rect x="16" y="128" width="8" height="8" fill="rgb(38, 117, 115)"></rect><rect x="24" y="128" width="8" height="8" fill="rgb(46, 143, 60)"></rect><rect x="32" y="128" width="8" height="8" fill="rgb(50, 150, 61)"></rect><rect x="40" y="128" width="8" height="8" fill="rgb(53, 155, 61)"></rect><rect x="48" y="128" width="8" height="8" fill="rgb(57, 160, 62)"></rect><rect x="56" y="128" width="8" height="8" fill="rgb(60, 163, 63)"></rect><rect x="64" y="128" width="8" height="8" fill="rgb(60, 166, 64)"></rect><rect x="72" y="128" width="8" height="8" fill="rgb(61, 167, 64)"></rect><rect x="80" y="128" width="8" height="8" fill="rgb(62, 169, 64)"></rect><rect x="88" y="128" width="8" height="8" fill="rgb(62, 169, 64)"></rect><rect x="96" y="128" width="8" height="8" fill="rgb(62, 169, 64)"></rect><rect x="104" y="128" width="8" height="8" fill="rgb(61, 169, 64)"></rect><rect x="112" y="128" width="8" height="8" fill="rgb(60, 168, 64)"></rect><rect x="120" y="128" width="8" height="8" fill="rgb(59, 166, 64)"></rect><rect x="128" y="128" width="8" height="8" fill="rgb(57, 163, 63)"></rect><rect x="136" y="128" width="8" height="8" fill="rgb(55, 159, 62)"></rect><rect x="144" y="128" width="8" height="8" fill="rgb(50, 154, 62)"></rect><rect x="152" y="128" width="8" height="8" fill="rgb(47, 148, 61)"></rect><rect x="160" y="128" width="8" height="8" fill="rgb(47, 142, 63)"></rect><rect x="168" y="128" width="8" height="8" fill="rgb(24, 122, 177)"></rect><rect x="176" y="128" width="8" height="8" fill="rgb(20, 62, 157)"></rect><rect x="184" y="128" width="8" height="8" fill="rgb(27, 45, 131)"></rect><rect x="0" y="136" width="8" height="8" fill="rgb(23, 41, 111)"></rect><rect x="8" y="136" width="8" height="8" fill="rgb(20, 46, 123)"></rect><rect x="16" y="136" width="8" height="8" fill="rgb(13, 87, 168)"></rect><rect x="24" y="136" width="8" height="8" fill="rgb(35, 128, 88)"></rect><rect x="32" y="136" width="8" height="8" fill="rgb(39, 132, 59)"></rect><rect x="40" y="136" width="8" height="8" fill="rgb(43, 138, 60)"></rect><rect x="48" y="136" width="8" height="8" fill="rgb(45, 143, 60)"></rect><rect x="56" y="136" width="8" height="8" fill="rgb(47, 148, 61)"></rect><rect x="64" y="136" width="8" height="8" fill="rgb(50, 151, 61)"></rect><rect x="72" y="136" width="8" height="8" fill="rgb(52, 153, 62)"></rect><rect x="80" y="136" width="8" height="8" fill="rgb(53, 155, 62)"></rect><rect x="88" y="136" width="8" height="8" fill="rgb(52, 156, 62)"></rect><rect x="96" y="136" width="8" height="8" fill="rgb(53, 155, 62)"></rect><rect x="104" y="136" width="8" height="8" fill="rgb(52, 155, 62)"></rect><rect x="112" y="136" width="8" height="8" fill="rgb(50, 153, 62)"></rect><rect x="120" y="136" width="8" height="8" fill="rgb(49, 151, 61)"></rect><rect x="128" y="136" width="8" height="8" fill="rgb(47, 147, 61)"></rect><rect x="136" y="136" width="8" height="8" fill="rgb(43, 143, 61)"></rect><rect x="144" y="136" width="8" height="8" fill="rgb(39, 134, 59)"></rect><rect x="152" y="136" width="8" height="8" fill="rgb(35, 128, 58)"></rect><rect x="160" y="136" width="8" height="8" fill="rgb(29, 116, 127)"></rect><rect x="168" y="136" width="8" height="8" fill="rgb(11, 85, 180)"></rect><rect x="176" y="136" width="8" height="8" fill="rgb(22, 53, 143)"></rect><rect x="184" y="136" width="8" height="8" fill="rgb(26, 44, 119)"></rect><rect x="0" y="144" width="8" height="8" fill="rgb(20, 40, 103)"></rect><rect x="8" y="144" width="8" height="8" fill="rgb(19, 40, 105)"></rect><rect x="16" y="144" width="8" height="8" fill="rgb(11, 79, 153)"></rect><rect x="24" y="144" width="8" height="8" fill="rgb(13, 143, 202)"></rect><rect x="32" y="144" width="8" height="8" fill="rgb(31, 123, 78)"></rect><rect x="40" y="144" width="8" height="8" fill="rgb(31, 120, 56)"></rect><rect x="48" y="144" width="8" height="8" fill="rgb(35, 126, 58)"></rect><rect x="56" y="144" width="8" height="8" fill="rgb(38, 130, 58)"></rect><rect x="64" y="144" width="8" height="8" fill="rgb(40, 133, 59)"></rect><rect x="72" y="144" width="8" height="8" fill="rgb(41, 136, 59)"></rect><rect x="80" y="144" width="8" height="8" fill="rgb(42, 138, 60)"></rect><rect x="88" y="144" width="8" height="8" fill="rgb(43, 139, 61)"></rect><rect x="96" y="144" width="8" height="8" fill="rgb(43, 139, 61)"></rect><rect x="104" y="144" width="8" height="8" fill="rgb(42, 138, 60)"></rect><rect x="112" y="144" width="8" height="8" fill="rgb(41, 135, 59)"></rect><rect x="120" y="144" width="8" height="8" fill="rgb(39, 132, 59)"></rect><rect x="128" y="144" width="8" height="8" fill="rgb(35, 127, 58)"></rect><rect x="136" y="144" width="8" height="8" fill="rgb(29, 119, 55)"></rect><rect x="144" y="144" width="8" height="8" fill="rgb(27, 115, 56)"></rect><rect x="152" y="144" width="8" height="8" fill="rgb(33, 105, 82)"></rect><rect x="160" y="144" width="8" height="8" fill="rgb(40, 115, 191)"></rect><rect x="168" y="144" width="8" height="8" fill="rgb(17, 75, 165)"></rect><rect x="176" y="144" width="8" height="8" fill="rgb(26, 44, 127)"></rect><rect x="184" y="144" width="8" height="8" fill="rgb(26, 36, 100)"></rect><rect x="0" y="152" width="8" height="8" fill="rgb(17, 39, 96)"></rect><rect x="8" y="152" width="8" height="8" fill="rgb(16, 39, 97)"></rect><rect x="16" y="152" width="8" height="8" fill="rgb(11, 63, 122)"></rect><rect x="24" y="152" width="8" height="8" fill="rgb(10, 123, 190)"></rect><rect x="32" y="152" width="8" height="8" fill="rgb(25, 112, 84)"></rect><rect x="40" y="152" width="8" height="8" fill="rgb(24, 100, 52)"></rect><rect x="48" y="152" width="8" height="8" fill="rgb(24, 106, 56)"></rect><rect x="56" y="152" width="8" height="8" fill="rgb(25, 109, 54)"></rect><rect x="64" y="152" width="8" height="8" fill="rgb(28, 112, 54)"></rect><rect x="72" y="152" width="8" height="8" fill="rgb(29, 116, 56)"></rect><rect x="80" y="152" width="8" height="8" fill="rgb(31, 118, 56)"></rect><rect x="88" y="152" width="8" height="8" fill="rgb(33, 120, 58)"></rect><rect x="96" y="152" width="8" height="8" fill="rgb(34, 120, 59)"></rect><rect x="104" y="152" width="8" height="8" fill="rgb(30, 118, 58)"></rect><rect x="112" y="152" width="8" height="8" fill="rgb(27, 113, 57)"></rect><rect x="120" y="152" width="8" height="8" fill="rgb(26, 109, 56)"></rect><rect x="128" y="152" width="8" height="8" fill="rgb(24, 108, 56)"></rect><rect x="136" y="152" width="8" height="8" fill="rgb(25, 102, 53)"></rect><rect x="144" y="152" width="8" height="8" fill="rgb(24, 98, 53)"></rect><rect x="152" y="152" width="8" height="8" fill="rgb(29, 102, 66)"></rect><rect x="160" y="152" width="8" height="8" fill="rgb(36, 38, 136)"></rect><rect x="168" y="152" width="8" height="8" fill="rgb(26, 51, 138)"></rect><rect x="176" y="152" width="8" height="8" fill="rgb(28, 39, 110)"></rect><rect x="184" y="152" width="8" height="8" fill="rgb(25, 29, 80)"></rect><rect x="0" y="160" width="8" height="8" fill="rgb(13, 36, 85)"></rect><rect x="8" y="160" width="8" height="8" fill="rgb(16, 40, 96)"></rect><rect x="16" y="160" width="8" height="8" fill="rgb(13, 43, 97)"></rect><rect x="24" y="160" width="8" height="8" fill="rgb(10, 64, 125)"></rect><rect x="32" y="160" width="8" height="8" fill="rgb(30, 107, 66)"></rect><rect x="40" y="160" width="8" height="8" fill="rgb(22, 104, 55)"></rect><rect x="48" y="160" width="8" height="8" fill="rgb(19, 80, 43)"></rect><rect x="56" y="160" width="8" height="8" fill="rgb(21, 74, 42)"></rect><rect x="64" y="160" width="8" height="8" fill="rgb(25, 104, 58)"></rect><rect x="72" y="160" width="8" height="8" fill="rgb(27, 115, 63)"></rect><rect x="80" y="160" width="8" height="8" fill="rgb(37, 119, 72)"></rect><rect x="88" y="160" width="8" height="8" fill="rgb(52, 131, 91)"></rect><rect x="96" y="160" width="8" height="8" fill="rgb(55, 133, 95)"></rect><rect x="104" y="160" width="8" height="8" fill="rgb(44, 124, 79)"></rect><rect x="112" y="160" width="8" height="8" fill="rgb(33, 119, 71)"></rect><rect x="120" y="160" width="8" height="8" fill="rgb(24, 94, 53)"></rect><rect x="128" y="160" width="8" height="8" fill="rgb(17, 60, 35)"></rect><rect x="136" y="160" width="8" height="8" fill="rgb(20, 79, 44)"></rect><rect x="144" y="160" width="8" height="8" fill="rgb(23, 104, 56)"></rect><rect x="152" y="160" width="8" height="8" fill="rgb(32, 110, 61)"></rect><rect x="160" y="160" width="8" height="8" fill="rgb(34, 38, 124)"></rect><rect x="168" y="160" width="8" height="8" fill="rgb(29, 38, 115)"></rect><rect x="176" y="160" width="8" height="8" fill="rgb(26, 31, 89)"></rect><rect x="184" y="160" width="8" height="8" fill="rgb(20, 24, 60)"></rect><rect x="0" y="168" width="8" height="8" fill="rgb(12, 32, 71)"></rect><rect x="8" y="168" width="8" height="8" fill="rgb(14, 38, 92)"></rect><rect x="16" y="168" width="8" height="8" fill="rgb(17, 37, 92)"></rect><rect x="24" y="168" width="8" height="8" fill="rgb(14, 40, 95)"></rect><rect x="32" y="168" width="8" height="8" fill="rgb(28, 95, 73)"></rect><rect x="40" y="168" width="8" height="8" fill="rgb(24, 103, 53)"></rect><rect x="48" y="168" width="8" height="8" fill="rgb(20, 100, 52)"></rect><rect x="56" y="168" width="8" height="8" fill="rgb(19, 87, 47)"></rect><rect x="64" y="168" width="8" height="8" fill="rgb(15, 47, 35)"></rect><rect x="72" y="168" width="8" height="8" fill="rgb(20, 165, 202)"></rect><rect x="80" y="168" width="8" height="8" fill="rgb(116, 214, 214)"></rect><rect x="88" y="168" width="8" height="8" fill="rgb(178, 230, 230)"></rect><rect x="96" y="168" width="8" height="8" fill="rgb(193, 232, 233)"></rect><rect x="104" y="168" width="8" height="8" fill="rgb(119, 218, 226)"></rect><rect x="112" y="168" width="8" height="8" fill="rgb(20, 180, 221)"></rect><rect x="120" y="168" width="8" height="8" fill="rgb(17, 48, 42)"></rect><rect x="128" y="168" width="8" height="8" fill="rgb(20, 88, 49)"></rect><rect x="136" y="168" width="8" height="8" fill="rgb(20, 102, 54)"></rect><rect x="144" y="168" width="8" height="8" fill="rgb(20, 101, 54)"></rect><rect x="152" y="168" width="8" height="8" fill="rgb(30, 100, 72)"></rect><rect x="160" y="168" width="8" height="8" fill="rgb(31, 35, 115)"></rect><rect x="168" y="168" width="8" height="8" fill="rgb(16, 44, 102)"></rect><rect x="176" y="168" width="8" height="8" fill="rgb(21, 29, 69)"></rect><rect x="184" y="168" width="8" height="8" fill="rgb(17, 20, 48)"></rect><rect x="0" y="176" width="8" height="8" fill="rgb(11, 26, 58)"></rect><rect x="8" y="176" width="8" height="8" fill="rgb(12, 34, 81)"></rect><rect x="16" y="176" width="8" height="8" fill="rgb(18, 38, 94)"></rect><rect x="24" y="176" width="8" height="8" fill="rgb(17, 36, 90)"></rect><rect x="32" y="176" width="8" height="8" fill="rgb(17, 49, 89)"></rect><rect x="40" y="176" width="8" height="8" fill="rgb(26, 94, 67)"></rect><rect x="48" y="176" width="8" height="8" fill="rgb(24, 108, 60)"></rect><rect x="56" y="176" width="8" height="8" fill="rgb(23, 119, 88)"></rect><rect x="64" y="176" width="8" height="8" fill="rgb(17, 151, 194)"></rect><rect x="72" y="176" width="8" height="8" fill="rgb(10, 187, 244)"></rect><rect x="80" y="176" width="8" height="8" fill="rgb(47, 214, 248)"></rect><rect x="88" y="176" width="8" height="8" fill="rgb(135, 231, 249)"></rect><rect x="96" y="176" width="8" height="8" fill="rgb(146, 233, 249)"></rect><rect x="104" y="176" width="8" height="8" fill="rgb(92, 224, 248)"></rect><rect x="112" y="176" width="8" height="8" fill="rgb(12, 194, 245)"></rect><rect x="120" y="176" width="8" height="8" fill="rgb(18, 149, 197)"></rect><rect x="128" y="176" width="8" height="8" fill="rgb(25, 109, 83)"></rect><rect x="136" y="176" width="8" height="8" fill="rgb(21, 108, 60)"></rect><rect x="144" y="176" width="8" height="8" fill="rgb(21, 97, 67)"></rect><rect x="152" y="176" width="8" height="8" fill="rgb(20, 71, 120)"></rect><rect x="160" y="176" width="8" height="8" fill="rgb(25, 32, 95)"></rect><rect x="168" y="176" width="8" height="8" fill="rgb(20, 25, 67)"></rect><rect x="176" y="176" width="8" height="8" fill="rgb(17, 22, 53)"></rect><rect x="184" y="176" width="8" height="8" fill="rgb(12, 18, 39)"></rect><rect x="0" y="184" width="8" height="8" fill="rgb(13, 24, 50)"></rect><rect x="8" y="184" width="8" height="8" fill="rgb(12, 30, 68)"></rect><rect x="16" y="184" width="8" height="8" fill="rgb(15, 37, 91)"></rect><rect x="24" y="184" width="8" height="8" fill="rgb(16, 38, 94)"></rect><rect x="32" y="184" width="8" height="8" fill="rgb(17, 35, 89)"></rect><rect x="40" y="184" width="8" height="8" fill="rgb(16, 44, 103)"></rect><rect x="48" y="184" width="8" height="8" fill="rgb(12, 71, 139)"></rect><rect x="56" y="184" width="8" height="8" fill="rgb(12, 85, 172)"></rect><rect x="64" y="184" width="8" height="8" fill="rgb(10, 118, 208)"></rect><rect x="72" y="184" width="8" height="8" fill="rgb(10, 168, 237)"></rect><rect x="80" y="184" width="8" height="8" fill="rgb(27, 201, 245)"></rect><rect x="88" y="184" width="8" height="8" fill="rgb(62, 216, 249)"></rect><rect x="96" y="184" width="8" height="8" fill="rgb(62, 217, 248)"></rect><rect x="104" y="184" width="8" height="8" fill="rgb(23, 207, 247)"></rect><rect x="112" y="184" width="8" height="8" fill="rgb(11, 179, 239)"></rect><rect x="120" y="184" width="8" height="8" fill="rgb(17, 105, 195)"></rect><rect x="128" y="184" width="8" height="8" fill="rgb(45, 44, 142)"></rect><rect x="136" y="184" width="8" height="8" fill="rgb(38, 43, 123)"></rect><rect x="144" y="184" width="8" height="8" fill="rgb(24, 48, 127)"></rect><rect x="152" y="184" width="8" height="8" fill="rgb(20, 49, 114)"></rect><rect x="160" y="184" width="8" height="8" fill="rgb(25, 23, 72)"></rect><rect x="168" y="184" width="8" height="8" fill="rgb(18, 20, 53)"></rect><rect x="176" y="184" width="8" height="8" fill="rgb(12, 20, 42)"></rect><rect x="184" y="184" width="8" height="8" fill="rgb(11, 17, 34)"></rect></svg>