<svg width="64" height="64" xmlns="http://www.w3.org/2000/svg"><rect x="0" y="0" width="4" height="4" fill="rgb(11, 18, 46)"></rect><rect x="4" y="0" width="4" height="4" fill="rgb(12, 30, 75)"></rect><rect x="8" y="0" width="4" height="4" fill="rgb(18, 50, 125)"></rect><rect x="12" y="0" width="4" height="4" fill="rgb(62, 126, 106)"></rect><rect x="16" y="0" width="4" height="4" fill="rgb(44, 72, 159)"></rect><rect x="20" y="0" width="4" height="4" fill="rgb(102, 124, 202)"></rect><rect x="24" y="0" width="4" height="4" fill="rgb(193, 203, 235)"></rect><rect x="28" y="0" width="4" height="4" fill="rgb(241, 246, 252)"></rect><rect x="32" y="0" width="4" height="4" fill="rgb(250, 241, 249)"></rect><rect x="36" y="0" width="4" height="4" fill="rgb(251, 231, 243)"></rect><rect x="40" y="0" width="4" height="4" fill="rgb(247, 175, 217)"></rect><rect x="44" y="0" width="4" height="4" fill="rgb(237, 98, 179)"></rect><rect x="48" y="0" width="4" height="4" fill="rgb(183, 104, 124)"></rect><rect x="52" y="0" width="4" height="4" fill="rgb(141, 34, 130)"></rect><rect x="56" y="0" width="4" height="4" fill="rgb(66, 31, 114)"></rect><rect x="60" y="0" width="4" height="4" fill="rgb(33, 33, 85)"></rect><rect x="0" y="4" width="4" height="4" fill="rgb(17, 26, 67)"></rect><rect x="4" y="4" width="4" height="4" fill="rgb(13, 47, 118)"></rect><rect x="8" y="4" width="4" height="4" fill="rgb(12, 73, 167)"></rect><rect x="12" y="4" width="4" height="4" fill="rgb(51, 113, 161)"></rect><rect x="16" y="4" width="4" height="4" fill="rgb(152, 178, 202)"></rect><rect x="20" y="4" width="4" height="4" fill="rgb(241, 242, 250)"></rect><rect x="24" y="4" width="4" height="4" fill="rgb(254, 252, 253)"></rect><rect x="28" y="4" width="4" height="4" fill="rgb(254, 254, 254)"></rect><rect x="32" y="4" width="4" height="4" fill="rgb(254, 253, 254)"></rect><rect x="36" y="4" width="4" height="4" fill="rgb(254, 252, 254)"></rect><rect x="40" y="4" width="4" height="4" fill="rgb(253, 241, 248)"></rect><rect x="44" y="4" width="4" height="4" fill="rgb(247, 189, 222)"></rect><rect x="48" y="4" width="4" height="4" fill="rgb(157, 156, 128)"></rect><rect x="52" y="4" width="4" height="4" fill="rgb(190, 46, 146)"></rect><rect x="56" y="4" width="4" height="4" fill="rgb(99, 33, 133)"></rect><rect x="60" y="4" width="4" height="4" fill="rgb(46, 33, 108)"></rect><rect x="0" y="8" width="4" height="4" fill="rgb(16, 40, 99)"></rect><rect x="4" y="8" width="4" height="4" fill="rgb(13, 65, 156)"></rect><rect x="8" y="8" width="4" height="4" fill="rgb(19, 130, 210)"></rect><rect x="12" y="8" width="4" height="4" fill="rgb(161, 202, 237)"></rect><rect x="16" y="8" width="4" height="4" fill="rgb(207, 224, 191)"></rect><rect x="20" y="8" width="4" height="4" fill="rgb(254, 253, 253)"></rect><rect x="24" y="8" width="4" height="4" fill="rgb(254, 254, 254)"></rect><rect x="28" y="8" width="4" height="4" fill="rgb(253, 254, 254)"></rect><rect x="32" y="8" width="4" height="4" fill="rgb(253, 254, 254)"></rect><rect x="36" y="8" width="4" height="4" fill="rgb(254, 254, 254)"></rect><rect x="40" y="8" width="4" height="4" fill="rgb(254, 252, 254)"></rect><rect x="44" y="8" width="4" height="4" fill="rgb(222, 230, 208)"></rect><rect x="48" y="8" width="4" height="4" fill="rgb(242, 161, 203)"></rect><rect x="52" y="8" width="4" height="4" fill="rgb(220, 77, 169)"></rect><rect x="56" y="8" width="4" height="4" fill="rgb(111, 33, 142)"></rect><rect x="60" y="8" width="4" height="4" fill="rgb(58, 34, 127)"></rect><rect x="0" y="12" width="4" height="4" fill="rgb(16, 61, 137)"></rect><rect x="4" y="12" width="4" height="4" fill="rgb(11, 89, 184)"></rect><rect x="8" y="12" width="4" height="4" fill="rgb(114, 201, 240)"></rect><rect x="12" y="12" width="4" height="4" fill="rgb(248, 251, 252)"></rect><rect x="16" y="12" width="4" height="4" fill="rgb(220, 240, 205)"></rect><rect x="20" y="12" width="4" height="4" fill="rgb(204, 232, 185)"></rect><rect x="24" y="12" width="4" height="4" fill="rgb(217, 240, 213)"></rect><rect x="28" y="12" width="4" height="4" fill="rgb(215, 240, 214)"></rect><rect x="32" y="12" width="4" height="4" fill="rgb(216, 240, 215)"></rect><rect x="36" y="12" width="4" height="4" fill="rgb(217, 239, 211)"></rect><rect x="40" y="12" width="4" height="4" fill="rgb(218, 239, 203)"></rect><rect x="44" y="12" width="4" height="4" fill="rgb(204, 230, 180)"></rect><rect x="48" y="12" width="4" height="4" fill="rgb(252, 229, 241)"></rect><rect x="52" y="12" width="4" height="4" fill="rgb(214, 129, 196)"></rect><rect x="56" y="12" width="4" height="4" fill="rgb(107, 38, 148)"></rect><rect x="60" y="12" width="4" height="4" fill="rgb(62, 34, 137)"></rect><rect x="0" y="16" width="4" height="4" fill="rgb(11, 80, 167)"></rect><rect x="4" y="16" width="4" height="4" fill="rgb(23, 147, 224)"></rect><rect x="8" y="16" width="4" height="4" fill="rgb(197, 233, 231)"></rect><rect x="12" y="16" width="4" height="4" fill="rgb(171, 223, 140)"></rect><rect x="16" y="16" width="4" height="4" fill="rgb(111, 202, 90)"></rect><rect x="20" y="16" width="4" height="4" fill="rgb(85, 191, 76)"></rect><rect x="24" y="16" width="4" height="4" fill="rgb(91, 194, 87)"></rect><rect x="28" y="16" width="4" height="4" fill="rgb(95, 196, 92)"></rect><rect x="32" y="16" width="4" height="4" fill="rgb(95, 195, 92)"></rect><rect x="36" y="16" width="4" height="4" fill="rgb(93, 194, 88)"></rect><rect x="40" y="16" width="4" height="4" fill="rgb(100, 198, 84)"></rect><rect x="44" y="16" width="4" height="4" fill="rgb(117, 207, 82)"></rect><rect x="48" y="16" width="4" height="4" fill="rgb(196, 229, 169)"></rect><rect x="52" y="16" width="4" height="4" fill="rgb(206, 172, 217)"></rect><rect x="56" y="16" width="4" height="4" fill="rgb(90, 48, 154)"></rect><rect x="60" y="16" width="4" height="4" fill="rgb(54, 36, 142)"></rect><rect x="0" y="20" width="4" height="4" fill="rgb(11, 141, 220)"></rect><rect x="4" y="20" width="4" height="4" fill="rgb(41, 180, 226)"></rect><rect x="8" y="20" width="4" height="4" fill="rgb(135, 213, 101)"></rect><rect x="12" y="20" width="4" height="4" fill="rgb(80, 190, 68)"></rect><rect x="16" y="20" width="4" height="4" fill="rgb(75, 188, 68)"></rect><rect x="20" y="20" width="4" height="4" fill="rgb(77, 187, 69)"></rect><rect x="24" y="20" width="4" height="4" fill="rgb(75, 188, 68)"></rect><rect x="28" y="20" width="4" height="4" fill="rgb(75, 188, 68)"></rect><rect x="32" y="20" width="4" height="4" fill="rgb(75, 188, 68)"></rect><rect x="36" y="20" width="4" height="4" fill="rgb(75, 188, 68)"></rect><rect x="40" y="20" width="4" height="4" fill="rgb(75, 188, 68)"></rect><rect x="44" y="20" width="4" height="4" fill="rgb(76, 188, 67)"></rect><rect x="48" y="20" width="4" height="4" fill="rgb(98, 198, 77)"></rect><rect x="52" y="20" width="4" height="4" fill="rgb(176, 220, 170)"></rect><rect x="56" y="20" width="4" height="4" fill="rgb(74, 140, 210)"></rect><rect x="60" y="20" width="4" height="4" fill="rgb(41, 45, 151)"></rect><rect x="0" y="24" width="4" height="4" fill="rgb(11, 149, 227)"></rect><rect x="4" y="24" width="4" height="4" fill="rgb(82, 197, 149)"></rect><rect x="8" y="24" width="4" height="4" fill="rgb(84, 192, 68)"></rect><rect x="12" y="24" width="4" height="4" fill="rgb(118, 199, 114)"></rect><rect x="16" y="24" width="4" height="4" fill="rgb(116, 199, 114)"></rect><rect x="20" y="24" width="4" height="4" fill="rgb(78, 187, 69)"></rect><rect x="24" y="24" width="4" height="4" fill="rgb(75, 188, 68)"></rect><rect x="28" y="24" width="4" height="4" fill="rgb(75, 189, 68)"></rect><rect x="32" y="24" width="4" height="4" fill="rgb(75, 189, 68)"></rect><rect x="36" y="24" width="4" height="4" fill="rgb(75, 189, 68)"></rect><rect x="40" y="24" width="4" height="4" fill="rgb(75, 188, 68)"></rect><rect x="44" y="24" width="4" height="4" fill="rgb(109, 194, 105)"></rect><rect x="48" y="24" width="4" height="4" fill="rgb(98, 192, 91)"></rect><rect x="52" y="24" width="4" height="4" fill="rgb(106, 201, 81)"></rect><rect x="56" y="24" width="4" height="4" fill="rgb(74, 198, 194)"></rect><rect x="60" y="24" width="4" height="4" fill="rgb(11, 139, 221)"></rect><rect x="0" y="28" width="4" height="4" fill="rgb(13, 173, 238)"></rect><rect x="4" y="28" width="4" height="4" fill="rgb(102, 200, 85)"></rect><rect x="8" y="28" width="4" height="4" fill="rgb(110, 193, 109)"></rect><rect x="12" y="28" width="4" height="4" fill="rgb(198, 200, 235)"></rect><rect x="16" y="28" width="4" height="4" fill="rgb(194, 196, 234)"></rect><rect x="20" y="28" width="4" height="4" fill="rgb(107, 189, 109)"></rect><rect x="24" y="28" width="4" height="4" fill="rgb(75, 188, 68)"></rect><rect x="28" y="28" width="4" height="4" fill="rgb(75, 189, 68)"></rect><rect x="32" y="28" width="4" height="4" fill="rgb(75, 189, 68)"></rect><rect x="36" y="28" width="4" height="4" fill="rgb(75, 189, 68)"></rect><rect x="40" y="28" width="4" height="4" fill="rgb(126, 197, 132)"></rect><rect x="44" y="28" width="4" height="4" fill="rgb(198, 200, 236)"></rect><rect x="48" y="28" width="4" height="4" fill="rgb(198, 204, 229)"></rect><rect x="52" y="28" width="4" height="4" fill="rgb(94, 190, 86)"></rect><rect x="56" y="28" width="4" height="4" fill="rgb(100, 206, 132)"></rect><rect x="60" y="28" width="4" height="4" fill="rgb(24, 165, 232)"></rect><rect x="0" y="32" width="4" height="4" fill="rgb(17, 134, 207)"></rect><rect x="4" y="32" width="4" height="4" fill="rgb(96, 196, 73)"></rect><rect x="8" y="32" width="4" height="4" fill="rgb(108, 184, 115)"></rect><rect x="12" y="32" width="4" height="4" fill="rgb(180, 182, 230)"></rect><rect x="16" y="32" width="4" height="4" fill="rgb(180, 181, 229)"></rect><rect x="20" y="32" width="4" height="4" fill="rgb(107, 184, 114)"></rect><rect x="24" y="32" width="4" height="4" fill="rgb(75, 188, 68)"></rect><rect x="28" y="32" width="4" height="4" fill="rgb(75, 188, 67)"></rect><rect x="32" y="32" width="4" height="4" fill="rgb(75, 188, 68)"></rect><rect x="36" y="32" width="4" height="4" fill="rgb(75, 189, 68)"></rect><rect x="40" y="32" width="4" height="4" fill="rgb(127, 185, 147)"></rect><rect x="44" y="32" width="4" height="4" fill="rgb(177, 179, 225)"></rect><rect x="48" y="32" width="4" height="4" fill="rgb(182, 184, 232)"></rect><rect x="52" y="32" width="4" height="4" fill="rgb(92, 183, 94)"></rect><rect x="56" y="32" width="4" height="4" fill="rgb(96, 194, 107)"></rect><rect x="60" y="32" width="4" height="4" fill="rgb(17, 90, 188)"></rect><rect x="0" y="36" width="4" height="4" fill="rgb(14, 96, 188)"></rect><rect x="4" y="36" width="4" height="4" fill="rgb(81, 176, 76)"></rect><rect x="8" y="36" width="4" height="4" fill="rgb(70, 178, 67)"></rect><rect x="12" y="36" width="4" height="4" fill="rgb(117, 184, 135)"></rect><rect x="16" y="36" width="4" height="4" fill="rgb(118, 185, 135)"></rect><rect x="20" y="36" width="4" height="4" fill="rgb(74, 184, 68)"></rect><rect x="24" y="36" width="4" height="4" fill="rgb(73, 185, 68)"></rect><rect x="28" y="36" width="4" height="4" fill="rgb(71, 181, 66)"></rect><rect x="32" y="36" width="4" height="4" fill="rgb(74, 184, 68)"></rect><rect x="36" y="36" width="4" height="4" fill="rgb(73, 186, 67)"></rect><rect x="40" y="36" width="4" height="4" fill="rgb(78, 182, 76)"></rect><rect x="44" y="36" width="4" height="4" fill="rgb(128, 184, 149)"></rect><rect x="48" y="36" width="4" height="4" fill="rgb(115, 184, 132)"></rect><rect x="52" y="36" width="4" height="4" fill="rgb(68, 178, 65)"></rect><rect x="56" y="36" width="4" height="4" fill="rgb(73, 173, 118)"></rect><rect x="60" y="36" width="4" height="4" fill="rgb(18, 101, 192)"></rect><rect x="0" y="40" width="4" height="4" fill="rgb(18, 60, 150)"></rect><rect x="4" y="40" width="4" height="4" fill="rgb(44, 129, 110)"></rect><rect x="8" y="40" width="4" height="4" fill="rgb(55, 158, 62)"></rect><rect x="12" y="40" width="4" height="4" fill="rgb(60, 165, 63)"></rect><rect x="16" y="40" width="4" height="4" fill="rgb(64, 171, 64)"></rect><rect x="20" y="40" width="4" height="4" fill="rgb(65, 174, 65)"></rect><rect x="24" y="40" width="4" height="4" fill="rgb(66, 176, 65)"></rect><rect x="28" y="40" width="4" height="4" fill="rgb(67, 177, 66)"></rect><rect x="32" y="40" width="4" height="4" fill="rgb(67, 178, 66)"></rect><rect x="36" y="40" width="4" height="4" fill="rgb(66, 177, 66)"></rect><rect x="40" y="40" width="4" height="4" fill="rgb(64, 175, 65)"></rect><rect x="44" y="40" width="4" height="4" fill="rgb(62, 171, 63)"></rect><rect x="48" y="40" width="4" height="4" fill="rgb(57, 166, 64)"></rect><rect x="52" y="40" width="4" height="4" fill="rgb(53, 156, 62)"></rect><rect x="56" y="40" width="4" height="4" fill="rgb(41, 130, 148)"></rect><rect x="60" y="40" width="4" height="4" fill="rgb(32, 44, 140)"></rect><rect x="0" y="44" width="4" height="4" fill="rgb(24, 45, 118)"></rect><rect x="4" y="44" width="4" height="4" fill="rgb(20, 81, 151)"></rect><rect x="8" y="44" width="4" height="4" fill="rgb(39, 133, 73)"></rect><rect x="12" y="44" width="4" height="4" fill="rgb(45, 141, 60)"></rect><rect x="16" y="44" width="4" height="4" fill="rgb(49, 149, 61)"></rect><rect x="20" y="44" width="4" height="4" fill="rgb(52, 154, 62)"></rect><rect x="24" y="44" width="4" height="4" fill="rgb(54, 157, 62)"></rect><rect x="28" y="44" width="4" height="4" fill="rgb(55, 159, 63)"></rect><rect x="32" y="44" width="4" height="4" fill="rgb(54, 159, 62)"></rect><rect x="36" y="44" width="4" height="4" fill="rgb(53, 157, 63)"></rect><rect x="40" y="44" width="4" height="4" fill="rgb(51, 154, 62)"></rect><rect x="44" y="44" width="4" height="4" fill="rgb(47, 148, 61)"></rect><rect x="48" y="44" width="4" height="4" fill="rgb(41, 137, 59)"></rect><rect x="52" y="44" width="4" height="4" fill="rgb(36, 126, 90)"></rect><rect x="56" y="44" width="4" height="4" fill="rgb(15, 83, 175)"></rect><rect x="60" y="44" width="4" height="4" fill="rgb(25, 44, 127)"></rect><rect x="0" y="48" width="4" height="4" fill="rgb(18, 38, 100)"></rect><rect x="4" y="48" width="4" height="4" fill="rgb(14, 64, 132)"></rect><rect x="8" y="48" width="4" height="4" fill="rgb(17, 136, 171)"></rect><rect x="12" y="48" width="4" height="4" fill="rgb(28, 114, 55)"></rect><rect x="16" y="48" width="4" height="4" fill="rgb(32, 121, 57)"></rect><rect x="20" y="48" width="4" height="4" fill="rgb(37, 128, 58)"></rect><rect x="24" y="48" width="4" height="4" fill="rgb(39, 132, 59)"></rect><rect x="28" y="48" width="4" height="4" fill="rgb(40, 134, 60)"></rect><rect x="32" y="48" width="4" height="4" fill="rgb(40, 134, 60)"></rect><rect x="36" y="48" width="4" height="4" fill="rgb(38, 131, 59)"></rect><rect x="40" y="48" width="4" height="4" fill="rgb(34, 125, 58)"></rect><rect x="44" y="48" width="4" height="4" fill="rgb(28, 117, 56)"></rect><rect x="48" y="48" width="4" height="4" fill="rgb(27, 111, 55)"></rect><rect x="52" y="48" width="4" height="4" fill="rgb(37, 91, 148)"></rect><rect x="56" y="48" width="4" height="4" fill="rgb(21, 63, 151)"></rect><rect x="60" y="48" width="4" height="4" fill="rgb(26, 36, 102)"></rect><rect x="0" y="52" width="4" height="4" fill="rgb(14, 37, 90)"></rect><rect x="4" y="52" width="4" height="4" fill="rgb(13, 44, 99)"></rect><rect x="8" y="52" width="4" height="4" fill="rgb(16, 87, 122)"></rect><rect x="12" y="52" width="4" height="4" fill="rgb(23, 102, 53)"></rect><rect x="16" y="52" width="4" height="4" fill="rgb(21, 86, 47)"></rect><rect x="20" y="52" width="4" height="4" fill="rgb(24, 100, 54)"></rect><rect x="24" y="52" width="4" height="4" fill="rgb(28, 114, 61)"></rect><rect x="28" y="52" width="4" height="4" fill="rgb(41, 123, 76)"></rect><rect x="32" y="52" width="4" height="4" fill="rgb(44, 125, 80)"></rect><rect x="36" y="52" width="4" height="4" fill="rgb(31, 116, 67)"></rect><rect x="40" y="52" width="4" height="4" fill="rgb(23, 91, 50)"></rect><rect x="44" y="52" width="4" height="4" fill="rgb(20, 79, 44)"></rect><rect x="48" y="52" width="4" height="4" fill="rgb(24, 103, 57)"></rect><rect x="52" y="52" width="4" height="4" fill="rgb(36, 61, 108)"></rect><rect x="56" y="52" width="4" height="4" fill="rgb(29, 36, 112)"></rect><rect x="60" y="52" width="4" height="4" fill="rgb(23, 26, 72)"></rect><rect x="0" y="56" width="4" height="4" fill="rgb(12, 32, 74)"></rect><rect x="4" y="56" width="4" height="4" fill="rgb(16, 37, 93)"></rect><rect x="8" y="56" width="4" height="4" fill="rgb(17, 48, 93)"></rect><rect x="12" y="56" width="4" height="4" fill="rgb(25, 102, 56)"></rect><rect x="16" y="56" width="4" height="4" fill="rgb(20, 99, 52)"></rect><rect x="20" y="56" width="4" height="4" fill="rgb(18, 85, 68)"></rect><rect x="24" y="56" width="4" height="4" fill="rgb(40, 185, 218)"></rect><rect x="28" y="56" width="4" height="4" fill="rgb(146, 226, 233)"></rect><rect x="32" y="56" width="4" height="4" fill="rgb(179, 233, 238)"></rect><rect x="36" y="56" width="4" height="4" fill="rgb(40, 199, 232)"></rect><rect x="40" y="56" width="4" height="4" fill="rgb(17, 82, 71)"></rect><rect x="44" y="56" width="4" height="4" fill="rgb(20, 100, 55)"></rect><rect x="48" y="56" width="4" height="4" fill="rgb(23, 102, 58)"></rect><rect x="52" y="56" width="4" height="4" fill="rgb(30, 52, 110)"></rect><rect x="56" y="56" width="4" height="4" fill="rgb(18, 35, 85)"></rect><rect x="60" y="56" width="4" height="4" fill="rgb(17, 21, 50)"></rect><rect x="0" y="60" width="4" height="4" fill="rgb(15, 29, 60)"></rect><rect x="4" y="60" width="4" height="4" fill="rgb(15, 35, 87)"></rect><rect x="8" y="60" width="4" height="4" fill="rgb(16, 37, 91)"></rect><rect x="12" y="60" width="4" height="4" fill="rgb(18, 50, 94)"></rect><rect x="16" y="60" width="4" height="4" fill="rgb(18, 92, 124)"></rect><rect x="20" y="60" width="4" height="4" fill="rgb(13, 121, 200)"></rect><rect x="24" y="60" width="4" height="4" fill="rgb(12, 181, 240)"></rect><rect x="28" y="60" width="4" height="4" fill="rgb(67, 216, 248)"></rect><rect x="32" y="60" width="4" height="4" fill="rgb(69, 219, 248)"></rect><rect x="36" y="60" width="4" height="4" fill="rgb(15, 191, 243)"></rect><rect x="40" y="60" width="4" height="4" fill="rgb(24, 104, 186)"></rect><rect x="44" y="60" width="4" height="4" fill="rgb(40, 71, 112)"></rect><rect x="48" y="60" width="4" height="4" fill="rgb(20, 64, 119)"></rect><rect x="52" y="60" width="4" height="4" fill="rgb(26, 31, 88)"></rect><rect x="56" y="60" width="4" height="4" fill="rgb(17, 21, 53)"></rect><rect x="60" y="60" width="4" height="4" fill="rgb(11, 18, 37)"></rect></svg>