<svg width="512" height="512" xmlns="http://www.w3.org/2000/svg"><rect x="0" y="0" width="32" height="32" fill="rgb(12, 19, 46)"></rect><rect x="32" y="0" width="32" height="32" fill="rgb(13, 31, 75)"></rect><rect x="64" y="0" width="32" height="32" fill="rgb(16, 48, 123)"></rect><rect x="96" y="0" width="32" height="32" fill="rgb(69, 132, 107)"></rect><rect x="128" y="0" width="32" height="32" fill="rgb(44, 72, 158)"></rect><rect x="160" y="0" width="32" height="32" fill="rgb(101, 123, 200)"></rect><rect x="192" y="0" width="32" height="32" fill="rgb(193, 203, 236)"></rect><rect x="224" y="0" width="32" height="32" fill="rgb(241, 246, 252)"></rect><rect x="256" y="0" width="32" height="32" fill="rgb(249, 241, 248)"></rect><rect x="288" y="0" width="32" height="32" fill="rgb(251, 231, 243)"></rect><rect x="320" y="0" width="32" height="32" fill="rgb(247, 176, 217)"></rect><rect x="352" y="0" width="32" height="32" fill="rgb(237, 98, 179)"></rect><rect x="384" y="0" width="32" height="32" fill="rgb(181, 97, 121)"></rect><rect x="416" y="0" width="32" height="32" fill="rgb(142, 34, 132)"></rect><rect x="448" y="0" width="32" height="32" fill="rgb(66, 31, 115)"></rect><rect x="480" y="0" width="32" height="32" fill="rgb(33, 33, 86)"></rect><rect x="0" y="32" width="32" height="32" fill="rgb(15, 25, 65)"></rect><rect x="32" y="32" width="32" height="32" fill="rgb(15, 48, 119)"></rect><rect x="64" y="32" width="32" height="32" fill="rgb(11, 72, 165)"></rect><rect x="96" y="32" width="32" height="32" fill="rgb(53, 117, 160)"></rect><rect x="128" y="32" width="32" height="32" fill="rgb(151, 177, 199)"></rect><rect x="160" y="32" width="32" height="32" fill="rgb(241, 242, 249)"></rect><rect x="192" y="32" width="32" height="32" fill="rgb(253, 252, 253)"></rect><rect x="224" y="32" width="32" height="32" fill="rgb(254, 254, 254)"></rect><rect x="256" y="32" width="32" height="32" fill="rgb(254, 253, 254)"></rect><rect x="288" y="32" width="32" height="32" fill="rgb(254, 252, 254)"></rect><rect x="320" y="32" width="32" height="32" fill="rgb(252, 240, 248)"></rect><rect x="352" y="32" width="32" height="32" fill="rgb(247, 189, 222)"></rect><rect x="384" y="32" width="32" height="32" fill="rgb(156, 151, 125)"></rect><rect x="416" y="32" width="32" height="32" fill="rgb(190, 45, 146)"></rect><rect x="448" y="32" width="32" height="32" fill="rgb(99, 33, 133)"></rect><rect x="480" y="32" width="32" height="32" fill="rgb(46, 33, 109)"></rect><rect x="0" y="64" width="32" height="32" fill="rgb(16, 41, 98)"></rect><rect x="32" y="64" width="32" height="32" fill="rgb(12, 65, 155)"></rect><rect x="64" y="64" width="32" height="32" fill="rgb(20, 131, 211)"></rect><rect x="96" y="64" width="32" height="32" fill="rgb(162, 202, 238)"></rect><rect x="128" y="64" width="32" height="32" fill="rgb(208, 225, 191)"></rect><rect x="160" y="64" width="32" height="32" fill="rgb(253, 253, 253)"></rect><rect x="192" y="64" width="32" height="32" fill="rgb(253, 254, 253)"></rect><rect x="224" y="64" width="32" height="32" fill="rgb(253, 253, 253)"></rect><rect x="256" y="64" width="32" height="32" fill="rgb(252, 253, 253)"></rect><rect x="288" y="64" width="32" height="32" fill="rgb(254, 254, 254)"></rect><rect x="320" y="64" width="32" height="32" fill="rgb(254, 252, 254)"></rect><rect x="352" y="64" width="32" height="32" fill="rgb(223, 231, 209)"></rect><rect x="384" y="64" width="32" height="32" fill="rgb(241, 162, 204)"></rect><rect x="416" y="64" width="32" height="32" fill="rgb(220, 78, 169)"></rect><rect x="448" y="64" width="32" height="32" fill="rgb(111, 33, 141)"></rect><rect x="480" y="64" width="32" height="32" fill="rgb(58, 34, 127)"></rect><rect x="0" y="96" width="32" height="32" fill="rgb(14, 60, 135)"></rect><rect x="32" y="96" width="32" height="32" fill="rgb(12, 90, 184)"></rect><rect x="64" y="96" width="32" height="32" fill="rgb(115, 202, 240)"></rect><rect x="96" y="96" width="32" height="32" fill="rgb(249, 251, 252)"></rect><rect x="128" y="96" width="32" height="32" fill="rgb(220, 239, 206)"></rect><rect x="160" y="96" width="32" height="32" fill="rgb(206, 233, 187)"></rect><rect x="192" y="96" width="32" height="32" fill="rgb(216, 239, 211)"></rect><rect x="224" y="96" width="32" height="32" fill="rgb(214, 240, 213)"></rect><rect x="256" y="96" width="32" height="32" fill="rgb(215, 240, 214)"></rect><rect x="288" y="96" width="32" height="32" fill="rgb(217, 239, 210)"></rect><rect x="320" y="96" width="32" height="32" fill="rgb(218, 239, 202)"></rect><rect x="352" y="96" width="32" height="32" fill="rgb(201, 228, 177)"></rect><rect x="384" y="96" width="32" height="32" fill="rgb(251, 229, 242)"></rect><rect x="416" y="96" width="32" height="32" fill="rgb(214, 130, 197)"></rect><rect x="448" y="96" width="32" height="32" fill="rgb(107, 38, 147)"></rect><rect x="480" y="96" width="32" height="32" fill="rgb(61, 35, 137)"></rect><rect x="0" y="128" width="32" height="32" fill="rgb(11, 80, 167)"></rect><rect x="32" y="128" width="32" height="32" fill="rgb(23, 146, 222)"></rect><rect x="64" y="128" width="32" height="32" fill="rgb(194, 230, 228)"></rect><rect x="96" y="128" width="32" height="32" fill="rgb(170, 223, 138)"></rect><rect x="128" y="128" width="32" height="32" fill="rgb(111, 202, 89)"></rect><rect x="160" y="128" width="32" height="32" fill="rgb(85, 191, 77)"></rect><rect x="192" y="128" width="32" height="32" fill="rgb(91, 194, 87)"></rect><rect x="224" y="128" width="32" height="32" fill="rgb(95, 195, 91)"></rect><rect x="256" y="128" width="32" height="32" fill="rgb(95, 195, 92)"></rect><rect x="288" y="128" width="32" height="32" fill="rgb(93, 194, 87)"></rect><rect x="320" y="128" width="32" height="32" fill="rgb(99, 197, 84)"></rect><rect x="352" y="128" width="32" height="32" fill="rgb(117, 207, 82)"></rect><rect x="384" y="128" width="32" height="32" fill="rgb(195, 228, 167)"></rect><rect x="416" y="128" width="32" height="32" fill="rgb(204, 170, 215)"></rect><rect x="448" y="128" width="32" height="32" fill="rgb(90, 48, 154)"></rect><rect x="480" y="128" width="32" height="32" fill="rgb(54, 36, 142)"></rect><rect x="0" y="160" width="32" height="32" fill="rgb(11, 140, 219)"></rect><rect x="32" y="160" width="32" height="32" fill="rgb(39, 180, 225)"></rect><rect x="64" y="160" width="32" height="32" fill="rgb(133, 211, 98)"></rect><rect x="96" y="160" width="32" height="32" fill="rgb(81, 190, 68)"></rect><rect x="128" y="160" width="32" height="32" fill="rgb(75, 188, 68)"></rect><rect x="160" y="160" width="32" height="32" fill="rgb(77, 186, 69)"></rect><rect x="192" y="160" width="32" height="32" fill="rgb(75, 188, 68)"></rect><rect x="224" y="160" width="32" height="32" fill="rgb(75, 188, 68)"></rect><rect x="256" y="160" width="32" height="32" fill="rgb(76, 188, 68)"></rect><rect x="288" y="160" width="32" height="32" fill="rgb(76, 188, 68)"></rect><rect x="320" y="160" width="32" height="32" fill="rgb(75, 188, 68)"></rect><rect x="352" y="160" width="32" height="32" fill="rgb(76, 188, 67)"></rect><rect x="384" y="160" width="32" height="32" fill="rgb(98, 197, 77)"></rect><rect x="416" y="160" width="32" height="32" fill="rgb(174, 218, 168)"></rect><rect x="448" y="160" width="32" height="32" fill="rgb(74, 141, 211)"></rect><rect x="480" y="160" width="32" height="32" fill="rgb(42, 45, 151)"></rect><rect x="0" y="192" width="32" height="32" fill="rgb(10, 149, 226)"></rect><rect x="32" y="192" width="32" height="32" fill="rgb(84, 198, 148)"></rect><rect x="64" y="192" width="32" height="32" fill="rgb(84, 192, 68)"></rect><rect x="96" y="192" width="32" height="32" fill="rgb(115, 198, 112)"></rect><rect x="128" y="192" width="32" height="32" fill="rgb(114, 198, 112)"></rect><rect x="160" y="192" width="32" height="32" fill="rgb(78, 186, 69)"></rect><rect x="192" y="192" width="32" height="32" fill="rgb(75, 188, 68)"></rect><rect x="224" y="192" width="32" height="32" fill="rgb(75, 189, 68)"></rect><rect x="256" y="192" width="32" height="32" fill="rgb(75, 189, 68)"></rect><rect x="288" y="192" width="32" height="32" fill="rgb(75, 189, 68)"></rect><rect x="320" y="192" width="32" height="32" fill="rgb(75, 188, 68)"></rect><rect x="352" y="192" width="32" height="32" fill="rgb(111, 197, 107)"></rect><rect x="384" y="192" width="32" height="32" fill="rgb(97, 193, 91)"></rect><rect x="416" y="192" width="32" height="32" fill="rgb(107, 201, 81)"></rect><rect x="448" y="192" width="32" height="32" fill="rgb(71, 195, 192)"></rect><rect x="480" y="192" width="32" height="32" fill="rgb(11, 139, 221)"></rect><rect x="0" y="224" width="32" height="32" fill="rgb(12, 172, 238)"></rect><rect x="32" y="224" width="32" height="32" fill="rgb(103, 200, 87)"></rect><rect x="64" y="224" width="32" height="32" fill="rgb(112, 194, 112)"></rect><rect x="96" y="224" width="32" height="32" fill="rgb(198, 200, 235)"></rect><rect x="128" y="224" width="32" height="32" fill="rgb(194, 197, 234)"></rect><rect x="160" y="224" width="32" height="32" fill="rgb(108, 190, 111)"></rect><rect x="192" y="224" width="32" height="32" fill="rgb(75, 188, 68)"></rect><rect x="224" y="224" width="32" height="32" fill="rgb(75, 189, 68)"></rect><rect x="256" y="224" width="32" height="32" fill="rgb(75, 189, 68)"></rect><rect x="288" y="224" width="32" height="32" fill="rgb(75, 189, 68)"></rect><rect x="320" y="224" width="32" height="32" fill="rgb(124, 194, 130)"></rect><rect x="352" y="224" width="32" height="32" fill="rgb(199, 200, 236)"></rect><rect x="384" y="224" width="32" height="32" fill="rgb(197, 204, 229)"></rect><rect x="416" y="224" width="32" height="32" fill="rgb(93, 190, 85)"></rect><rect x="448" y="224" width="32" height="32" fill="rgb(99, 204, 129)"></rect><rect x="480" y="224" width="32" height="32" fill="rgb(25, 165, 231)"></rect><rect x="0" y="256" width="32" height="32" fill="rgb(14, 134, 211)"></rect><rect x="32" y="256" width="32" height="32" fill="rgb(100, 199, 73)"></rect><rect x="64" y="256" width="32" height="32" fill="rgb(112, 187, 119)"></rect><rect x="96" y="256" width="32" height="32" fill="rgb(178, 180, 228)"></rect><rect x="128" y="256" width="32" height="32" fill="rgb(176, 178, 225)"></rect><rect x="160" y="256" width="32" height="32" fill="rgb(109, 185, 118)"></rect><rect x="192" y="256" width="32" height="32" fill="rgb(75, 188, 68)"></rect><rect x="224" y="256" width="32" height="32" fill="rgb(75, 188, 67)"></rect><rect x="256" y="256" width="32" height="32" fill="rgb(74, 188, 67)"></rect><rect x="288" y="256" width="32" height="32" fill="rgb(75, 189, 68)"></rect><rect x="320" y="256" width="32" height="32" fill="rgb(127, 185, 147)"></rect><rect x="352" y="256" width="32" height="32" fill="rgb(172, 175, 221)"></rect><rect x="384" y="256" width="32" height="32" fill="rgb(182, 184, 232)"></rect><rect x="416" y="256" width="32" height="32" fill="rgb(94, 186, 96)"></rect><rect x="448" y="256" width="32" height="32" fill="rgb(97, 195, 105)"></rect><rect x="480" y="256" width="32" height="32" fill="rgb(16, 91, 188)"></rect><rect x="0" y="288" width="32" height="32" fill="rgb(14, 97, 190)"></rect><rect x="32" y="288" width="32" height="32" fill="rgb(80, 175, 76)"></rect><rect x="64" y="288" width="32" height="32" fill="rgb(69, 178, 67)"></rect><rect x="96" y="288" width="32" height="32" fill="rgb(115, 181, 132)"></rect><rect x="128" y="288" width="32" height="32" fill="rgb(116, 183, 132)"></rect><rect x="160" y="288" width="32" height="32" fill="rgb(74, 184, 68)"></rect><rect x="192" y="288" width="32" height="32" fill="rgb(73, 185, 67)"></rect><rect x="224" y="288" width="32" height="32" fill="rgb(73, 184, 68)"></rect><rect x="256" y="288" width="32" height="32" fill="rgb(74, 184, 68)"></rect><rect x="288" y="288" width="32" height="32" fill="rgb(73, 186, 67)"></rect><rect x="320" y="288" width="32" height="32" fill="rgb(79, 183, 76)"></rect><rect x="352" y="288" width="32" height="32" fill="rgb(131, 184, 153)"></rect><rect x="384" y="288" width="32" height="32" fill="rgb(114, 182, 131)"></rect><rect x="416" y="288" width="32" height="32" fill="rgb(68, 178, 65)"></rect><rect x="448" y="288" width="32" height="32" fill="rgb(74, 173, 114)"></rect><rect x="480" y="288" width="32" height="32" fill="rgb(19, 103, 193)"></rect><rect x="0" y="320" width="32" height="32" fill="rgb(16, 58, 148)"></rect><rect x="32" y="320" width="32" height="32" fill="rgb(45, 129, 109)"></rect><rect x="64" y="320" width="32" height="32" fill="rgb(55, 158, 62)"></rect><rect x="96" y="320" width="32" height="32" fill="rgb(60, 165, 63)"></rect><rect x="128" y="320" width="32" height="32" fill="rgb(64, 171, 64)"></rect><rect x="160" y="320" width="32" height="32" fill="rgb(66, 174, 65)"></rect><rect x="192" y="320" width="32" height="32" fill="rgb(66, 176, 65)"></rect><rect x="224" y="320" width="32" height="32" fill="rgb(67, 177, 66)"></rect><rect x="256" y="320" width="32" height="32" fill="rgb(67, 177, 66)"></rect><rect x="288" y="320" width="32" height="32" fill="rgb(66, 176, 65)"></rect><rect x="320" y="320" width="32" height="32" fill="rgb(65, 175, 65)"></rect><rect x="352" y="320" width="32" height="32" fill="rgb(62, 171, 64)"></rect><rect x="384" y="320" width="32" height="32" fill="rgb(57, 165, 63)"></rect><rect x="416" y="320" width="32" height="32" fill="rgb(53, 156, 61)"></rect><rect x="448" y="320" width="32" height="32" fill="rgb(39, 127, 147)"></rect><rect x="480" y="320" width="32" height="32" fill="rgb(31, 43, 139)"></rect><rect x="0" y="352" width="32" height="32" fill="rgb(22, 42, 115)"></rect><rect x="32" y="352" width="32" height="32" fill="rgb(18, 79, 150)"></rect><rect x="64" y="352" width="32" height="32" fill="rgb(39, 133, 72)"></rect><rect x="96" y="352" width="32" height="32" fill="rgb(45, 141, 60)"></rect><rect x="128" y="352" width="32" height="32" fill="rgb(49, 149, 61)"></rect><rect x="160" y="352" width="32" height="32" fill="rgb(52, 154, 62)"></rect><rect x="192" y="352" width="32" height="32" fill="rgb(54, 157, 62)"></rect><rect x="224" y="352" width="32" height="32" fill="rgb(55, 159, 63)"></rect><rect x="256" y="352" width="32" height="32" fill="rgb(55, 159, 62)"></rect><rect x="288" y="352" width="32" height="32" fill="rgb(53, 157, 62)"></rect><rect x="320" y="352" width="32" height="32" fill="rgb(51, 154, 62)"></rect><rect x="352" y="352" width="32" height="32" fill="rgb(47, 148, 61)"></rect><rect x="384" y="352" width="32" height="32" fill="rgb(41, 137, 59)"></rect><rect x="416" y="352" width="32" height="32" fill="rgb(36, 126, 90)"></rect><rect x="448" y="352" width="32" height="32" fill="rgb(15, 82, 173)"></rect><rect x="480" y="352" width="32" height="32" fill="rgb(26, 45, 127)"></rect><rect x="0" y="384" width="32" height="32" fill="rgb(19, 39, 101)"></rect><rect x="32" y="384" width="32" height="32" fill="rgb(14, 64, 132)"></rect><rect x="64" y="384" width="32" height="32" fill="rgb(17, 137, 173)"></rect><rect x="96" y="384" width="32" height="32" fill="rgb(29, 114, 55)"></rect><rect x="128" y="384" width="32" height="32" fill="rgb(32, 121, 57)"></rect><rect x="160" y="384" width="32" height="32" fill="rgb(37, 128, 58)"></rect><rect x="192" y="384" width="32" height="32" fill="rgb(39, 132, 59)"></rect><rect x="224" y="384" width="32" height="32" fill="rgb(40, 134, 60)"></rect><rect x="256" y="384" width="32" height="32" fill="rgb(40, 134, 60)"></rect><rect x="288" y="384" width="32" height="32" fill="rgb(38, 131, 59)"></rect><rect x="320" y="384" width="32" height="32" fill="rgb(34, 125, 58)"></rect><rect x="352" y="384" width="32" height="32" fill="rgb(29, 118, 56)"></rect><rect x="384" y="384" width="32" height="32" fill="rgb(26, 111, 55)"></rect><rect x="416" y="384" width="32" height="32" fill="rgb(37, 90, 148)"></rect><rect x="448" y="384" width="32" height="32" fill="rgb(20, 63, 150)"></rect><rect x="480" y="384" width="32" height="32" fill="rgb(27, 37, 102)"></rect><rect x="0" y="416" width="32" height="32" fill="rgb(15, 38, 91)"></rect><rect x="32" y="416" width="32" height="32" fill="rgb(14, 45, 100)"></rect><rect x="64" y="416" width="32" height="32" fill="rgb(17, 89, 122)"></rect><rect x="96" y="416" width="32" height="32" fill="rgb(24, 102, 54)"></rect><rect x="128" y="416" width="32" height="32" fill="rgb(21, 85, 46)"></rect><rect x="160" y="416" width="32" height="32" fill="rgb(23, 99, 52)"></rect><rect x="192" y="416" width="32" height="32" fill="rgb(28, 114, 61)"></rect><rect x="224" y="416" width="32" height="32" fill="rgb(42, 123, 77)"></rect><rect x="256" y="416" width="32" height="32" fill="rgb(45, 125, 80)"></rect><rect x="288" y="416" width="32" height="32" fill="rgb(32, 116, 67)"></rect><rect x="320" y="416" width="32" height="32" fill="rgb(23, 92, 51)"></rect><rect x="352" y="416" width="32" height="32" fill="rgb(21, 79, 44)"></rect><rect x="384" y="416" width="32" height="32" fill="rgb(23, 102, 55)"></rect><rect x="416" y="416" width="32" height="32" fill="rgb(36, 63, 107)"></rect><rect x="448" y="416" width="32" height="32" fill="rgb(29, 37, 112)"></rect><rect x="480" y="416" width="32" height="32" fill="rgb(23, 27, 72)"></rect><rect x="0" y="448" width="32" height="32" fill="rgb(12, 32, 73)"></rect><rect x="32" y="448" width="32" height="32" fill="rgb(16, 38, 93)"></rect><rect x="64" y="448" width="32" height="32" fill="rgb(16, 47, 92)"></rect><rect x="96" y="448" width="32" height="32" fill="rgb(27, 103, 58)"></rect><rect x="128" y="448" width="32" height="32" fill="rgb(20, 99, 52)"></rect><rect x="160" y="448" width="32" height="32" fill="rgb(18, 83, 67)"></rect><rect x="192" y="448" width="32" height="32" fill="rgb(39, 185, 218)"></rect><rect x="224" y="448" width="32" height="32" fill="rgb(149, 227, 234)"></rect><rect x="256" y="448" width="32" height="32" fill="rgb(180, 233, 237)"></rect><rect x="288" y="448" width="32" height="32" fill="rgb(38, 196, 230)"></rect><rect x="320" y="448" width="32" height="32" fill="rgb(19, 83, 72)"></rect><rect x="352" y="448" width="32" height="32" fill="rgb(20, 100, 55)"></rect><rect x="384" y="448" width="32" height="32" fill="rgb(22, 101, 57)"></rect><rect x="416" y="448" width="32" height="32" fill="rgb(29, 51, 108)"></rect><rect x="448" y="448" width="32" height="32" fill="rgb(18, 35, 85)"></rect><rect x="480" y="448" width="32" height="32" fill="rgb(17, 21, 50)"></rect><rect x="0" y="480" width="32" height="32" fill="rgb(12, 26, 56)"></rect><rect x="32" y="480" width="32" height="32" fill="rgb(15, 36, 87)"></rect><rect x="64" y="480" width="32" height="32" fill="rgb(16, 37, 92)"></rect><rect x="96" y="480" width="32" height="32" fill="rgb(18, 50, 93)"></rect><rect x="128" y="480" width="32" height="32" fill="rgb(18, 91, 124)"></rect><rect x="160" y="480" width="32" height="32" fill="rgb(13, 121, 200)"></rect><rect x="192" y="480" width="32" height="32" fill="rgb(13, 182, 241)"></rect><rect x="224" y="480" width="32" height="32" fill="rgb(68, 217, 248)"></rect><rect x="256" y="480" width="32" height="32" fill="rgb(69, 219, 248)"></rect><rect x="288" y="480" width="32" height="32" fill="rgb(13, 190, 242)"></rect><rect x="320" y="480" width="32" height="32" fill="rgb(22, 103, 185)"></rect><rect x="352" y="480" width="32" height="32" fill="rgb(37, 67, 109)"></rect><rect x="384" y="480" width="32" height="32" fill="rgb(21, 65, 120)"></rect><rect x="416" y="480" width="32" height="32" fill="rgb(24, 29, 86)"></rect><rect x="448" y="480" width="32" height="32" fill="rgb(17, 21, 53)"></rect><rect x="480" y="480" width="32" height="32" fill="rgb(11, 18, 37)"></rect></svg>